<?xml version="1.0" encoding="utf-8"?>
<!-- Generator: Adobe Illustrator 25.0.0, SVG Export Plug-In . SVG Version: 6.00 Build 0)  -->
<svg version="1.1" id="Layer_1" xmlns="http://www.w3.org/2000/svg" xmlns:xlink="http://www.w3.org/1999/xlink" x="0px" y="0px"
	 viewBox="0 0 600 600" style="enable-background:new 0 0 600 600;" xml:space="preserve">
<style type="text/css">
	.st0{fill:url(#SVGID_1_);}
	.st1{opacity:0.1;}
	.st2{opacity:0;fill:#3C5185;}
	.st3{opacity:2.439000e-02;fill:#3C5185;}
	.st4{opacity:4.878000e-02;fill:#3C5185;}
	.st5{opacity:7.317100e-02;fill:#3C5185;}
	.st6{opacity:9.756100e-02;fill:#3C5185;}
	.st7{opacity:0.122;fill:#3C5185;}
	.st8{opacity:0.1463;fill:#3C5185;}
	.st9{opacity:0.1707;fill:#3C5185;}
	.st10{opacity:0.1951;fill:#3C5185;}
	.st11{opacity:0.2195;fill:#3C5185;}
	.st12{opacity:0.2439;fill:#3C5185;}
	.st13{opacity:0.2683;fill:#3C5185;}
	.st14{opacity:0.2927;fill:#3C5185;}
	.st15{opacity:0.3171;fill:#3C5185;}
	.st16{opacity:0.3415;fill:#3C5185;}
	.st17{opacity:0.3659;fill:#3C5185;}
	.st18{opacity:0.3902;fill:#3C5185;}
	.st19{opacity:0.4146;fill:#3C5185;}
	.st20{opacity:0.439;fill:#3C5185;}
	.st21{opacity:0.4634;fill:#3C5185;}
	.st22{opacity:0.4878;fill:#3C5185;}
	.st23{opacity:0.5122;fill:#3C5185;}
	.st24{opacity:0.5366;fill:#3C5185;}
	.st25{opacity:0.561;fill:#3C5185;}
	.st26{opacity:0.5854;fill:#3C5185;}
	.st27{opacity:0.6098;fill:#3C5185;}
	.st28{opacity:0.6341;fill:#3C5185;}
	.st29{opacity:0.6585;fill:#3C5185;}
	.st30{opacity:0.6829;fill:#3C5185;}
	.st31{opacity:0.7073;fill:#3C5185;}
	.st32{opacity:0.7317;fill:#3C5185;}
	.st33{opacity:0.7561;fill:#3C5185;}
	.st34{opacity:0.7805;fill:#3C5185;}
	.st35{opacity:0.8049;fill:#3C5185;}
	.st36{opacity:0.8293;fill:#3C5185;}
	.st37{opacity:0.8537;fill:#3C5185;}
	.st38{opacity:0.878;fill:#3C5185;}
	.st39{opacity:0.9024;fill:#3C5185;}
	.st40{opacity:0.9268;fill:#3C5185;}
	.st41{opacity:0.9512;fill:#3C5185;}
	.st42{opacity:0.9756;fill:#3C5185;}
	.st43{fill:#3C5185;}
	.st44{opacity:0;fill:#505050;}
	.st45{opacity:2.439000e-02;fill:#505050;}
	.st46{opacity:4.878000e-02;fill:#505050;}
	.st47{opacity:7.317100e-02;fill:#505050;}
	.st48{opacity:9.756100e-02;fill:#505050;}
	.st49{opacity:0.122;fill:#505050;}
	.st50{opacity:0.1463;fill:#505050;}
	.st51{opacity:0.1707;fill:#505050;}
	.st52{opacity:0.1951;fill:#505050;}
	.st53{opacity:0.2195;fill:#505050;}
	.st54{opacity:0.2439;fill:#505050;}
	.st55{opacity:0.2683;fill:#505050;}
	.st56{opacity:0.2927;fill:#505050;}
	.st57{opacity:0.3171;fill:#505050;}
	.st58{opacity:0.3415;fill:#505050;}
	.st59{opacity:0.3659;fill:#505050;}
	.st60{opacity:0.3902;fill:#505050;}
	.st61{opacity:0.4146;fill:#505050;}
	.st62{opacity:0.439;fill:#505050;}
	.st63{opacity:0.4634;fill:#505050;}
	.st64{opacity:0.4878;fill:#505050;}
	.st65{opacity:0.5122;fill:#505050;}
	.st66{opacity:0.5366;fill:#505050;}
	.st67{opacity:0.561;fill:#505050;}
	.st68{opacity:0.5854;fill:#505050;}
	.st69{opacity:0.6098;fill:#505050;}
	.st70{opacity:0.6341;fill:#505050;}
	.st71{opacity:0.6585;fill:#505050;}
	.st72{opacity:0.6829;fill:#505050;}
	.st73{opacity:0.7073;fill:#505050;}
	.st74{opacity:0.7317;fill:#505050;}
	.st75{opacity:0.7561;fill:#505050;}
	.st76{opacity:0.7805;fill:#505050;}
	.st77{opacity:0.8049;fill:#505050;}
	.st78{opacity:0.8293;fill:#505050;}
	.st79{opacity:0.8537;fill:#505050;}
	.st80{opacity:0.878;fill:#505050;}
	.st81{opacity:0.9024;fill:#505050;}
	.st82{opacity:0.9268;fill:#505050;}
	.st83{opacity:0.9512;fill:#505050;}
	.st84{opacity:0.9756;fill:#505050;}
	.st85{fill:#505050;}
	.st86{fill:#424242;}
	.st87{fill:#282828;}
	.st88{fill:#FFFFFF;}
	.st89{fill:#E7E7E7;}
	.st90{fill:url(#XMLID_5_);}
	.st91{fill:#CE0000;}
	.st92{fill:#B50404;}
	.st93{fill:#AAAAAA;}
	.st94{fill:#FFE494;}
	.st95{fill:url(#XMLID_6_);}
	.st96{fill:url(#XMLID_7_);}
	.st97{fill:#231F20;}
	.st98{opacity:0.3;fill:#231F20;}
	.st99{fill:#EDF3FA;}
	.st100{fill:url(#XMLID_8_);}
	.st101{fill:url(#XMLID_9_);}
	.st102{fill:#FFC107;}
	.st103{fill:url(#XMLID_10_);}
	.st104{fill:url(#XMLID_11_);}
	.st105{fill:url(#XMLID_12_);}
	.st106{fill:url(#XMLID_13_);}
	.st107{fill:url(#XMLID_14_);}
	.st108{fill:url(#XMLID_15_);}
	.st109{fill:url(#XMLID_16_);}
	.st110{fill:url(#XMLID_17_);}
	.st111{fill:url(#XMLID_18_);}
	.st112{fill:url(#XMLID_19_);}
	.st113{fill:url(#XMLID_20_);}
	.st114{fill:url(#XMLID_21_);}
	.st115{fill:url(#XMLID_22_);}
	.st116{fill:url(#XMLID_23_);}
	.st117{fill:url(#XMLID_24_);}
	.st118{fill:url(#XMLID_25_);}
	.st119{fill:url(#XMLID_26_);}
	.st120{fill:url(#XMLID_27_);}
	.st121{fill:url(#XMLID_28_);}
	.st122{fill:url(#XMLID_29_);}
	.st123{fill:url(#XMLID_30_);}
	.st124{fill:url(#XMLID_31_);}
	.st125{fill:url(#XMLID_32_);}
	.st126{fill:url(#XMLID_33_);}
	.st127{fill:url(#XMLID_34_);}
	.st128{fill:url(#SVGID_2_);}
	.st129{fill:url(#XMLID_35_);}
	.st130{fill:#414042;}
</style>
<g>
	<linearGradient id="SVGID_1_" gradientUnits="userSpaceOnUse" x1="131.2972" y1="557.915" x2="508.2285" y2="61.051">
		<stop  offset="0.1" style="stop-color:#FFFFFF"/>
		<stop  offset="0.5088" style="stop-color:#F8F8F8"/>
		<stop  offset="1" style="stop-color:#E9E9E9"/>
	</linearGradient>
	<path class="st0" d="M541,331.8c0,124.8-120.1,212.7-241.8,212.7S64.6,456.7,64.6,331.8S234.9,52.9,356.5,52.9S541,207,541,331.8z"
		/>
	<g id="XMLID_569_" class="st1">
		<polygon id="XMLID_842_" class="st2" points="296.4,258 223.4,298.9 449.7,436.1 522.7,392.2 		"/>
		<polygon id="XMLID_841_" class="st3" points="296.4,258 225,298 451.3,435.1 522.7,392.2 		"/>
		<polygon id="XMLID_840_" class="st4" points="296.4,258 226.7,297 453,434.1 522.7,392.2 		"/>
		<polygon id="XMLID_839_" class="st5" points="296.4,258 228.4,296.1 454.6,433.1 522.7,392.2 		"/>
		<polygon id="XMLID_838_" class="st6" points="296.4,258 230.1,295.1 456.2,432.1 522.7,392.2 		"/>
		<polygon id="XMLID_837_" class="st7" points="296.4,258 231.7,294.2 457.8,431.1 522.7,392.2 		"/>
		<polygon id="XMLID_836_" class="st8" points="296.4,258 233.4,293.2 459.4,430.2 522.7,392.2 		"/>
		<polygon id="XMLID_835_" class="st9" points="296.4,258 235.1,292.3 461,429.2 522.7,392.2 		"/>
		<polygon id="XMLID_834_" class="st10" points="296.4,258 236.7,291.3 462.7,428.2 522.7,392.2 		"/>
		<polygon id="XMLID_833_" class="st11" points="296.4,258 238.4,290.4 464.3,427.2 522.7,392.2 		"/>
		<polygon id="XMLID_832_" class="st12" points="296.4,258 240.1,289.4 465.9,426.2 522.7,392.2 		"/>
		<polygon id="XMLID_831_" class="st13" points="296.4,258 241.8,288.5 467.5,425.2 522.7,392.2 		"/>
		<polygon id="XMLID_716_" class="st14" points="296.4,258 243.4,287.5 469.1,424.3 522.7,392.2 		"/>
		<polygon id="XMLID_701_" class="st15" points="296.4,258 245.1,286.6 470.8,423.3 522.7,392.2 		"/>
		<polygon id="XMLID_644_" class="st16" points="296.4,258 246.8,285.6 472.4,422.3 522.7,392.2 		"/>
		<polygon id="XMLID_643_" class="st17" points="296.4,258 248.4,284.7 474,421.3 522.7,392.2 		"/>
		<polygon id="XMLID_594_" class="st18" points="296.4,258 250.1,283.7 475.6,420.3 522.7,392.2 		"/>
		<polygon id="XMLID_593_" class="st19" points="296.4,258 251.8,282.8 477.2,419.4 522.7,392.2 		"/>
		<polygon id="XMLID_592_" class="st20" points="296.4,258 253.4,281.8 478.8,418.4 522.7,392.2 		"/>
		<polygon id="XMLID_591_" class="st21" points="296.4,258 255.1,280.9 480.5,417.4 522.7,392.2 		"/>
		<polygon id="XMLID_590_" class="st22" points="296.4,258 256.8,279.9 482.1,416.4 522.7,392.2 		"/>
		<polygon id="XMLID_589_" class="st23" points="296.4,258 258.5,279 483.7,415.4 522.7,392.2 		"/>
		<polygon id="XMLID_588_" class="st24" points="296.4,258 260.1,278 485.3,414.4 522.7,392.2 		"/>
		<polygon id="XMLID_587_" class="st25" points="296.4,258 261.8,277.1 486.9,413.5 522.7,392.2 		"/>
		<polygon id="XMLID_586_" class="st26" points="296.4,258 263.5,276.1 488.6,412.5 522.7,392.2 		"/>
		<polygon id="XMLID_585_" class="st27" points="296.4,258 265.1,275.2 490.2,411.5 522.7,392.2 		"/>
		<polygon id="XMLID_584_" class="st28" points="296.4,258 266.8,274.2 491.8,410.5 522.7,392.2 		"/>
		<polygon id="XMLID_583_" class="st29" points="296.4,258 268.5,273.3 493.4,409.5 522.7,392.2 		"/>
		<polygon id="XMLID_582_" class="st30" points="296.4,258 270.1,272.3 495,408.5 522.7,392.2 		"/>
		<polygon id="XMLID_581_" class="st31" points="296.4,258 271.8,271.4 496.6,407.6 522.7,392.2 		"/>
		<polygon id="XMLID_580_" class="st32" points="296.4,258 273.5,270.4 498.3,406.6 522.7,392.2 		"/>
		<polygon id="XMLID_579_" class="st33" points="296.4,258 275.2,269.5 499.9,405.6 522.7,392.2 		"/>
		<polygon id="XMLID_578_" class="st34" points="296.4,258 276.8,268.5 501.5,404.6 522.7,392.2 		"/>
		<polygon id="XMLID_577_" class="st35" points="296.4,258 278.5,267.5 503.1,403.6 522.7,392.2 		"/>
		<polygon id="XMLID_576_" class="st36" points="296.4,258 280.2,266.6 504.7,402.6 522.7,392.2 		"/>
		<polygon id="XMLID_575_" class="st37" points="296.4,258 281.8,265.6 506.4,401.7 522.7,392.2 		"/>
		<polygon id="XMLID_574_" class="st38" points="296.4,258 283.5,264.7 508,400.7 522.7,392.2 		"/>
		<polygon id="XMLID_573_" class="st39" points="296.4,258 285.2,263.7 509.6,399.7 522.7,392.2 		"/>
		<polygon id="XMLID_572_" class="st40" points="296.4,258 286.8,262.8 511.2,398.7 522.7,392.2 		"/>
		<polygon id="XMLID_571_" class="st41" points="296.4,258 288.5,261.8 512.8,397.7 522.7,392.2 		"/>
		<polygon id="XMLID_570_" class="st42" points="296.4,258 290.2,260.9 514.4,396.7 522.7,392.2 		"/>
		<polygon id="XMLID_700_" class="st43" points="296.4,258 291.9,259.9 516.1,395.8 522.7,392.2 		"/>
	</g>
	<g id="XMLID_479_" class="st1">
		<polygon id="XMLID_568_" class="st44" points="181.7,287.2 99.2,333.4 354.9,488.3 437.3,438.8 		"/>
		<polygon id="XMLID_567_" class="st45" points="181.7,287.2 101.1,332.4 356.7,487.2 437.3,438.8 		"/>
		<polygon id="XMLID_566_" class="st46" points="181.7,287.2 103,331.3 358.5,486.1 437.3,438.8 		"/>
		<polygon id="XMLID_565_" class="st47" points="181.7,287.2 104.9,330.2 360.3,485 437.3,438.8 		"/>
		<polygon id="XMLID_564_" class="st48" points="181.7,287.2 106.8,329.1 362.2,483.9 437.3,438.8 		"/>
		<polygon id="XMLID_563_" class="st49" points="181.7,287.2 108.7,328.1 364,482.8 437.3,438.8 		"/>
		<polygon id="XMLID_561_" class="st50" points="181.7,287.2 110.6,327 365.8,481.6 437.3,438.8 		"/>
		<polygon id="XMLID_560_" class="st51" points="181.7,287.2 112.4,325.9 367.7,480.5 437.3,438.8 		"/>
		<polygon id="XMLID_559_" class="st52" points="181.7,287.2 114.3,324.8 369.5,479.4 437.3,438.8 		"/>
		<polygon id="XMLID_558_" class="st53" points="181.7,287.2 116.2,323.8 371.3,478.3 437.3,438.8 		"/>
		<polygon id="XMLID_557_" class="st54" points="181.7,287.2 118.1,322.7 373.1,477.2 437.3,438.8 		"/>
		<polygon id="XMLID_556_" class="st55" points="181.7,287.2 120,321.6 375,476.1 437.3,438.8 		"/>
		<polygon id="XMLID_555_" class="st56" points="181.7,287.2 121.9,320.5 376.8,475 437.3,438.8 		"/>
		<polygon id="XMLID_551_" class="st57" points="181.7,287.2 123.8,319.5 378.6,473.9 437.3,438.8 		"/>
		<polygon id="XMLID_550_" class="st58" points="181.7,287.2 125.6,318.4 380.4,472.8 437.3,438.8 		"/>
		<polygon id="XMLID_549_" class="st59" points="181.7,287.2 127.5,317.3 382.3,471.6 437.3,438.8 		"/>
		<polygon id="XMLID_548_" class="st60" points="181.7,287.2 129.4,316.2 384.1,470.5 437.3,438.8 		"/>
		<polygon id="XMLID_512_" class="st61" points="181.7,287.2 131.3,315.2 385.9,469.4 437.3,438.8 		"/>
		<polygon id="XMLID_511_" class="st62" points="181.7,287.2 133.2,314.1 387.8,468.3 437.3,438.8 		"/>
		<polygon id="XMLID_510_" class="st63" points="181.7,287.2 135.1,313 389.6,467.2 437.3,438.8 		"/>
		<polygon id="XMLID_509_" class="st64" points="181.7,287.2 137,312 391.4,466.1 437.3,438.8 		"/>
		<polygon id="XMLID_508_" class="st65" points="181.7,287.2 138.8,310.9 393.2,465 437.3,438.8 		"/>
		<polygon id="XMLID_507_" class="st66" points="181.7,287.2 140.7,309.8 395.1,463.9 437.3,438.8 		"/>
		<polygon id="XMLID_506_" class="st67" points="181.7,287.2 142.6,308.7 396.9,462.8 437.3,438.8 		"/>
		<polygon id="XMLID_505_" class="st68" points="181.7,287.2 144.5,307.7 398.7,461.7 437.3,438.8 		"/>
		<polygon id="XMLID_496_" class="st69" points="181.7,287.2 146.4,306.6 400.5,460.5 437.3,438.8 		"/>
		<polygon id="XMLID_495_" class="st70" points="181.7,287.2 148.3,305.5 402.4,459.4 437.3,438.8 		"/>
		<polygon id="XMLID_494_" class="st71" points="181.7,287.2 150.2,304.4 404.2,458.3 437.3,438.8 		"/>
		<polygon id="XMLID_493_" class="st72" points="181.7,287.2 152.1,303.4 406,457.2 437.3,438.8 		"/>
		<polygon id="XMLID_492_" class="st73" points="181.7,287.2 153.9,302.3 407.9,456.1 437.3,438.8 		"/>
		<polygon id="XMLID_491_" class="st74" points="181.7,287.2 155.8,301.2 409.7,455 437.3,438.8 		"/>
		<polygon id="XMLID_490_" class="st75" points="181.7,287.2 157.7,300.1 411.5,453.9 437.3,438.8 		"/>
		<polygon id="XMLID_489_" class="st76" points="181.7,287.2 159.6,299.1 413.3,452.8 437.3,438.8 		"/>
		<polygon id="XMLID_488_" class="st77" points="181.7,287.2 161.5,298 415.2,451.7 437.3,438.8 		"/>
		<polygon id="XMLID_487_" class="st78" points="181.7,287.2 163.4,296.9 417,450.6 437.3,438.8 		"/>
		<polygon id="XMLID_486_" class="st79" points="181.7,287.2 165.3,295.8 418.8,449.4 437.3,438.8 		"/>
		<polygon id="XMLID_485_" class="st80" points="181.7,287.2 167.1,294.8 420.7,448.3 437.3,438.8 		"/>
		<polygon id="XMLID_484_" class="st81" points="181.7,287.2 169,293.7 422.5,447.2 437.3,438.8 		"/>
		<polygon id="XMLID_483_" class="st82" points="181.7,287.2 170.9,292.6 424.3,446.1 437.3,438.8 		"/>
		<polygon id="XMLID_482_" class="st83" points="181.7,287.2 172.8,291.5 426.1,445 437.3,438.8 		"/>
		<polygon id="XMLID_481_" class="st84" points="181.7,287.2 174.7,290.5 428,443.9 437.3,438.8 		"/>
		<polygon id="XMLID_480_" class="st85" points="181.7,287.2 176.6,289.4 429.8,442.8 437.3,438.8 		"/>
	</g>
	<g id="XMLID_296_">
		<path id="XMLID_478_" class="st86" d="M220.3,51.5l270.4,158.7l38.1,167.4c2.7,11.4-9.2,20.6-19.1,14.7L260,249.1L220.3,51.5z"/>
		<path id="XMLID_477_" d="M528.7,377.6l-38.1-167.4L220.3,51.5l1,4.2l263.4,156l37.9,165.9c1.9,7.8-3.1,14.5-9.6,16.1
			C522.1,396.1,531.1,387.7,528.7,377.6z"/>
		<polygon id="XMLID_703_" points="490.7,210.2 503.1,265.9 497.7,269.1 484.7,211.8 		"/>
		<polygon id="XMLID_476_" class="st87" points="497.7,269.1 449.8,240.9 447.3,189.6 484.7,211.8 		"/>
		<polygon id="XMLID_702_" points="490.7,210.2 220.3,51.5 214.2,51.5 484.7,211.8 		"/>
		<path id="XMLID_475_" class="st88" d="M214.2,51.5l270.6,160.2l-40.8,215.9c-2.2,11.8-15.1,17.8-25.2,11.8L183.3,300
			c-8.7-5.1-13.2-15.3-11.3-25.4L214.2,51.5z"/>
		<g id="XMLID_319_">
			<path id="XMLID_474_" class="st89" d="M226.4,160l20.6,12.2c2.4,1.4,3.6,4.2,3,7l-4.1,20.1c-0.7,3.2-4.2,4.8-7,3.2l-20.6-12.2
				c-2.4-1.4-3.6-4.2-3-7l4.1-20.1C220.1,160,223.7,158.4,226.4,160z"/>
			<path id="XMLID_473_" class="st89" d="M272.3,187.5l20.6,12.2c2.4,1.4,3.6,4.2,3,7l-4.1,20.1c-0.7,3.2-4.2,4.8-7,3.2l-20.6-12.2
				c-2.4-1.4-3.6-4.2-3-7l4.1-20.1C266,187.4,269.5,185.8,272.3,187.5z"/>
			<path id="XMLID_332_" class="st89" d="M318.2,214.9l20.6,12.2c2.4,1.4,3.6,4.2,3,7l-4.1,20.1c-0.7,3.2-4.2,4.8-7,3.2l-20.6-12.2
				c-2.4-1.4-3.6-4.2-3-7l4.1-20.1C311.9,214.9,315.4,213.3,318.2,214.9z"/>
			<path id="XMLID_331_" class="st89" d="M364.1,242.4l20.6,12.2c2.4,1.4,3.6,4.2,3,7l-4.1,20.1c-0.7,3.2-4.2,4.8-7,3.2L356,272.6
				c-2.4-1.4-3.6-4.2-3-7l4.1-20.1C357.8,242.3,361.3,240.7,364.1,242.4z"/>
			<path id="XMLID_330_" class="st89" d="M409.9,269.8l20.6,12.2c2.4,1.4,3.6,4.2,3,7l-4.1,20.1c-0.7,3.2-4.2,4.8-7,3.2l-20.6-12.2
				c-2.4-1.4-3.6-4.2-3-7L403,273C403.6,269.8,407.2,268.2,409.9,269.8z"/>
			<path id="XMLID_329_" class="st89" d="M217.1,206l20.6,12.2c2.4,1.4,3.6,4.2,3,7l-4.1,20.1c-0.7,3.2-4.2,4.8-7,3.2l-20.6-12.2
				c-2.4-1.4-3.6-4.2-3-7l4.1-20.1C210.8,206,214.3,204.4,217.1,206z"/>
			<path id="XMLID_328_" class="st89" d="M263,233.5l20.6,12.2c2.4,1.4,3.6,4.2,3,7l-4.1,20.1c-0.7,3.2-4.2,4.8-7,3.2l-20.6-12.2
				c-2.4-1.4-3.6-4.2-3-7l4.1-20.1C256.7,233.5,260.2,231.9,263,233.5z"/>
			<path id="XMLID_327_" class="st89" d="M308.9,260.9l20.6,12.2c2.4,1.4,3.6,4.2,3,7l-4.1,20.1c-0.7,3.2-4.2,4.8-7,3.2l-20.6-12.2
				c-2.4-1.4-3.6-4.2-3-7l4.1-20.1C302.6,260.9,306.1,259.3,308.9,260.9z"/>
			<path id="XMLID_326_" class="st89" d="M354.7,288.4l20.6,12.2c2.4,1.4,3.6,4.2,3,7l-4.1,20.1c-0.7,3.2-4.2,4.8-7,3.2l-20.6-12.2
				c-2.4-1.4-3.6-4.2-3-7l4.1-20.1C348.4,288.4,352,286.8,354.7,288.4z"/>
			<path id="XMLID_325_" class="st89" d="M400.6,315.9l20.6,12.2c2.4,1.4,3.6,4.2,3,7l-4.1,20.1c-0.7,3.2-4.2,4.8-7,3.2l-20.6-12.2
				c-2.4-1.4-3.6-4.2-3-7l4.1-20.1C394.3,315.8,397.8,314.2,400.6,315.9z"/>
			<path id="XMLID_324_" class="st89" d="M207.8,252.1l20.6,12.2c2.4,1.4,3.6,4.2,3,7l-4.1,20.1c-0.7,3.2-4.2,4.8-7,3.2l-20.6-12.2
				c-2.4-1.4-3.6-4.2-3-7l4.1-20.1C201.5,252.1,205,250.4,207.8,252.1z"/>
			<path id="XMLID_323_" class="st89" d="M253.7,279.5l20.6,12.2c2.4,1.4,3.6,4.2,3,7l-4.1,20.1c-0.7,3.2-4.2,4.8-7,3.2l-20.6-12.2
				c-2.4-1.4-3.6-4.2-3-7l4.1-20.1C247.4,279.5,250.9,277.9,253.7,279.5z"/>
			<path id="XMLID_322_" class="st89" d="M299.5,307l20.6,12.2c2.4,1.4,3.6,4.2,3,7l-4.1,20.1c-0.7,3.2-4.2,4.8-7,3.2l-20.6-12.2
				c-2.4-1.4-3.6-4.2-3-7l4.1-20.1C293.2,307,296.8,305.3,299.5,307z"/>
			<path id="XMLID_321_" class="st89" d="M345.4,334.4l20.6,12.2c2.4,1.4,3.6,4.2,3,7l-4.1,20.1c-0.7,3.2-4.2,4.8-7,3.2l-20.6-12.2
				c-2.4-1.4-3.6-4.2-3-7l4.1-20.1C339.1,334.4,342.6,332.8,345.4,334.4z"/>
			<path id="XMLID_320_" class="st89" d="M391.3,361.9l20.6,12.2c2.4,1.4,3.6,4.2,3,7l-4.1,20.1c-0.7,3.2-4.2,4.8-7,3.2l-20.6-12.2
				c-2.4-1.4-3.6-4.2-3-7l4.1-20.1C385,361.9,388.5,360.2,391.3,361.9z"/>
		</g>
		<linearGradient id="XMLID_5_" gradientUnits="userSpaceOnUse" x1="213.5513" y1="246.6304" x2="484.7207" y2="246.6304">
			<stop  offset="0" style="stop-color:#F8F8F8"/>
			<stop  offset="0.2091" style="stop-color:#EFEFEF"/>
			<stop  offset="0.9962" style="stop-color:#C4C4C4"/>
		</linearGradient>
		<path id="XMLID_562_" class="st90" d="M214.2,51.5l-0.6,3.3l265.1,157l-40.8,215.9c-1.4,7.4-7.1,12.6-13.6,13.8
			c8.8,1.7,17.9-4.1,19.7-13.8l40.8-215.9L214.2,51.5z"/>
		<polygon id="XMLID_318_" class="st91" points="202.3,114.2 467.4,271.1 484.7,211.8 214.2,51.5 		"/>
		<polygon id="XMLID_317_" class="st92" points="478.6,211.8 467.4,271.1 473.6,270.4 484.7,211.8 		"/>
		<g id="XMLID_315_">
			<path id="XMLID_316_" class="st85" d="M251.9,105c-3.9,0-7.5-1.4-10.2-4c-2.6-2.4-5.6-7-5.6-15.1c0-13.6,9-29.7,20.5-36.5
				c6.5-3.9,13.3-4.3,18.5-1.2c5.2,3.1,8.2,9.3,8.2,17c0,6.4-2,13.5-5.6,20.1L267,79.2c2.6-4.7,4-9.8,4-14c0-3-0.8-5.4-2.1-6.2
				c-1.3-0.8-3.7-0.3-6.2,1.2c-7.7,4.6-14.4,16.5-14.4,25.7c0,2.7,0.6,4.9,1.7,5.8c0.4,0.3,1,0.8,2.4,0.7l1.1,12.5
				C252.8,105,252.4,105,251.9,105z"/>
		</g>
		<g id="XMLID_313_">
			<path id="XMLID_314_" class="st85" d="M251.9,105c-3.9,0-7.5-1.4-10.2-4c-2.6-2.4-5.6-7-5.6-15.1c0-13.6,9-29.7,20.5-36.5
				c6.5-3.9,13.3-4.3,18.5-1.2c5.2,3.1,8.2,9.3,8.2,17c0,3.5-2.7,6.3-6.1,6.3s-6.1-2.8-6.1-6.3c0-3-0.8-5.4-2.1-6.2
				c-1.3-0.8-3.7-0.3-6.2,1.2c-7.7,4.6-14.4,16.5-14.4,25.7c0,2.7,0.6,4.9,1.7,5.8c0.4,0.3,1,0.8,2.4,0.7c3.3-0.3,6.3,2.3,6.6,5.7
				c0.3,3.4-2.2,6.5-5.6,6.8C252.8,105,252.4,105,251.9,105z"/>
		</g>
		<g id="XMLID_311_">
			<path id="XMLID_312_" class="st85" d="M298.2,132.8c-3.9,0-7.5-1.4-10.2-4c-2.6-2.4-5.6-7-5.6-15.1c0-13.6,9-29.7,20.5-36.5
				c6.5-3.9,13.3-4.3,18.5-1.2c5.2,3.1,8.2,9.3,8.2,17c0,6.4-2,13.5-5.6,20.1l-10.7-6.1c2.6-4.7,4-9.8,4-14c0-3-0.8-5.4-2.1-6.2
				c-1.3-0.8-3.7-0.3-6.2,1.2c-7.7,4.6-14.4,16.5-14.4,25.7c0,2.7,0.6,4.9,1.7,5.8c0.4,0.3,1,0.8,2.4,0.7l1.1,12.5
				C299.2,132.8,298.7,132.8,298.2,132.8z"/>
		</g>
		<g id="XMLID_309_">
			<path id="XMLID_310_" class="st85" d="M298.2,132.8c-3.9,0-7.5-1.4-10.2-4c-2.6-2.4-5.6-7-5.6-15.1c0-13.6,9-29.7,20.5-36.5
				c6.5-3.9,13.3-4.3,18.5-1.2c5.2,3.1,8.2,9.3,8.2,17c0,3.5-2.7,6.3-6.1,6.3c-3.4,0-6.1-2.8-6.1-6.3c0-3-0.8-5.4-2.1-6.2
				c-1.3-0.8-3.7-0.3-6.2,1.2c-7.7,4.6-14.4,16.5-14.4,25.7c0,2.7,0.6,4.9,1.7,5.8c0.4,0.3,1,0.8,2.4,0.7c3.3-0.3,6.3,2.3,6.6,5.7
				c0.3,3.4-2.2,6.5-5.6,6.8C299.2,132.8,298.7,132.8,298.2,132.8z"/>
		</g>
		<g id="XMLID_307_">
			<path id="XMLID_308_" class="st85" d="M344.8,160.4c-3.9,0-7.5-1.4-10.2-4c-2.6-2.4-5.6-7-5.6-15.1c0-13.6,9-29.7,20.5-36.5
				c6.5-3.9,13.3-4.3,18.5-1.2c5.2,3.1,8.2,9.3,8.2,17c0,6.4-2,13.5-5.6,20.1l-10.7-6.1c2.6-4.7,4-9.8,4-14c0-3-0.8-5.4-2.1-6.2
				c-1.3-0.8-3.7-0.3-6.2,1.2c-7.7,4.6-14.4,16.5-14.4,25.7c0,2.7,0.6,4.9,1.7,5.8c0.4,0.3,1,0.8,2.4,0.7l1.1,12.5
				C345.7,160.4,345.2,160.4,344.8,160.4z"/>
		</g>
		<g id="XMLID_305_">
			<path id="XMLID_306_" class="st85" d="M344.8,160.4c-3.9,0-7.5-1.4-10.2-4c-2.6-2.4-5.6-7-5.6-15.1c0-13.6,9-29.7,20.5-36.5
				c6.5-3.9,13.3-4.3,18.5-1.2c5.2,3.1,8.2,9.3,8.2,17c0,3.5-2.7,6.3-6.1,6.3c-3.4,0-6.1-2.8-6.1-6.3c0-3-0.8-5.4-2.1-6.2
				c-1.3-0.8-3.7-0.3-6.2,1.2c-7.7,4.6-14.4,16.5-14.4,25.7c0,2.7,0.6,4.9,1.7,5.8c0.4,0.3,1,0.8,2.4,0.7c3.3-0.3,6.3,2.3,6.6,5.7
				c0.3,3.4-2.2,6.5-5.6,6.8C345.7,160.4,345.2,160.4,344.8,160.4z"/>
		</g>
		<g id="XMLID_303_">
			<path id="XMLID_304_" class="st85" d="M390.8,187.4c-3.9,0-7.5-1.4-10.2-4c-2.6-2.4-5.6-7-5.6-15.1c0-13.6,9-29.7,20.5-36.5
				c6.5-3.9,13.3-4.3,18.5-1.2c5.2,3.1,8.2,9.3,8.2,17c0,6.3-2,13.5-5.6,20.1l-10.7-6.1c2.6-4.7,4-9.8,4-14c0-3-0.8-5.4-2.1-6.2
				c-1.3-0.8-3.7-0.3-6.2,1.2c-7.7,4.6-14.4,16.5-14.4,25.7c0,2.7,0.6,4.9,1.7,5.8c0.4,0.3,1,0.8,2.4,0.7l1.1,12.5
				C391.8,187.4,391.3,187.4,390.8,187.4z"/>
		</g>
		<g id="XMLID_301_">
			<path id="XMLID_302_" class="st85" d="M390.8,187.4c-3.9,0-7.5-1.4-10.2-4c-2.6-2.4-5.6-7-5.6-15.1c0-13.6,9-29.7,20.5-36.5
				c6.5-3.9,13.3-4.3,18.5-1.2c5.2,3.1,8.2,9.3,8.2,17c0,3.5-2.7,6.3-6.1,6.3c-3.4,0-6.1-2.8-6.1-6.3c0-3-0.8-5.4-2.1-6.2
				c-1.3-0.8-3.7-0.3-6.2,1.2c-7.7,4.6-14.4,16.5-14.4,25.7c0,2.7,0.6,4.9,1.7,5.8c0.4,0.3,1,0.8,2.4,0.7c3.4-0.3,6.3,2.3,6.6,5.7
				c0.3,3.4-2.2,6.5-5.6,6.8C391.8,187.4,391.3,187.4,390.8,187.4z"/>
		</g>
		<g id="XMLID_299_">
			<path id="XMLID_300_" class="st85" d="M437.2,215c-3.9,0-7.5-1.4-10.2-4c-2.6-2.4-5.6-7-5.6-15.1c0-13.6,9-29.7,20.5-36.5
				c6.5-3.9,13.3-4.3,18.5-1.2c5.2,3.1,8.2,9.3,8.2,17c0,6.4-2,13.5-5.6,20.1l-10.7-6.1c2.6-4.7,4-9.8,4-14c0-3-0.8-5.4-2.1-6.2
				c-1.3-0.8-3.7-0.3-6.2,1.2c-7.7,4.6-14.4,16.5-14.4,25.7c0,2.7,0.6,4.9,1.7,5.8c0.4,0.3,1,0.8,2.4,0.7l1.1,12.5
				C438.1,214.9,437.7,215,437.2,215z"/>
		</g>
		<g id="XMLID_297_">
			<path id="XMLID_298_" class="st85" d="M437.2,215c-3.9,0-7.5-1.4-10.2-4c-2.6-2.4-5.6-7-5.6-15.1c0-13.6,9-29.7,20.5-36.5
				c6.5-3.9,13.3-4.3,18.5-1.2c5.2,3.1,8.2,9.3,8.2,17c0,3.5-2.7,6.3-6.1,6.3c-3.4,0-6.1-2.8-6.1-6.3c0-3-0.8-5.4-2.1-6.2
				c-1.3-0.8-3.7-0.3-6.2,1.2c-7.7,4.6-14.4,16.5-14.4,25.7c0,2.7,0.6,4.9,1.7,5.8c0.4,0.3,1,0.8,2.4,0.7c3.4-0.3,6.3,2.3,6.6,5.7
				c0.3,3.4-2.2,6.5-5.6,6.8C438.1,214.9,437.7,215,437.2,215z"/>
		</g>
	</g>
	<path class="st93" d="M263.9,275.4c0.5,0.3,1,0.2,1.1-0.3l8-44c0.1-0.5-0.3-1.2-0.8-1.5l-82.2-50.9l-8.6,45.6l82,50.8v0
		L263.9,275.4z"/>
	<g>
		<path id="XMLID_295_" class="st85" d="M117.1,277.1l3,7.4l4.5,3.6c1.1,0.1,1.9,1,1.9,2.1l0,0c0,1.5-1.2,2.7-2.6,2.7h-7.5
			c-1.9,0-3.7-0.7-5-2.1l-9.7-9.6c-2-2-1.7-5.3,0.6-6.9l2.5-1.8l2.6-1.5L117.1,277.1z"/>
		<path id="XMLID_294_" class="st85" d="M74,262.7l1.3,8.6l3.4,4.8c1,0.4,1.6,1.5,1.3,2.6l0,0c-0.4,1.4-1.8,2.2-3.2,1.8l-7.2-2.1
			c-1.8-0.5-3.3-1.7-4.3-3.4l-6.7-11.9c-1.4-2.4-0.2-5.5,2.4-6.4l2.9-1l2.9-0.7L74,262.7z"/>
		<g id="XMLID_292_">
			<path id="XMLID_293_" class="st94" d="M175,188.9c1.8,0,3-0.1,3.8-1.9c1.2-2.5-0.2-5-2.6-6.2l-43.4-22.2
				c-2.4-1.2-5.4-0.2-6.6,2.3c-1.2,2.5-0.2,5.5,2.3,6.7l44.3,20.8C173.6,188.7,174.3,188.9,175,188.9z"/>
		</g>
		<g id="XMLID_278_">
			<path id="XMLID_291_" class="st91" d="M167.9,186.4c2.1,0,4-1.2,5-3.2c1.3-2.8,0.2-6.2-2.6-7.6L134.6,158c-2.7-1.4-6-0.2-7.4,2.6
				c-1.3,2.8-0.2,6.2,2.6,7.6l35.6,17.7C166.2,186.2,167,186.4,167.9,186.4z"/>
		</g>
		<g id="XMLID_276_">
			
				<linearGradient id="XMLID_6_" gradientUnits="userSpaceOnUse" x1="1123.7798" y1="204.4232" x2="1202.9761" y2="255.9526" gradientTransform="matrix(-1 0 0 1 1260.8612 0)">
				<stop  offset="0" style="stop-color:#505050"/>
				<stop  offset="0.4815" style="stop-color:#5C5C5C"/>
				<stop  offset="1" style="stop-color:#646464"/>
			</linearGradient>
			<path id="XMLID_277_" class="st95" d="M74.6,262.7c1.8,0,23.6-8.8,23.6-8.8c1.9-0.9,3.5-2.6,4.2-4.7l12.7-33.9
				c1.8-4.9-0.3-10.7-5-12.7c-4.9-2.1-10.5,0.4-12.4,5.4l-11.9,31.8l-16.6,13.4c-4.3,3-2.8,2.6,0.1,7
				C71.2,263.1,71.6,262.7,74.6,262.7z"/>
		</g>
		<g id="XMLID_272_">
			
				<linearGradient id="XMLID_7_" gradientUnits="userSpaceOnUse" x1="1121.9845" y1="271.0256" x2="1179.7833" y2="187.124" gradientTransform="matrix(-1 0 0 1 1260.8612 0)">
				<stop  offset="0" style="stop-color:#505050"/>
				<stop  offset="1" style="stop-color:#646464"/>
			</linearGradient>
			<path id="XMLID_275_" class="st96" d="M113.5,277.8c2.6,0,5.2-1.1,7.1-3.3l24.2-27.7c2.9-2.4,3.6-6.6,1.7-9.9L129,206.6
				c-2.8-4.9-9.3-6.3-13.8-2.6c-3.8,3-15.9,2.3-13.5,6.6l25.2,30L107.4,271c-1.2,1.4-1.1,3.6,0.4,4.8
				C109.4,277.1,111.5,277.8,113.5,277.8z"/>
		</g>
		<g id="XMLID_270_">
			<path id="XMLID_271_" class="st94" d="M161.3,213.6c1.9,0,3-0.7,3.8-2.6c1.1-2.5-0.1-4.5-2.5-5.6l-26.2-13.1l-14.1-19.7
				c-1.6-2.2-4.7-2.7-6.9-1.1c-2.2,1.6-2.7,4.8-1,7l15.7,21.8l29.3,12.7C160,213.4,160.7,213.6,161.3,213.6z"/>
		</g>
		<path class="st91" d="M100.8,183.4c2.8-11.3,5.5-20.2,14.3-25.4l10.2-5.4c7.2-4.3,16.2,1.1,16.2,9.6l-7.2,27l0.8,1.2l22.4,10.2
			c2.6,1.2,3.8,4.4,2.6,7.1c-0.9,2-2.6,4.1-4.6,4.1c-0.7,0-1.4-0.1-2.1-0.5l-22.3-10.1l-2,7.5c-5.1,12.3-21.8,5.5-33-1.2
			L100.8,183.4z"/>
		<path id="XMLID_269_" class="st94" d="M163.5,204.7c-2.7,2.8-3.7,6.5-2,8.1c1.6,1.6,5.1,0.7,7.9-2.2c2.7-2.8,3.7-6.5,2-8.1
			C169.8,200.9,166.2,201.8,163.5,204.7z"/>
		<path id="XMLID_268_" class="st94" d="M128.7,161.9l-6-0.8c-0.3,0-0.5-0.3-0.5-0.7l1.5-11.1c0-0.2,0.2-0.3,0.4-0.3l6.5,0.9
			c0.2,0,0.3,0.2,0.3,0.4l-1.5,11.1C129.3,161.7,129,161.9,128.7,161.9z"/>
		<path id="XMLID_267_" class="st94" d="M125.8,156.7l-4.5-1.6c-2-0.7-3-2.9-2.3-4.9l6.1-18l19.2,6.8l-3.5,10.3
			C138.6,155.6,131.9,158.9,125.8,156.7z"/>
		<g id="XMLID_266_">
			<path class="st97" d="M147.5,138.4c-0.1-1.7-1.3-3.1-3-3.4c-1.4-0.2-3.1-0.9-4.1-2.5c-1.5-2.3-4.3-3.6-6.9-4.5
				c-2.6-0.9-5.7-0.7-7.7,1.3c-0.9-1.6-3.2-1.8-4.7-0.8c-1.5,0.9-2.4,2.6-3.2,4.3c-1.5,3.3-2.7,6.9-2.4,10.5
				c0.1,0.9,0.3,1.8,0.4,2.7c0.4,2.3,0.4,4.6,0.9,6.9c0.1,0.3,0.2,0.6,0.4,0.8c0.3,0.3,0.8,0.3,1.2,0.1c0.4-0.2,0.7-0.6,0.9-0.9
				c1.1-1.8,0.3-3,0.6-4.9c0.2-1,0.8-2.1,1.8-2.4c1.3-0.5,2.7,0.4,4,0.8c3.1,1,10.3-1.5,9-5.9C139,142.3,145.2,143.8,147.5,138.4
				L147.5,138.4z"/>
		</g>
		<path class="st98" d="M115.6,176.2c0-2.7-0.9-4.3-0.1-4.7c1.7-0.8,4.8,13.4,8.9,22.4c2,4.4,6.8,7.2,6.8,7.2l-1.1,4.3l0,0
			c-3.1-2-5.5-4.8-7.2-8.1L115.6,176.2z"/>
		<g id="XMLID_239_">
			<path id="XMLID_265_" class="st92" d="M176.1,179.9c0.1-0.5,0.6-0.6,1.1-0.3l87.9,54.4c0.5,0.3,0.9,1,0.8,1.5l-8,44
				c-0.1,0.5-0.6,0.6-1.1,0.3l-87.9-54.4c-0.5-0.3-0.9-1-0.8-1.5L176.1,179.9z"/>
			<path id="XMLID_260_" class="st89" d="M241.1,239c-0.5-0.9-1.1-1.9-1.7-2.8c-0.6-0.9-1.3-1.8-2.1-2.6c-0.7-0.8-1.5-1.6-2.3-2.2
				c-0.8-0.7-1.6-1.3-2.5-1.8c-0.8-0.5-1.6-0.9-2.4-1.2l3.5-5.2c1.3,0.5,2.5,1.2,3.7,1.9c1.2,0.7,2.3,1.6,3.4,2.5
				c1,0.9,2.1,1.8,3,2.9c0.9,1,1.8,2.1,2.6,3.2c0.8,1.1,1.5,2.2,2.1,3.4c0.6,1.2,1.2,2.3,1.6,3.5l-0.7,0.1l-6.9,1.2
				C242.1,240.9,241.6,239.9,241.1,239z M236.2,260.9c0.9,0.1,1.8,0.2,2.7,0.2c1.3,0,2.6-0.2,3.8-0.5c1.2-0.3,2.3-0.8,3.3-1.4
				c1-0.6,1.8-1.3,2.6-2.1c0.7-0.8,1.3-1.7,1.8-2.7c0.5-1,0.8-2,1-3.2c0.2-1.1,0.3-2.3,0.3-3.5l-7.9-0.2c0,0.9,0,1.7-0.2,2.5
				c-0.1,0.8-0.4,1.4-0.6,2.1c-0.3,0.6-0.6,1-0.9,1.5c-0.3,0.4-0.7,0.7-1.1,0.9c-0.4,0.2-0.7,0.4-1.1,0.5c-0.4,0.1-0.8,0.2-1.3,0.2
				c-0.5,0-1.1-0.1-1.6-0.2c-0.7-0.1-1.3-0.4-2.1-0.6c-0.8-0.3-1.6-0.7-2.4-1.2c-0.8-0.5-1.7-1.1-2.5-1.8c-0.8-0.7-1.6-1.4-2.3-2.2
				c-0.7-0.8-1.4-1.7-2.1-2.6c-0.6-0.9-1.2-1.8-1.7-2.8c-0.5-1-0.9-1.9-1.3-2.9c-0.4-1-0.6-1.9-0.8-2.9c-0.2-0.9-0.3-1.9-0.3-2.8
				c0-0.9,0-1.7,0.2-2.5c0.1-0.8,0.4-1.4,0.6-2.1c0.3-0.5,0.6-1,0.9-1.4c0.3-0.4,0.7-0.7,1.1-0.9c0.3-0.2,0.7-0.4,1.1-0.5
				c0.4-0.1,0.8-0.2,1.3-0.2l1.1-5.7l-0.4-0.1c-1-0.1-1.9-0.2-2.9-0.1c-0.7,0.1-1.4,0.2-2.1,0.4c-1.2,0.3-2.3,0.8-3.3,1.4
				c-1,0.6-1.8,1.3-2.6,2.1c-0.7,0.8-1.3,1.7-1.8,2.7c-0.5,1-0.8,2-1,3.2c-0.2,1.1-0.3,2.3-0.2,3.5c0,1.1,0.2,2.3,0.4,3.6
				c0.3,1.2,0.6,2.4,1,3.6c0.4,1.2,1,2.4,1.6,3.5c0.6,1.2,1.3,2.3,2.1,3.4c0.8,1.1,1.6,2.2,2.5,3.2c0.9,1,1.9,2,3,2.9
				c1.1,0.9,2.2,1.8,3.4,2.5c1.2,0.8,2.5,1.4,3.7,1.9c1.3,0.5,2.6,0.9,3.8,1.2C235.4,260.8,235.8,260.8,236.2,260.9z"/>
			<path id="XMLID_259_" class="st86" d="M265.1,234l-87.9-54.4c-0.5-0.3-1-0.2-1.1,0.3l-0.1,0.4l87.5,54.2c0.5,0.3,0.9,1,0.8,1.5
				l-8,43.6l0.4,0.3c0.5,0.3,1,0.2,1.1-0.3l8-44C266,235,265.6,234.3,265.1,234z"/>
			<polygon id="XMLID_258_" class="st99" points="199.9,205.1 199.3,208.2 179.7,196 180.3,192.9 			"/>
			<polygon id="XMLID_257_" class="st99" points="211.1,222.6 210.6,225.7 178,205.7 178.6,202.5 			"/>
			<polygon id="XMLID_256_" class="st99" points="209.7,230.7 209.1,233.7 176.5,213.7 177.1,210.5 			"/>
			<polygon id="XMLID_255_" class="st99" points="208.3,238.2 207.7,241.2 175.1,221.2 175.7,218 			"/>
		</g>
		<path class="st94" d="M172.8,185.5L172.8,185.5c0.6-0.6,1.5-0.5,2,0l4.4,4.7c0.6,0.6,0.5,1.5,0,2.1l0,0c-0.6,0.6-1.5,0.5-2,0
			l-4.4-4.7C172.2,187,172.2,186,172.8,185.5z"/>
		<path class="st94" d="M169.6,202.6L169.6,202.6c0.6-0.6,1.5-0.5,2,0l4.4,4.7c0.6,0.6,0.5,1.5,0,2.1l0,0c-0.6,0.6-1.5,0.5-2,0
			l-4.4-4.7C169,204.1,169,203.1,169.6,202.6z"/>
		<path class="st94" d="M167.7,205.3L167.7,205.3c0.6-0.6,1.5-0.5,2,0l4.4,4.7c0.6,0.6,0.5,1.5,0,2.1l0,0c-0.6,0.6-1.5,0.5-2,0
			l-4.4-4.7C167.1,206.8,167.1,205.9,167.7,205.3z"/>
		<path class="st94" d="M166,208L166,208c0.6-0.6,1.5-0.5,2,0l4.4,4.7c0.6,0.6,0.5,1.5,0,2.1l0,0c-0.6,0.6-1.5,0.5-2,0l-4.4-4.7
			C165.4,209.5,165.4,208.6,166,208z"/>
		<path class="st94" d="M163.2,210.2L163.2,210.2c0.6-0.6,1.5-0.5,2,0l4.4,4.7c0.6,0.6,0.5,1.5,0,2.1l0,0c-0.6,0.6-1.5,0.5-2,0
			l-4.4-4.7C162.6,211.7,162.6,210.8,163.2,210.2z"/>
	</g>
	<g>
		<g id="XMLID_237_">
			<path id="XMLID_238_" class="st94" d="M431.1,369.5c-0.3,0-0.6,0-0.8,0c-7.8-0.3-14.9-4.1-19.5-10.6l-2.3-3.2
				c-1.3-1.8-0.9-4.4,0.9-5.8c1.8-1.3,4.3-0.9,5.6,0.9l2.3,3.2c3.1,4.4,7.9,7,13.2,7.2c5.3,0.2,10.2-2.1,13.6-6.3l9.1-11.2
				c1.4-1.8,4-2,5.7-0.5c1.7,1.5,1.9,4.1,0.5,5.8l-9.1,11.2C445.5,366.1,438.5,369.5,431.1,369.5z"/>
		</g>
		<path id="XMLID_240_" class="st94" d="M416,351c0,2.7-2.1,4.9-4.8,4.9c-2.6,0-4.8-2.2-4.8-4.9c0-2.7,2.1-4.9,4.8-4.9
			C413.9,346,416,348.2,416,351z"/>
		<path class="st93" d="M412.6,321.7l-87.9-54.4c-0.5-0.3-1-0.2-1.1,0.3l-6,31.5c-0.1,0.5,0.3,1.2,0.8,1.5l87.5,54.2v0l0.4,0.3
			c0.5,0.3,1,0.2,1.1-0.3l6-31.5C413.5,322.7,413.1,322.1,412.6,321.7z"/>
		<g id="XMLID_184_">
			<path id="XMLID_233_" class="st92" d="M326.4,274.9c0.1-0.5,0.6-0.6,1.1-0.3l87.9,54.4c0.5,0.3,0.9,1,0.8,1.5l-6,31.5
				c-0.1,0.5-0.6,0.6-1.1,0.3L321.2,308c-0.5-0.3-0.9-1-0.8-1.5L326.4,274.9z"/>
			<path id="XMLID_190_" class="st86" d="M415.4,329.1l-87.9-54.4c-0.5-0.3-1-0.2-1.1,0.3l-0.1,0.4l87.5,54.2c0.5,0.3,0.9,1,0.8,1.5
				l-6,31.1l0.4,0.3c0.5,0.3,1,0.2,1.1-0.3l6-31.5C416.3,330.1,416,329.4,415.4,329.1z"/>
			<polygon id="XMLID_188_" class="st99" points="408,334.7 407.5,337.8 330.3,290.5 330.9,287.3 			"/>
			<polygon id="XMLID_186_" class="st99" points="406.5,342.8 406,345.8 328.8,298.5 329.4,295.3 			"/>
			<polygon id="XMLID_185_" class="st99" points="405.2,350.3 404.6,353.3 327.4,306 328,302.8 			"/>
		</g>
		<path id="XMLID_274_" class="st92" d="M423.7,503.2l10.8,3l6.2,4c0.7,0.5,1.2,1.3,1.2,2.2v12.3l-3.3,2c-1.2,0.7-2.8,0.7-4,0
			l-18.8-11.1c-1.4-0.9-2.3-2.4-2.3-4.2l0,0C413.4,505.8,418.5,501.8,423.7,503.2z"/>
		<path id="XMLID_273_" class="st85" d="M434.5,523.4l-18.8-11.1c-1-0.6-1.8-1.6-2.1-2.8c-0.1,0.6-0.2,1.2-0.2,1.8
			c0,1.7,0.9,3.3,2.3,4.2l18.8,11.1c1.2,0.7,2.8,0.7,4,0l3.3-2v-3.2l-3.3,2C437.3,524.1,435.7,524.1,434.5,523.4z"/>
		<path id="XMLID_254_" class="st85" d="M440.7,510.2l-6.2-4l-4.1-1.1v7.6c0,2.5,2.4,4.6,5.5,4.6s5.5-2,5.5-4.6v-1.9
			C441.2,510.6,441,510.4,440.7,510.2z"/>
		<path id="XMLID_253_" class="st92" d="M439.6,487.7l10.8,3l6.2,4c0.7,0.5,1.2,1.3,1.2,2.2v12.3l-3.3,2c-1.2,0.7-2.8,0.7-4,0
			l-18.8-11.1c-1.4-0.9-2.3-2.4-2.3-4.2l0,0C429.3,490.2,434.4,486.2,439.6,487.7z"/>
		<path id="XMLID_252_" class="st85" d="M450.4,507.8l-18.8-11.1c-1-0.6-1.8-1.6-2.1-2.8c-0.1,0.6-0.2,1.2-0.2,1.8
			c0,1.7,0.9,3.3,2.3,4.2l18.8,11.1c1.2,0.7,2.8,0.7,4,0l3.3-2v-3.2l-3.3,2C453.2,508.6,451.7,508.6,450.4,507.8z"/>
		<path id="XMLID_251_" class="st85" d="M456.6,494.6l-6.2-4l-4.1-1.1v7.6c0,2.5,2.4,4.6,5.5,4.6s5.5-2,5.5-4.6v-1.9
			C457.1,495,456.9,494.8,456.6,494.6z"/>
		<g id="XMLID_249_">
			<path id="XMLID_250_" class="st94" d="M436,515.7c-2.2,0-4-1.9-4-4.1v-51.1c0-2.3,1.8-4.1,4-4.1c2.2,0,8.9-9.8,8.9-7.5l-4.9,62.7
				C440,513.8,438.2,515.7,436,515.7z"/>
		</g>
		<g id="XMLID_247_">
			<path id="XMLID_248_" class="st94" d="M451.7,500c-2.2,0-4-1.9-4-4.1l-1-50.6c0-2.3,2.9,0.2,5.1,0.2c2.2,0,6-6,6-3.7l-2,54.2
				C455.8,498.1,454,500,451.7,500z"/>
		</g>
		<linearGradient id="XMLID_8_" gradientUnits="userSpaceOnUse" x1="426.9273" y1="371.4908" x2="459.1441" y2="371.4908">
			<stop  offset="0" style="stop-color:#CECECE"/>
			<stop  offset="1" style="stop-color:#FFFFFF"/>
		</linearGradient>
		<path id="XMLID_182_" class="st100" d="M435.6,341.9l9-5.9c6.5-4.3,15,0.9,14.5,8.8l-2.7,42.7l-0.2,12.5l-22.2,8.6l-1.2-7.1
			l-1.3-29.9l-4.6-6.2l3.8-13.8C430.5,347.7,432.4,344,435.6,341.9z"/>
		<linearGradient id="XMLID_9_" gradientUnits="userSpaceOnUse" x1="428.4508" y1="429.8337" x2="463.7228" y2="429.8337">
			<stop  offset="0" style="stop-color:#CECECE"/>
			<stop  offset="1" style="stop-color:#FFFFFF"/>
		</linearGradient>
		<path id="XMLID_180_" class="st101" d="M432.8,404c-1.9,0.9-3.4,14.1-3.5,15.9c-0.8,8.5,0,20.5-0.4,29.1
			c-0.2,4.3-0.5,16.4-0.5,16.4c20.4,4.8,32.7-9.4,35.2-16.1c0.3-5.8,0.3-34.1-2.7-41.9c-0.9-2.4-1.7-4.9-2.3-7.4l-1.6-6.7
			C457,393.3,432.9,404,432.8,404z"/>
		<path id="XMLID_179_" class="st92" d="M432.8,397.8v6.2c6.3,0.7,21.5-5.1,24.2-10.7l-0.6-5.9C452.6,395.1,435.9,399.2,432.8,397.8
			z"/>
		<g id="XMLID_177_">
			<path id="XMLID_178_" class="st94" d="M417.8,369.5c-7.5,0-14.4-3.3-19.2-9.3l-9.1-11.2c-1.4-1.8-1.2-4.4,0.5-5.8
				c1.7-1.5,4.3-1.2,5.7,0.5l9.1,11.2c3.4,4.2,8.3,6.4,13.6,6.3c5.3-0.2,10.1-2.8,13.2-7.2l2.3-3.2c1.3-1.8,3.8-2.3,5.6-0.9
				c1.8,1.3,2.2,3.9,0.9,5.8l-2.3,3.2c-4.6,6.5-11.7,10.3-19.5,10.6C418.4,369.5,418.1,369.5,417.8,369.5z"/>
		</g>
		<g id="XMLID_245_">
			<path id="XMLID_246_" class="st102" d="M445.4,348.5c-2.2,0-4-1.9-4-4.1v-13.9c0-2.3,1.8-4.1,4-4.1c2.2,0,4,1.9,4,4.1v13.9
				C449.4,346.6,447.6,348.5,445.4,348.5z"/>
		</g>
		<g id="XMLID_243_">
			<path id="XMLID_244_" class="st94" d="M434.2,340.1h12.6v-25.9h-18.7V334C428.1,337.4,430.9,340.1,434.2,340.1z"/>
		</g>
		<g id="XMLID_242_">
			<path class="st97" d="M468.6,359.3c-0.8-4.2-3.3-7.8-4.6-11.8c-0.8-2.3-0.5-4.7-1.1-7c-0.8-2.9-2.8-5.5-3.9-8.3
				c-1.6-4.2-2.9-8.6-4.4-12.9c-1.5-4.4-4.3-7.7-8.7-8.9c-4.6-1.2-11.3-1.9-15.9-0.6c-5.7,1.7-3.8,7.5-1.6,12.1
				c2.7,5.5,7.6,9.9,9.3,15.8c1.8,6.1-0.2,12.6-1.1,18.9c-1,6.3-0.6,13.7,4.4,17.6c2.7,2.1,6.3,2.7,9.7,2.6c4.4-0.1,8.8-1.3,12.3-4
				c3.5-2.7,5.9-7,5.8-11.5C468.8,360.7,468.7,360,468.6,359.3z"/>
		</g>
		<path id="XMLID_241_" class="st94" d="M396.6,344.3c0,2.7-2.1,4.9-4.8,4.9c-2.6,0-4.8-2.2-4.8-4.9c0-2.7,2.1-4.9,4.8-4.9
			C394.5,339.4,396.6,341.6,396.6,344.3z"/>
	</g>
	<g>
		
			<radialGradient id="XMLID_10_" cx="360.9484" cy="8256.7217" r="26.7293" gradientTransform="matrix(1.1689 0 0 0.6202 -92.3948 -4670.7319)" gradientUnits="userSpaceOnUse">
			<stop  offset="9.125480e-02" style="stop-color:#48486A"/>
			<stop  offset="0.1179" style="stop-color:#505070"/>
			<stop  offset="0.3508" style="stop-color:#8D8DA3"/>
			<stop  offset="0.5638" style="stop-color:#BEBECA"/>
			<stop  offset="0.7497" style="stop-color:#E2E2E7"/>
			<stop  offset="0.9014" style="stop-color:#F7F7F9"/>
			<stop  offset="1" style="stop-color:#FFFFFF"/>
		</radialGradient>
		<path id="XMLID_961_" class="st103" d="M307.6,437.1c12-7.1,31.7-7.1,43.8,0c12,7.1,12,18.8,0,25.9c-12,7.1-31.7,7.1-43.8,0
			C295.6,455.8,295.6,444.2,307.6,437.1z"/>
		<linearGradient id="XMLID_11_" gradientUnits="userSpaceOnUse" x1="305.5566" y1="447.3073" x2="353.4875" y2="447.3073">
			<stop  offset="3.802050e-03" style="stop-color:#A5CBEF"/>
			<stop  offset="0.4419" style="stop-color:#CEE3F6"/>
			<stop  offset="1" style="stop-color:#FFFFFF"/>
		</linearGradient>
		<path id="XMLID_960_" class="st104" d="M353.5,440.8h-2.7c-1.1-1.3-2.5-2.4-4.3-3.5c-9.3-5.5-24.6-5.5-33.9,0
			c-1.8,1.1-3.2,2.2-4.3,3.5h-2.7v6.5h0c0,3.7,2.3,7.3,7,10.1c9.3,5.5,24.6,5.5,33.9,0c4.7-2.8,7-6.4,7-10.1h0V440.8z"/>
		<path id="XMLID_959_" class="st88" d="M312.6,430.7c9.3-5.5,24.6-5.5,33.9,0c9.3,5.5,9.3,14.6,0,20.1c-9.3,5.5-24.6,5.5-33.9,0
			C303.2,445.3,303.2,436.2,312.6,430.7z"/>
		<linearGradient id="XMLID_12_" gradientUnits="userSpaceOnUse" x1="343.0153" y1="443.7095" x2="353.4831" y2="443.7095">
			<stop  offset="0" style="stop-color:#2C2C2C"/>
			<stop  offset="1" style="stop-color:#353535"/>
		</linearGradient>
		<path id="XMLID_958_" class="st105" d="M353.5,440.9c0-0.1,0-0.2,0-0.3v-5.4h-1.9c-1.2-1.7-2.9-3.2-5.1-4.5
			c-6.6-3.9-2.2,11,0,20.1v6.6c4.6-2.7,6.9-6.3,7-9.8L353.5,440.9z"/>
		<linearGradient id="XMLID_13_" gradientUnits="userSpaceOnUse" x1="335.1175" y1="412.4821" x2="323.6198" y2="427.2649">
			<stop  offset="0" style="stop-color:#B80000"/>
			<stop  offset="0.2263" style="stop-color:#CB0000"/>
			<stop  offset="0.7329" style="stop-color:#F10000"/>
			<stop  offset="1" style="stop-color:#FF0000"/>
		</linearGradient>
		<path id="XMLID_957_" class="st106" d="M346.5,419.7c-9.3-5.5-24.6-5.5-33.9,0l17,11.9L346.5,419.7z"/>
		<linearGradient id="XMLID_14_" gradientUnits="userSpaceOnUse" x1="318.4178" y1="434.1782" x2="323.9937" y2="427.7003">
			<stop  offset="0" style="stop-color:#910000"/>
			<stop  offset="0.543" style="stop-color:#A50000"/>
			<stop  offset="1" style="stop-color:#B00000"/>
		</linearGradient>
		<polygon id="XMLID_956_" class="st107" points="312.6,419.7 312.6,430.7 329.5,442.6 329.5,431.6 		"/>
		<linearGradient id="XMLID_15_" gradientUnits="userSpaceOnUse" x1="329.5221" y1="431.1333" x2="346.4888" y2="431.1333">
			<stop  offset="0" style="stop-color:#910000"/>
			<stop  offset="0.543" style="stop-color:#A50000"/>
			<stop  offset="1" style="stop-color:#B00000"/>
		</linearGradient>
		<polygon id="XMLID_953_" class="st108" points="329.5,431.6 346.5,419.7 346.5,430.7 329.5,442.6 		"/>
		<linearGradient id="XMLID_16_" gradientUnits="userSpaceOnUse" x1="329.5221" y1="435.2389" x2="353.4875" y2="435.2389">
			<stop  offset="0" style="stop-color:#373737"/>
			<stop  offset="0.2783" style="stop-color:#3E3E3E"/>
			<stop  offset="1" style="stop-color:#4D4D4D"/>
		</linearGradient>
		<path id="XMLID_952_" class="st109" d="M346.5,425.2c9.3,5.5,9.3,14.6,0,20.1l-17-8.2L346.5,425.2z"/>
		<linearGradient id="XMLID_17_" gradientUnits="userSpaceOnUse" x1="329.5221" y1="443.9389" x2="346.4888" y2="443.9389">
			<stop  offset="0" style="stop-color:#2C2C2C"/>
			<stop  offset="1" style="stop-color:#353535"/>
		</linearGradient>
		<polygon id="XMLID_950_" class="st110" points="329.5,437.1 329.5,442.6 346.5,450.8 346.5,445.3 		"/>
	</g>
	<g>
		
			<radialGradient id="XMLID_18_" cx="178.7622" cy="8072.8677" r="22.6661" gradientTransform="matrix(1.1689 0 0 0.6202 -92.3948 -4670.7319)" gradientUnits="userSpaceOnUse">
			<stop  offset="9.125480e-02" style="stop-color:#3C5185"/>
			<stop  offset="0.2537" style="stop-color:#6F7FA5"/>
			<stop  offset="0.4365" style="stop-color:#A2ACC5"/>
			<stop  offset="0.6088" style="stop-color:#CAD0DE"/>
			<stop  offset="0.7654" style="stop-color:#E7EAF0"/>
			<stop  offset="0.9009" style="stop-color:#F9F9FB"/>
			<stop  offset="1" style="stop-color:#FFFFFF"/>
		</radialGradient>
		<path id="XMLID_176_" class="st111" d="M98,325c10.2-6,26.9-6,37.1,0c10.2,6,10.2,15.9,0,22c-10.2,6-26.9,6-37.1,0
			C87.8,340.9,87.8,331,98,325z"/>
		<linearGradient id="XMLID_19_" gradientUnits="userSpaceOnUse" x1="97.4616" y1="335.1819" x2="134.9736" y2="335.1819">
			<stop  offset="0" style="stop-color:#910000"/>
			<stop  offset="0.543" style="stop-color:#A50000"/>
			<stop  offset="1" style="stop-color:#B00000"/>
		</linearGradient>
		<path id="XMLID_175_" class="st112" d="M135,330.1h-2.1c-0.9-1-2-1.9-3.4-2.7c-7.3-4.3-19.3-4.3-26.6,0c-1.4,0.8-2.5,1.7-3.4,2.7
			h-2.1v5.1h0c0,2.9,1.8,5.7,5.5,7.9c7.3,4.3,19.3,4.3,26.6,0c3.7-2.2,5.5-5,5.5-7.9h0V330.1z"/>
		<linearGradient id="XMLID_20_" gradientUnits="userSpaceOnUse" x1="97.4618" y1="330.0517" x2="134.974" y2="330.0517">
			<stop  offset="0" style="stop-color:#B80000"/>
			<stop  offset="0.2263" style="stop-color:#CB0000"/>
			<stop  offset="0.7329" style="stop-color:#F10000"/>
			<stop  offset="1" style="stop-color:#FF0000"/>
		</linearGradient>
		<path id="XMLID_174_" class="st113" d="M102.9,322.2c7.3-4.3,19.3-4.3,26.6,0c7.3,4.3,7.3,11.4,0,15.7c-7.3,4.3-19.3,4.3-26.6,0
			C95.6,333.6,95.6,326.5,102.9,322.2z"/>
		<path id="XMLID_173_" class="st88" d="M123.5,333.2c0.3-0.4,0.1-0.8-0.4-1l-0.3-0.1c0.5,0.2,1.4,0.1,1.7-0.4
			c0.3-0.4,0.1-0.8-0.4-1l-2.2-1l-1.9-0.9c0,0,0.4-0.2,0.8-0.5c0.1-0.1,0.2-0.1,0.3-0.2c0,0,0.1,0,0.1-0.1c0.5-0.3,0.9-0.7,1.2-0.9
			c0.1-0.1,0.2-0.2,0.4-0.4c0,0,0.1-0.1,0.1-0.1c0.1-0.1,0.2-0.3,0.3-0.4c0.2-0.2,0.2-0.4,0.1-0.6c-0.1-0.1-0.2-0.2-0.3-0.3
			c-0.4-0.2-0.9-0.1-1.3,0.2c-0.6,0.5-1.6,1.1-2.1,1.3c-0.5,0.2-2.5,0.7-2.5,0.7l-0.1,0l0,0l-0.8-0.4l0.6-0.6c0.1-0.1,0-0.1,0-0.2
			l-2.9-1.3l-3.9,3.9l-1.9,1.9l2.9,1.3l0,0c0.1,0,0.2,0,0.3,0l0,0l0.5-0.5l0.5,0.2c0.1,0,0.1,0.1,0.1,0.1l0,0c0,0,0.1,0.1,0.1,0.1
			c0.1,0.1,0.1,0.1,0.1,0.2l0.2,1.1c0,0.2,0.2,0.4,0.4,0.5l3.9,1.8c0.5,0.2,1.1,0.2,1.5-0.1c0.5-0.4,0.5-1-0.1-1.2l0.9,0.4
			c0.5,0.2,1.1,0.2,1.5-0.1c0.5-0.4,0.5-1-0.1-1.2l0.9,0.4C122.3,333.8,123.2,333.7,123.5,333.2z"/>
	</g>
	<g>
		
			<radialGradient id="XMLID_21_" cx="252.6826" cy="8224.5146" r="25.5641" gradientTransform="matrix(1.1689 0 0 0.6202 -92.3948 -4670.7319)" gradientUnits="userSpaceOnUse">
			<stop  offset="9.125480e-02" style="stop-color:#3C5185"/>
			<stop  offset="0.2537" style="stop-color:#6F7FA5"/>
			<stop  offset="0.4365" style="stop-color:#A2ACC5"/>
			<stop  offset="0.6088" style="stop-color:#CAD0DE"/>
			<stop  offset="0.7654" style="stop-color:#E7EAF0"/>
			<stop  offset="0.9009" style="stop-color:#F9F9FB"/>
			<stop  offset="1" style="stop-color:#FFFFFF"/>
		</radialGradient>
		<path id="XMLID_1216_" class="st114" d="M182,417.6c11.5-6.8,30.3-6.8,41.9,0c11.5,6.8,11.5,18,0,24.8c-11.5,6.8-30.3,6.8-41.9,0
			C170.5,435.6,170.5,424.5,182,417.6z"/>
		<linearGradient id="XMLID_22_" gradientUnits="userSpaceOnUse" x1="181.426" y1="429.1281" x2="223.734" y2="429.1281">
			<stop  offset="0" style="stop-color:#910000"/>
			<stop  offset="0.543" style="stop-color:#A50000"/>
			<stop  offset="1" style="stop-color:#B00000"/>
		</linearGradient>
		<path id="XMLID_1215_" class="st115" d="M223.7,423.3h-2.4c-1-1.1-2.2-2.2-3.8-3.1c-8.2-4.9-21.7-4.9-30,0c-1.6,0.9-2.8,2-3.8,3.1
			h-2.4v5.7h0c0,3.2,2,6.5,6.2,8.9c8.2,4.9,21.7,4.9,30,0c4.1-2.5,6.2-5.7,6.2-8.9h0V423.3z"/>
		<linearGradient id="XMLID_23_" gradientUnits="userSpaceOnUse" x1="181.4258" y1="423.3422" x2="223.7345" y2="423.3422">
			<stop  offset="0" style="stop-color:#B80000"/>
			<stop  offset="0.2263" style="stop-color:#CB0000"/>
			<stop  offset="0.7329" style="stop-color:#F10000"/>
			<stop  offset="1" style="stop-color:#FF0000"/>
		</linearGradient>
		<path id="XMLID_1214_" class="st116" d="M187.6,414.5c8.2-4.9,21.7-4.9,30,0c8.2,4.9,8.2,12.9,0,17.7c-8.2,4.9-21.7,4.9-30,0
			C179.4,427.3,179.4,419.4,187.6,414.5z"/>
		<path id="XMLID_1117_" class="st88" d="M206.8,427.6c0,0-0.3,0-0.4,0l-9.4-0.9l-0.3-6.6c0-0.8,0.4-1.6,1.2-2.1
			c1.7-1.1,4.6-0.9,6.4,0.6c0.9,0.7,1.4,1.6,1.4,2.5c1.2,0.1,2.4,0.5,3.3,1.2c1.8,1.4,1.9,3.5,0.2,4.6
			C208.6,427.4,207.7,427.6,206.8,427.6z"/>
	</g>
	<g>
		
			<radialGradient id="XMLID_24_" cx="286.076" cy="8318.9316" r="28.5068" gradientTransform="matrix(1.1689 0 0 0.6202 -92.3948 -4670.7319)" gradientUnits="userSpaceOnUse">
			<stop  offset="9.125480e-02" style="stop-color:#3C5185"/>
			<stop  offset="0.2537" style="stop-color:#6F7FA5"/>
			<stop  offset="0.4365" style="stop-color:#A2ACC5"/>
			<stop  offset="0.6088" style="stop-color:#CAD0DE"/>
			<stop  offset="0.7654" style="stop-color:#E7EAF0"/>
			<stop  offset="0.9009" style="stop-color:#F9F9FB"/>
			<stop  offset="1" style="stop-color:#FFFFFF"/>
		</radialGradient>
		<path id="XMLID_1018_" class="st117" d="M218.7,474.8c12.8-7.6,33.8-7.6,46.7,0c12.8,7.6,12.8,20,0,27.6
			c-12.8,7.6-33.8,7.6-46.7,0C205.8,494.8,205.8,482.4,218.7,474.8z"/>
		<linearGradient id="XMLID_25_" gradientUnits="userSpaceOnUse" x1="217.9804" y1="487.5798" x2="265.1582" y2="487.5798">
			<stop  offset="0" style="stop-color:#910000"/>
			<stop  offset="0.543" style="stop-color:#A50000"/>
			<stop  offset="1" style="stop-color:#B00000"/>
		</linearGradient>
		<path id="XMLID_1013_" class="st118" d="M265.2,481.1h-2.6c-1.1-1.2-2.5-2.4-4.2-3.4c-9.2-5.4-24.2-5.4-33.4,0
			c-1.8,1-3.2,2.2-4.2,3.4H218v6.4h0c0,3.6,2.3,7.2,6.9,9.9c9.2,5.4,24.2,5.4,33.4,0c4.6-2.7,6.9-6.3,6.9-9.9h0V481.1z"/>
		<linearGradient id="XMLID_26_" gradientUnits="userSpaceOnUse" x1="217.9801" y1="481.1278" x2="265.1584" y2="481.1278">
			<stop  offset="0" style="stop-color:#B80000"/>
			<stop  offset="0.2263" style="stop-color:#CB0000"/>
			<stop  offset="0.7329" style="stop-color:#F10000"/>
			<stop  offset="1" style="stop-color:#FF0000"/>
		</linearGradient>
		<path id="XMLID_172_" class="st119" d="M224.9,471.2c9.2-5.4,24.2-5.4,33.4,0c9.2,5.4,9.2,14.3,0,19.8c-9.2,5.4-24.2,5.4-33.4,0
			C215.7,485.6,215.7,476.7,224.9,471.2z"/>
		<path id="XMLID_1069_" class="st88" d="M253.5,483.1c-0.4-2.3-2.6-4.7-6.1-6.7c-3.3-1.8-6.9-2.8-10-2.8c-3,0-5.5,0.9-6.9,2.5
			c-0.9,1-1.3,2.3-1.1,3.6c0.4,2.4,2.7,5,6.3,7c2.2,1.2,4.1,2,6.1,2.5l0.4,0.1l0.2-1.7l-0.3-0.1c-1.5-0.3-3.3-1-5-2
			c-2.9-1.6-4.7-3.5-5-5.3c-0.2-0.9,0.1-1.8,0.8-2.6c1.2-1.3,3.1-2,5.5-2c2.5,0,5.3,0.8,7.9,2.2c2.8,1.5,4.5,3.3,4.7,4.9
			c0.1,0.9-0.1,1.7-0.8,2.4c-0.8,0.9-2,1.4-3.3,1.4c-0.8,0-1.5-0.2-2.1-0.5c-0.3-0.2-0.5-0.3-0.5-0.5c0-0.1,0.1-0.5,1.1-1.1l3.9-2.4
			l-0.4-0.3c-0.7-0.7-1.9-1.5-3.1-2.2c-2.2-1.2-4.6-1.9-6.7-1.9c-1.9,0-3.4,0.5-4.3,1.5c-0.5,0.5-0.6,1.1-0.5,1.7
			c0.2,1,1,1.9,2.3,2.6c1.5,0.8,2.9,1.2,4.4,1.2c0.2,0,0.5,0,0.7,0c-0.1,0.2-0.1,0.5-0.1,0.6c0.1,0.9,1.1,1.6,1.7,1.9
			c1.4,0.8,3.1,1.2,4.6,1.2c1.9,0,3.5-0.7,4.6-1.9C253.3,485.5,253.7,484.3,253.5,483.1z M237.2,481.1c0-0.2,0-0.4,0.2-0.6
			c0.6-0.6,1.6-1,2.9-1c1.3,0,2.7,0.4,4,1.1c0.3,0.2,0.7,0.4,1,0.6l-1.7,1.1c-0.6,0.4-1.6,0.6-2.6,0.6c-1,0-2-0.2-2.7-0.6
			C237.7,481.9,237.3,481.5,237.2,481.1z"/>
	</g>
	<g>
		
			<radialGradient id="XMLID_27_" cx="173.4376" cy="8186.0088" r="28.6173" gradientTransform="matrix(1.1689 0 0 0.6202 -92.3948 -4670.7319)" gradientUnits="userSpaceOnUse">
			<stop  offset="9.125480e-02" style="stop-color:#3C5185"/>
			<stop  offset="0.2537" style="stop-color:#6F7FA5"/>
			<stop  offset="0.4365" style="stop-color:#A2ACC5"/>
			<stop  offset="0.6088" style="stop-color:#CAD0DE"/>
			<stop  offset="0.7654" style="stop-color:#E7EAF0"/>
			<stop  offset="0.9009" style="stop-color:#F9F9FB"/>
			<stop  offset="1" style="stop-color:#FFFFFF"/>
		</radialGradient>
		<path id="XMLID_1021_" class="st120" d="M86.9,392.3c12.9-7.6,34-7.6,46.9,0c12.9,7.6,12.9,20.1,0,27.8c-12.9,7.6-34,7.6-46.9,0
			C74,412.4,74,399.9,86.9,392.3z"/>
		<linearGradient id="XMLID_28_" gradientUnits="userSpaceOnUse" x1="86.2224" y1="405.1383" x2="133.5837" y2="405.1383">
			<stop  offset="0" style="stop-color:#910000"/>
			<stop  offset="0.543" style="stop-color:#A50000"/>
			<stop  offset="1" style="stop-color:#B00000"/>
		</linearGradient>
		<path id="XMLID_1020_" class="st121" d="M133.6,398.7h-2.7c-1.1-1.2-2.5-2.4-4.3-3.5c-9.2-5.5-24.3-5.5-33.5,0
			c-1.8,1-3.2,2.2-4.3,3.5h-2.7v6.4h0c0,3.6,2.3,7.2,6.9,10c9.2,5.5,24.3,5.5,33.5,0c4.6-2.7,6.9-6.4,6.9-10h0V398.7z"/>
		<linearGradient id="XMLID_29_" gradientUnits="userSpaceOnUse" x1="86.2225" y1="398.6615" x2="133.5838" y2="398.6615">
			<stop  offset="0" style="stop-color:#B80000"/>
			<stop  offset="0.2263" style="stop-color:#CB0000"/>
			<stop  offset="0.7329" style="stop-color:#F10000"/>
			<stop  offset="1" style="stop-color:#FF0000"/>
		</linearGradient>
		<path id="XMLID_1019_" class="st122" d="M93.1,388.7c9.2-5.5,24.3-5.5,33.5,0c9.2,5.5,9.2,14.4,0,19.9c-9.2,5.5-24.3,5.5-33.5,0
			C83.9,403.1,83.9,394.2,93.1,388.7z"/>
		<path id="XMLID_1014_" class="st88" d="M110.5,404.7c-1.7,0.8-4.5,0.7-6.2-0.3c-1.7-1-1.6-2.4,0.1-3.2c0.3-0.2,0.7-0.3,1.1-0.3
			l-1.2-3.6c-1.1-0.1-2.2-0.3-3-0.8c-1.7-1-1.6-2.4,0.1-3.2c1.7-0.8,4.5-0.7,6.2,0.3c0.8,0.5,1.3,1.1,1.2,1.7l6.6,1.1
			c0.2-0.2,0.5-0.4,0.9-0.6c1.7-0.8,4.5-0.7,6.2,0.3c1.7,1,1.6,2.4-0.1,3.2c-1.7,0.8-4.5,0.7-6.2-0.3c-0.8-0.5-1.2-1-1.2-1.6
			l-6.7-1.1c-0.2,0.2-0.4,0.4-0.8,0.5c-0.4,0.2-0.8,0.3-1.2,0.4l1.1,3.5c1.1,0.1,2.2,0.3,3.1,0.8
			C112.3,402.4,112.3,403.9,110.5,404.7z"/>
	</g>
	<g id="XMLID_142_">
		<linearGradient id="XMLID_30_" gradientUnits="userSpaceOnUse" x1="156.558" y1="511.3351" x2="187.5146" y2="511.3351">
			<stop  offset="0" style="stop-color:#373737"/>
			<stop  offset="0.2783" style="stop-color:#3E3E3E"/>
			<stop  offset="1" style="stop-color:#4D4D4D"/>
		</linearGradient>
		<path id="XMLID_166_" class="st123" d="M185.7,503l-2.2-0.7c-3.6-1.1-7.6-0.4-10.7,1.9l-2.3-1.8l-2.4,5.6l-11.5-1l2.5,10.5
			c0.2,0.7,0.7,1.2,1.3,1.4l4.7,1.4c3.9,1.2,8.2,0.1,11.2-2.8l10.5-10.2C188.1,506,187.6,503.5,185.7,503z"/>
		<path id="XMLID_165_" class="st91" d="M185.7,503l-2.2-0.7c-3.6-1.1-7.6-0.4-10.7,1.9l-2.3-1.8l-2.4,5.6l-11.5-1l1.3,5.4
			c0.6,2.4,2.4,4.3,4.7,5l2,0.6c3.9,1.2,8.2,0.1,11.2-2.8l10.5-10.2c0.4-0.4,0.6-0.8,0.7-1.3C186.6,503.4,186.2,503.1,185.7,503z"/>
		<linearGradient id="XMLID_31_" gradientUnits="userSpaceOnUse" x1="156.4707" y1="505.2162" x2="170.9767" y2="505.2162">
			<stop  offset="0" style="stop-color:#373737"/>
			<stop  offset="0.2783" style="stop-color:#3E3E3E"/>
			<stop  offset="1" style="stop-color:#4D4D4D"/>
		</linearGradient>
		<path id="XMLID_164_" class="st124" d="M169.5,506.9c2.4-2.4,1.8-5.1-1.4-6c-3.2-0.9-7.8,0.2-10.2,2.6c-2.4,2.4-1.7,5.1,1.4,6
			C162.5,510.4,167.1,509.3,169.5,506.9z"/>
		<g id="XMLID_222_">
			<path id="XMLID_223_" class="st94" d="M163.2,507.3c-2.1,0-3.8-1.7-3.8-3.9v-15c0-2.2,1.7-3.9,3.8-3.9c2.1,0,3.8,1.7,3.8,3.9v15
				C167,505.6,165.3,507.3,163.2,507.3z"/>
		</g>
		<g id="XMLID_220_">
			
				<linearGradient id="XMLID_32_" gradientUnits="userSpaceOnUse" x1="769.1552" y1="450.7673" x2="784.8006" y2="450.7673" gradientTransform="matrix(-1 0 0 1 942.0478 0)">
				<stop  offset="0" style="stop-color:#CECECE"/>
				<stop  offset="1" style="stop-color:#FFFFFF"/>
			</linearGradient>
			<path id="XMLID_221_" class="st125" d="M163.2,504.9c-0.1,0-0.2,0-0.3,0c-3.3-0.2-5.8-3-5.7-6.4l1.6-36.7l-1.6-58.8
				c-0.1-3.4,2.5-6.2,5.8-6.3c3.3-0.1,9.8,2.6,9.8,5.9l-2.1,59.2l0,0.2l-1.6,36.9C169,502.3,166.4,504.9,163.2,504.9z"/>
		</g>
		<linearGradient id="XMLID_33_" gradientUnits="userSpaceOnUse" x1="172.3733" y1="522.5473" x2="202.8796" y2="522.5473">
			<stop  offset="0" style="stop-color:#373737"/>
			<stop  offset="0.2783" style="stop-color:#3E3E3E"/>
			<stop  offset="1" style="stop-color:#4D4D4D"/>
		</linearGradient>
		<path id="XMLID_219_" class="st126" d="M201.6,518l-2-1.2c-3.3-1.9-7.3-2.2-10.8-0.8l-1.9-2.3l-3.6,4.9l-10.9-3.8v10.8
			c0,0.7,0.4,1.3,0.9,1.7l4.3,2.5c3.5,2.1,7.9,2.1,11.5,0l12.6-7.4C203.3,521.5,203.3,519,201.6,518z"/>
		<path id="XMLID_163_" class="st91" d="M201.6,518l-2-1.2c-3.3-1.9-7.3-2.2-10.8-0.8l-1.9-2.3l-3.6,4.9l-10.9-3.8v5.6
			c0,2.5,1.3,4.8,3.4,6l1.8,1.1c3.5,2.1,7.9,2.1,11.5,0l12.6-7.4c0.5-0.3,0.8-0.7,1-1.1C202.4,518.6,202.1,518.2,201.6,518z"/>
		<linearGradient id="XMLID_34_" gradientUnits="userSpaceOnUse" x1="172.369" y1="514.7561" x2="187.156" y2="514.7561">
			<stop  offset="0" style="stop-color:#373737"/>
			<stop  offset="0.2783" style="stop-color:#3E3E3E"/>
			<stop  offset="1" style="stop-color:#4D4D4D"/>
		</linearGradient>
		<path id="XMLID_162_" class="st127" d="M185,517.8c2.9-1.7,2.9-4.5,0-6.2c-2.9-1.7-7.6-1.7-10.5,0c-2.9,1.7-2.9,4.5,0,6.2
			C177.4,519.5,182.1,519.5,185,517.8z"/>
		<g id="XMLID_160_">
			<path id="XMLID_161_" class="st94" d="M179.7,517.2c-2.1,0-3.8-1.7-3.8-3.9v-15c0-2.1,1.7-3.9,3.8-3.9c2.1,0,3.8,1.7,3.8,3.9v15
				C183.5,515.5,181.8,517.2,179.7,517.2z"/>
		</g>
		<g id="XMLID_158_">
			<path id="XMLID_159_" class="st91" d="M163.2,413c-1.5,0-3-0.8-3.8-2.2l-7.8-13.9c-8.2-14.5-4.5-33.1,8.5-43.2l2.1-1.7
				c1.9-1.5,4.6-1.1,6.1,0.8c1.5,2,1.1,4.7-0.8,6.2l-2.1,1.7c-9.5,7.4-12.2,21-6.2,31.7l7.8,13.9c1.2,2.1,0.5,4.8-1.6,6.1
				C164.7,412.8,164,413,163.2,413z"/>
		</g>
		
			<linearGradient id="SVGID_2_" gradientUnits="userSpaceOnUse" x1="753.0696" y1="453.221" x2="784.7982" y2="453.221" gradientTransform="matrix(-1 0 0 1 942.0478 0)">
			<stop  offset="0" style="stop-color:#CECECE"/>
			<stop  offset="1" style="stop-color:#FFFFFF"/>
		</linearGradient>
		<path class="st128" d="M157.7,418.2l-0.4-15.3l23.8-9.4l-0.2,13.5c2.6,0.5,4.6,2.8,4.8,5.6l3.3,53.5l-3.3,41.1
			c-0.3,3.2-2.9,5.6-5.9,5.6c-0.6,0-1.2-0.1-1.9-0.3c-2.6-0.9-4.3-3.7-4-6.5l3.2-40l-5.5-36.2l-10.7-6.3
			C158.9,422.5,157.7,420.5,157.7,418.2z"/>
		
			<linearGradient id="XMLID_35_" gradientUnits="userSpaceOnUse" x1="753.0696" y1="459.8888" x2="763.0892" y2="459.8888" gradientTransform="matrix(-1 0 0 1 942.0478 0)">
			<stop  offset="0" style="stop-color:#CECECE"/>
			<stop  offset="1" style="stop-color:#FFFFFF"/>
		</linearGradient>
		<path id="XMLID_157_" class="st129" d="M185.7,412.6c-0.2-3.4-3-5.9-6.3-5.7c-0.1,0-0.3,0-0.4,0c2.8,0.4,5,2.7,5.1,5.7l3.3,53.5
			l-3.3,41.1c-0.2,2.9-2.4,5.2-5.1,5.5c0.1,0,0.2,0,0.3,0.1c0.2,0,0.3,0,0.5,0c3.1,0,5.7-2.4,5.9-5.6l3.3-41.1L185.7,412.6z"/>
		<path id="XMLID_155_" class="st98" d="M155.1,403.1l0.6-5.8c0.5-4,0.8-8.1,0.7-12.1c0.5,2.5,1.4,4.9,2.7,7.2l7.8,13.9
			c1.2,2.1,0.5,4.8-1.6,6.1c-0.7,0.4-1.4,0.6-2.2,0.6c-1.5,0-3-0.8-3.8-2.2L155.1,403.1z"/>
		<path id="XMLID_154_" class="st91" d="M156.1,330.3l18.7,11.1c8.3,4.9,13.4,14,13.4,23.8V420c-7.6,5.5-28.1-2.1-32.1-10.7l1.2-12
			c0.6-4.7,0.9-9.5,0.7-14.3L156.1,330.3z"/>
		<path id="XMLID_153_" class="st94" d="M179.5,342.4h-16.1v-26.1h22.1v20.2C185.4,339.7,182.8,342.4,179.5,342.4z"/>
		<path id="XMLID_152_" class="st94" d="M174.1,346.7h-6.7c-0.7,0-1.2-0.6-1.2-1.2v-17.7h9.2v17.7
			C175.4,346.2,174.8,346.7,174.1,346.7z"/>
		<path id="XMLID_151_" class="st98" d="M188.2,377.2c-0.8-0.3-2.2-1.2-2.4-3.2l-1.7-13.9c-0.3-2.4-2.5-4.2-4.9-3.8
			c-2.4,0.3-2.5,2.9-2.2,5.3l0.2,13.6c0.6,5.1,4,9.2,8.8,10.7c0.7,0.2,1.5,0.4,2.2,0.5V377.2z"/>
		<path id="XMLID_149_" class="st91" d="M189.8,384c-1.2,0-2.5-0.2-3.8-0.6c-4.8-1.5-8.2-5.6-8.8-10.7l-1.7-13.9
			c-0.3-2.4,1.4-4.7,3.7-5c2.4-0.3,4.5,1.4,4.9,3.8l1.7,13.9c0.3,2.4,2.2,3.2,2.8,3.4c0.6,0.2,2.6,0.6,4.1-1.2l12.6-14.6
			c1.6-1.8,4.3-2,6.1-0.4c1.8,1.6,2,4.4,0.4,6.3l-12.6,14.6C196.7,382.5,193.3,384,189.8,384z"/>
		<g id="XMLID_202_">
			<path id="XMLID_148_" class="st94" d="M203.2,361.5l2.1-2.4c1.6-1.8,4.3-2,6.1-0.4c1.8,1.6,2,4.4,0.4,6.3l-2.5,2.9L203.2,361.5z"
				/>
		</g>
		<path id="XMLID_147_" class="st94" d="M215.8,360.7c0,3-2.3,5.4-5.2,5.4s-5.2-2.4-5.2-5.4c0-3,2.3-5.4,5.2-5.4
			S215.8,357.7,215.8,360.7z"/>
		<path id="XMLID_200_" class="st94" d="M215.1,351.4l-6.6,7.1c-0.4,0.5-1.2,0.5-1.6,0l0,0c-0.5-0.5-0.5-1.2,0-1.7l6.6-7.1
			c0.4-0.5,1.2-0.5,1.6,0l0,0C215.5,350.1,215.5,350.9,215.1,351.4z"/>
		<g id="XMLID_199_">
			<path class="st97" d="M187,311.7c-3.8-4.6-12.7-3.3-17.7-1.6c-6.1,2-13.7,4.3-14.8,11.9c-0.3,1.9-0.1,3.9-0.1,5.8
				c0,4.5-1,8.9-2.9,12.9c-2.8,5.7-4.1,9.3-1.2,15.2c1.7,3.5,2.8,9,6.4,11.1c3.6,2.2,11.4,3.6,14.8,0.9c4.9-3.8,7.3-12.9,6.9-18.8
				c-0.5-6.3-3.6-12.8-1.7-18.8c1.2-3.8,6.2-8.1,9-10.7C188.3,317.1,189.5,314.8,187,311.7z"/>
		</g>
		<g>
			<path class="st130" d="M187,311.7c-2.2-2.7-6.2-3.3-10.1-3.1c2.9,0.2,5.7,1,7.4,3.1c2.5,3.1,1.3,5.4-1.2,7.8
				c-2.8,2.7-7.8,6.9-9,10.7c-1.9,6.1,1.2,12.5,1.7,18.8c0.4,5.9-2,15-6.9,18.8c-1.1,0.9-2.7,1.3-4.4,1.4c2.7,0.2,5.4-0.1,7.1-1.4
				c4.9-3.8,7.3-12.9,6.9-18.8c-0.5-6.3-3.6-12.8-1.7-18.8c1.2-3.8,6.2-8.1,9-10.7C188.3,317.1,189.5,314.8,187,311.7z"/>
		</g>
	</g>
</g>
</svg>
