<?xml version="1.0" encoding="utf-8"?>
<!-- Generator: Adobe Illustrator 25.0.0, SVG Export Plug-In . SVG Version: 6.00 Build 0)  -->
<svg version="1.1" id="Text" xmlns="http://www.w3.org/2000/svg" xmlns:xlink="http://www.w3.org/1999/xlink" x="0px" y="0px"
	 viewBox="0 0 367.7 314.4" style="enable-background:new 0 0 367.7 314.4;" xml:space="preserve">
<style type="text/css">
	.st0{fill:url(#XMLID_19_);}
	.st1{fill:#F1F2F2;}
	.st2{fill:#CE0000;}
	.st3{fill:#231F20;}
	.st4{fill:#FFE494;}
	.st5{fill:#414042;}
	.st6{fill:#424242;}
	.st7{fill:#B50404;}
	.st8{opacity:0.3;fill:#231F20;}
	.st9{fill:url(#XMLID_22_);}
	.st10{fill:#414141;}
	.st11{fill:url(#XMLID_24_);}
	.st12{fill:#DADADA;}
	.st13{fill:url(#XMLID_26_);}
	.st14{fill:url(#SVGID_1_);}
	.st15{fill:url(#SVGID_2_);}
	.st16{fill:url(#SVGID_3_);}
	.st17{fill:#FFFFFF;}
	.st18{fill:#F7F7F7;}
	.st19{fill:#B4B4B4;}
	.st20{fill:url(#XMLID_27_);}
	.st21{fill:url(#XMLID_28_);}
	.st22{opacity:0.15;}
	.st23{opacity:0;fill:#FFFFFF;}
	.st24{opacity:1.960800e-02;fill:#FBFBFB;}
	.st25{opacity:3.921600e-02;fill:#F8F8F8;}
	.st26{opacity:5.882400e-02;fill:#F4F4F4;}
	.st27{opacity:7.843100e-02;fill:#F0F0F0;}
	.st28{opacity:9.803900e-02;fill:#EDEDED;}
	.st29{opacity:0.1176;fill:#E9E9E9;}
	.st30{opacity:0.1373;fill:#E5E5E5;}
	.st31{opacity:0.1569;fill:#E2E2E2;}
	.st32{opacity:0.1765;fill:#DEDEDE;}
	.st33{opacity:0.1961;fill:#DADADA;}
	.st34{opacity:0.2157;fill:#D7D7D7;}
	.st35{opacity:0.2353;fill:#D3D3D3;}
	.st36{opacity:0.2549;fill:#D0D0D0;}
	.st37{opacity:0.2745;fill:#CCCCCC;}
	.st38{opacity:0.2941;fill:#C8C8C8;}
	.st39{opacity:0.3137;fill:#C5C5C5;}
	.st40{opacity:0.3333;fill:#C1C1C1;}
	.st41{opacity:0.3529;fill:#BDBDBD;}
	.st42{opacity:0.3725;fill:#BABABA;}
	.st43{opacity:0.3922;fill:#B6B6B6;}
	.st44{opacity:0.4118;fill:#B2B2B2;}
	.st45{opacity:0.4314;fill:#AFAFAF;}
	.st46{opacity:0.451;fill:#ABABAB;}
	.st47{opacity:0.4706;fill:#A7A7A7;}
	.st48{opacity:0.4902;fill:#A4A4A4;}
	.st49{opacity:0.5098;fill:#A0A0A0;}
	.st50{opacity:0.5294;fill:#9C9C9C;}
	.st51{opacity:0.549;fill:#999999;}
	.st52{opacity:0.5686;fill:#959595;}
	.st53{opacity:0.5882;fill:#919191;}
	.st54{opacity:0.6078;fill:#8E8E8E;}
	.st55{opacity:0.6275;fill:#8A8A8A;}
	.st56{opacity:0.6471;fill:#868686;}
	.st57{opacity:0.6667;fill:#838383;}
	.st58{opacity:0.6863;fill:#555555;}
	.st59{opacity:0.7059;fill:#545454;}
	.st60{opacity:0.7255;fill:#515151;}
	.st61{opacity:0.7451;fill:#4F4F4F;}
	.st62{opacity:0.7647;fill:#4D4D4D;}
	.st63{opacity:0.7843;fill:#4C4C4C;}
	.st64{opacity:0.8039;fill:#4A4A4A;}
	.st65{opacity:0.8235;fill:#494949;}
	.st66{opacity:0.8431;fill:#484848;}
	.st67{opacity:0.8627;fill:#474747;}
	.st68{opacity:0.8824;fill:#454545;}
	.st69{opacity:0.902;fill:#444444;}
	.st70{opacity:0.9216;fill:#434343;}
	.st71{opacity:0.9412;fill:#424242;}
	.st72{opacity:0.9608;fill:#404040;}
	.st73{opacity:0.9804;fill:#3F3F3F;}
	.st74{fill:#3E3E3E;}
	.st75{fill:url(#XMLID_29_);}
	.st76{fill:url(#XMLID_30_);}
	.st77{fill:url(#XMLID_31_);}
	.st78{fill:url(#XMLID_32_);}
	.st79{fill:#BF9105;}
	.st80{fill:#E6E7E8;}
	.st81{fill:url(#XMLID_33_);}
	.st82{fill:url(#XMLID_34_);}
	.st83{fill:url(#XMLID_35_);}
	.st84{fill:url(#SVGID_4_);}
	.st85{fill:url(#XMLID_36_);}
	.st86{fill:url(#XMLID_37_);}
	.st87{fill:url(#SVGID_5_);}
	.st88{fill:url(#SVGID_6_);}
	.st89{fill:url(#SVGID_7_);}
	.st90{fill:#BCBEC0;}
	.st91{fill:url(#XMLID_38_);}
	.st92{fill:url(#SVGID_8_);}
	.st93{opacity:0.37;fill:#343434;}
	.st94{opacity:0.3;fill:#414042;}
	.st95{fill:url(#XMLID_39_);}
</style>
<g>
	<linearGradient id="XMLID_19_" gradientUnits="userSpaceOnUse" x1="46.6651" y1="189.3333" x2="94.071" y2="189.3333">
		<stop  offset="0" style="stop-color:#910000"/>
		<stop  offset="0.543" style="stop-color:#A50000"/>
		<stop  offset="1" style="stop-color:#B00000"/>
	</linearGradient>
	<path id="XMLID_23_" class="st0" d="M77.3,176.3c-1.8-1.1-4.8-1.1-6.6,0l-22.7,13c-1.8,1-1.8,2.8,0,3.8l15.4,9.2
		c1.8,1.1,4.7,1.1,6.6,0l22.7-13.1c1.8-1,1.8-2.8,0-3.8L77.3,176.3z"/>
	<g>
		<path id="XMLID_21_" class="st1" d="M77.3,175c-1.8-1.1-4.8-1.1-6.6,0L48,188c-1.8,1-1.8,2.8,0,3.8l15.4,9.2
			c1.8,1.1,4.7,1.1,6.6,0l22.7-13.1c1.8-1,1.8-2.8,0-3.8L77.3,175z"/>
	</g>
	<polygon id="XMLID_12_" class="st2" points="90.8,185.1 66.1,199.6 65.4,199.2 90,184.7 	"/>
	<polygon id="XMLID_11_" class="st2" points="88.1,183.7 63.5,198.2 62.7,197.7 87.4,183.2 	"/>
	<polygon id="XMLID_10_" class="st2" points="85.6,182.2 60.9,196.7 60.2,196.2 84.8,181.7 	"/>
	<polygon id="XMLID_9_" class="st2" points="83,180.7 58.4,195.2 57.6,194.8 82.2,180.2 	"/>
	<polygon id="XMLID_8_" class="st2" points="80.4,179.2 55.8,193.7 55,193.3 79.7,178.7 	"/>
	<polygon id="XMLID_3_" class="st2" points="77.9,177.7 53.2,192.3 52.4,191.8 77.1,177.3 	"/>
	<polygon id="XMLID_1_" class="st2" points="75.2,176.8 62.8,184.1 62.1,183.7 74.5,176.4 	"/>
</g>
<g>
	<path id="XMLID_1210_" class="st3" d="M17.9,44.4c0,2,1.6,3.6,3.6,3.6s3.6-1.6,3.6-3.6s-1.6-3.6-3.6-3.6S17.9,42.4,17.9,44.4z"/>
	<path id="XMLID_1209_" class="st3" d="M18.7,49c0,2,1.6,3.6,3.6,3.6c2,0,3.6-1.6,3.6-3.6s-1.6-3.6-3.6-3.6
		C20.3,45.4,18.7,47,18.7,49z"/>
	<path id="XMLID_1208_" class="st3" d="M36.7,41.4l-0.3,9.2c0,2.9-1.3,5.1-3.9,6.6l0,0c-5.6,3.1-12.6-0.8-12.6-7v-8.7
		c0-2.9,1.6-5.6,4.2-7h0C29.7,31.3,36.7,35.2,36.7,41.4z"/>
	<g id="XMLID_1206_">
		<path id="XMLID_1207_" class="st4" d="M54.5,98.3c1,0,2-0.5,2.6-1.4c0.9-1.4,0.5-3.3-1-4.2L32.9,78.2v-6.5c0-1.7-1.4-3-3-3
			c-1.7,0-3,1.4-3,3v9.9l26,16.3C53.4,98.2,53.9,98.3,54.5,98.3z"/>
	</g>
	<path id="XMLID_1205_" class="st5" d="M47.6,168.9l0,2.3c0,0.9-0.7,1.7-1.6,1.8l-0.4,0.1c-1.1,0.2-2.3-0.1-3.3-0.7l-12-7.4l0.1-3.5
		l13.9,9.2L47.6,168.9z"/>
	<path id="XMLID_1204_" class="st1" d="M38.8,158.2l1.2,4.5l6.3,4.1c1.8,1.1,1.8,3.6,0,4.7l0,0c-0.8,0.5-1.9,0.5-2.7,0l-13.2-8.3
		l0-5H38.8z"/>
	<path id="XMLID_1203_" class="st5" d="M30.2,179.3l0,2.3c0,0.9-0.7,1.7-1.6,1.8l-0.4,0.1c-1.1,0.2-2.3-0.1-3.3-0.7l-12-7.4L13,172
		l13.9,9.2L30.2,179.3z"/>
	<path id="XMLID_1202_" class="st1" d="M21.5,168.6l1.2,4.5l6.3,4.1c1.8,1.1,1.8,3.6,0,4.7l0,0c-0.8,0.5-1.9,0.5-2.7,0L13,173.5l0-5
		H21.5z"/>
	<path id="XMLID_1201_" class="st6" d="M38.8,71.7v87c0,1.5-0.8,2.9-2.1,3.7l0,0c-2.8,1.6-6.4-0.4-6.4-3.7l0-82.1L38.8,71.7z"/>
	<polygon id="XMLID_1200_" points="38.8,71.7 38.8,108.7 30.3,127.3 30.3,74.4 	"/>
	<path id="XMLID_1199_" class="st6" d="M21.6,81.7v87c0,1.5-0.8,2.9-2.1,3.7l0,0c-2.8,1.6-6.4-0.4-6.4-3.7l0-82.1L21.6,81.7z"/>
	<path id="XMLID_1198_" class="st6" d="M38.8,71.8v36.2c0,2.1-1.1,3.9-2.9,5l-18.5,10.7c-1.9,1.1-4.3-0.3-4.3-2.5V85
		c0-2.1,1.1-3.9,2.9-5l18.5-10.7C36.4,68.3,38.8,69.6,38.8,71.8z"/>
	<path id="XMLID_1197_" class="st2" d="M40,64.8v29.1c0,4-2.1,7.6-5.5,9.6l-12.2,7c-4.5,2.6-10.1-0.7-10.1-5.9V71.8
		c0-2.2,1.2-4.3,3.1-5.4L29,58.4C33.9,55.6,40,59.1,40,64.8z"/>
	<g id="XMLID_1195_">
		<path id="XMLID_1196_" class="st4" d="M41.5,106.1c1,0,2-0.5,2.6-1.4c0.9-1.4,0.5-3.3-1-4.2L19.9,86v-6.5c0-1.7-1.4-3-3-3
			c-1.7,0-3,1.4-3,3v9.9l26,16.3C40.4,106,40.9,106.1,41.5,106.1z"/>
	</g>
	<g id="XMLID_1193_">
		<path id="XMLID_1194_" class="st7" d="M16.9,85.9c1.7,0,3-1.4,3-3V71.7c0-1.7-1.4-3-3-3c-1.7,0-3,1.4-3,3v11.2
			C13.9,84.6,15.2,85.9,16.9,85.9z"/>
	</g>
	<g id="XMLID_1191_">
		<path id="XMLID_1192_" class="st4" d="M26,67.4c1.7,0,3-1.3,3-3l0.1-9.7c0-1.7-1.3-3-3-3.1c-1.7,0-3,1.3-3.1,3L23,64.3
			C23,66,24.3,67.3,26,67.4C26,67.4,26,67.4,26,67.4z"/>
	</g>
	<path id="XMLID_1190_" class="st8" d="M23.1,60.4V55l0-0.4c0-1.7,1.4-3,3.1-3c1.7,0,3,1.4,3,3.1l-0.1,6.6c-1,0.3-2-0.4-3.1-0.4
		L23.1,60.4z"/>
	<path id="XMLID_1189_" class="st4" d="M23.1,60.4h6.8c3.8,0,6.9-3.1,6.9-6.9V42.1h-7.5c-3.4,0-6.1,2.7-6.1,6.1V60.4z"/>
	<path id="XMLID_1188_" class="st4" d="M21.5,47c0,0.9,0.7,1.6,1.6,1.6c0.9,0,1.6-0.7,1.6-1.6c0-0.9-0.7-1.6-1.6-1.6
		C22.2,45.4,21.5,46.1,21.5,47z"/>
	<path id="XMLID_1187_" class="st3" d="M24.5,49h0.8c0.4,0,0.8-0.3,0.8-0.8v-7.7c0-0.4-0.3-0.8-0.8-0.8h-0.8c-0.4,0-0.8,0.3-0.8,0.8
		v7.7C23.8,48.7,24.1,49,24.5,49z"/>
	<path id="XMLID_1186_" class="st3" d="M32.6,40.8c0,1.4,1.2,2.6,2.6,2.6c1.4,0,2.6-1.2,2.6-2.6c0-1.4-1.2-2.6-2.6-2.6
		C33.8,38.2,32.6,39.3,32.6,40.8z"/>
	<path id="XMLID_1185_" class="st3" d="M27.3,40.2c0,1.4,1.2,2.6,2.6,2.6c1.4,0,2.6-1.2,2.6-2.6c0-1.4-1.2-2.6-2.6-2.6
		C28.5,37.6,27.3,38.8,27.3,40.2z"/>
	<path id="XMLID_1184_" class="st3" d="M23.5,41.2c0,1.4,1.2,2.6,2.6,2.6s2.6-1.2,2.6-2.6c0-1.4-1.2-2.6-2.6-2.6
		S23.5,39.8,23.5,41.2z"/>
	<path id="XMLID_1183_" class="st3" d="M31.6,37.6c0,2,1.6,3.6,3.6,3.6c2,0,3.6-1.6,3.6-3.6c0-2-1.6-3.6-3.6-3.6
		C33.2,34,31.6,35.6,31.6,37.6z"/>
	<path id="XMLID_1182_" class="st3" d="M26.3,36.1c0,2,1.6,3.6,3.6,3.6c2,0,3.6-1.6,3.6-3.6c0-2-1.6-3.6-3.6-3.6
		C27.9,32.5,26.3,34.2,26.3,36.1z"/>
	<path id="XMLID_1181_" class="st3" d="M22.3,36.1c0,2,1.6,3.6,3.6,3.6c2,0,3.6-1.6,3.6-3.6c0-2-1.6-3.6-3.6-3.6
		C24,32.5,22.3,34.2,22.3,36.1z"/>
	<path id="XMLID_1180_" class="st3" d="M18.7,39.8c0,2,1.6,3.6,3.6,3.6c2,0,3.6-1.6,3.6-3.6c0-2-1.6-3.6-3.6-3.6
		C20.3,36.1,18.7,37.8,18.7,39.8z"/>
	<g>
		<linearGradient id="XMLID_22_" gradientUnits="userSpaceOnUse" x1="11.4691" y1="90.6989" x2="65.6012" y2="90.6989">
			<stop  offset="0" style="stop-color:#910000"/>
			<stop  offset="0.543" style="stop-color:#A50000"/>
			<stop  offset="1" style="stop-color:#B00000"/>
		</linearGradient>
		<path id="XMLID_1179_" class="st9" d="M46.4,75.9c-2.1-1.2-5.4-1.2-7.5,0L13,90.7c-2.1,1.2-2.1,3.2,0,4.4l17.6,10.5
			c2,1.2,5.4,1.2,7.5,0l25.9-15c2.1-1.2,2.1-3.2,0-4.4L46.4,75.9z"/>
		<g>
			<path id="XMLID_1178_" class="st1" d="M46.4,74.4c-2.1-1.2-5.4-1.2-7.5,0L13,89.2c-2.1,1.2-2.1,3.2,0,4.4L30.6,104
				c2,1.2,5.4,1.2,7.5,0l25.9-15c2.1-1.2,2.1-3.2,0-4.4L46.4,74.4z"/>
		</g>
		<polygon id="XMLID_1177_" class="st10" points="61.3,86.3 33.9,102.5 33,102 60.4,85.8 		"/>
		<polygon id="XMLID_1176_" class="st10" points="58.3,84.7 30.9,100.9 30.1,100.4 57.5,84.2 		"/>
		<polygon id="XMLID_1175_" class="st10" points="55.5,83 28.1,99.2 27.2,98.7 54.7,82.5 		"/>
		<polygon id="XMLID_1174_" class="st10" points="52.6,81.4 25.2,97.6 24.4,97 51.8,80.9 		"/>
		<polygon id="XMLID_1173_" class="st10" points="49.8,79.7 22.4,95.9 21.5,95.4 48.9,79.2 		"/>
		<polygon id="XMLID_1172_" class="st10" points="46.9,78.1 19.5,94.3 18.6,93.7 46.1,77.6 		"/>
		<polygon id="XMLID_1171_" class="st10" points="44.1,76.4 29.9,84.8 29.1,84.3 43.2,75.9 		"/>
	</g>
	<g>
		<linearGradient id="XMLID_24_" gradientUnits="userSpaceOnUse" x1="8.4691" y1="89.1989" x2="62.6012" y2="89.1989">
			<stop  offset="0" style="stop-color:#910000"/>
			<stop  offset="0.543" style="stop-color:#A50000"/>
			<stop  offset="1" style="stop-color:#B00000"/>
		</linearGradient>
		<path id="XMLID_1170_" class="st11" d="M43.4,74.4c-2.1-1.2-5.4-1.2-7.5,0L10,89.2c-2.1,1.2-2.1,3.2,0,4.4L27.6,104
			c2,1.2,5.4,1.2,7.5,0l25.9-15c2.1-1.2,2.1-3.2,0-4.4L43.4,74.4z"/>
		<g>
			<path id="XMLID_1169_" class="st12" d="M43.4,72.9c-2.1-1.2-5.4-1.2-7.5,0L10,87.7c-2.1,1.2-2.1,3.2,0,4.4l17.6,10.5
				c2,1.2,5.4,1.2,7.5,0l25.9-15c2.1-1.2,2.1-3.2,0-4.4L43.4,72.9z"/>
		</g>
		<polygon id="XMLID_1168_" class="st10" points="58.3,84.8 30.9,101 30,100.5 57.4,84.3 		"/>
		<polygon id="XMLID_1167_" class="st10" points="55.3,83.2 27.9,99.4 27.1,98.9 54.5,82.7 		"/>
		<polygon id="XMLID_1166_" class="st10" points="52.5,81.5 25.1,97.7 24.2,97.2 51.7,81 		"/>
		<polygon id="XMLID_1165_" class="st10" points="49.6,79.9 22.2,96.1 21.4,95.5 48.8,79.4 		"/>
		<polygon id="XMLID_1164_" class="st10" points="46.8,78.2 19.4,94.4 18.5,93.9 45.9,77.7 		"/>
		<polygon id="XMLID_1163_" class="st10" points="43.9,76.6 16.5,92.8 15.6,92.2 43.1,76.1 		"/>
		<polygon id="XMLID_1162_" class="st10" points="41.1,74.9 26.9,83.3 26.1,82.8 40.2,74.4 		"/>
	</g>
	<g>
		<linearGradient id="XMLID_26_" gradientUnits="userSpaceOnUse" x1="11.4691" y1="83.2015" x2="65.6012" y2="83.2015">
			<stop  offset="0" style="stop-color:#910000"/>
			<stop  offset="0.543" style="stop-color:#A50000"/>
			<stop  offset="1" style="stop-color:#B00000"/>
		</linearGradient>
		<path id="XMLID_1161_" class="st13" d="M46.4,68.4c-2.1-1.2-5.4-1.2-7.5,0L13,83.2c-2.1,1.2-2.1,3.2,0,4.4L30.6,98
			c2,1.2,5.4,1.2,7.5,0l25.9-15c2.1-1.2,2.1-3.2,0-4.4L46.4,68.4z"/>
		<g>
			<path id="XMLID_1160_" class="st1" d="M46.4,66.9c-2.1-1.2-5.4-1.2-7.5,0L13,81.7c-2.1,1.2-2.1,3.2,0,4.4l17.6,10.5
				c2,1.2,5.4,1.2,7.5,0l25.9-15c2.1-1.2,2.1-3.2,0-4.4L46.4,66.9z"/>
		</g>
		<polygon id="XMLID_1159_" class="st10" points="61.3,78.8 33.9,95 33,94.5 60.4,78.3 		"/>
		<polygon id="XMLID_1158_" class="st10" points="58.3,77.2 30.9,93.4 30.1,92.9 57.5,76.7 		"/>
		<polygon id="XMLID_1157_" class="st10" points="55.5,75.5 28.1,91.7 27.2,91.2 54.7,75 		"/>
		<polygon id="XMLID_1156_" class="st10" points="52.6,73.9 25.2,90.1 24.4,89.5 51.8,73.4 		"/>
		<polygon id="XMLID_1155_" class="st10" points="49.8,72.2 22.4,88.4 21.5,87.9 48.9,71.7 		"/>
		<polygon id="XMLID_1154_" class="st10" points="46.9,70.6 19.5,86.8 18.6,86.2 46.1,70.1 		"/>
		<polygon id="XMLID_1153_" class="st10" points="44.1,68.9 29.9,77.3 29.1,76.8 43.2,68.4 		"/>
	</g>
</g>
<g>
	<linearGradient id="SVGID_1_" gradientUnits="userSpaceOnUse" x1="25.9027" y1="214.1045" x2="56.7785" y2="214.1045">
		<stop  offset="0" style="stop-color:#910000"/>
		<stop  offset="0.543" style="stop-color:#A50000"/>
		<stop  offset="1" style="stop-color:#B00000"/>
	</linearGradient>
	<path class="st14" d="M56.8,212.3c0-0.1,0-0.1,0-0.2l-0.1-5.5l-11.5-0.1l-0.5-0.3c-1.1-0.6-2.8-0.6-3.8,0l-0.6,0.3l-14.3-0.1
		l0.1,6.6c0,0.6,0.3,1.1,0.8,1.4l12.6,7.4c1.1,0.6,2.8,0.6,3.8,0l13-7.4c0.4-0.2,0.6-0.6,0.6-1L56.8,212.3z"/>
	<path id="XMLID_428_" class="st1" d="M43.3,198.3c-1.1-0.6-2.8-0.6-3.8,0l-12.7,7.2c-1.1,0.6-1.1,1.6,0,2.2l12.7,7.3
		c1.1,0.6,2.8,0.6,3.8,0l12.6-7.3c1.1-0.6,1.1-1.6,0-2.2L43.3,198.3z"/>
	<path id="XMLID_426_" class="st2" d="M41,210.7l-1.8-2.6c0-0.1-0.1-0.1-0.2-0.1l-4.1-0.9c-0.2,0-0.3-0.2-0.1-0.3l3-1.4
		c0.1,0,0.1-0.1,0.1-0.1l-0.6-2.6c0-0.1,0.2-0.2,0.4-0.1l3.6,1.7c0.1,0,0.2,0,0.2,0l3.7-0.7c0.2,0,0.4,0.1,0.4,0.2l-0.8,2.4
		c0,0,0,0.1,0.1,0.1l2.9,2.2c0.1,0.1,0.1,0.3-0.1,0.2l-4.1-0.2c-0.1,0-0.2,0-0.2,0.1l-1.9,2.1C41.3,210.9,41.1,210.8,41,210.7z"/>
</g>
<g>
	<linearGradient id="SVGID_2_" gradientUnits="userSpaceOnUse" x1="14.8254" y1="240.2081" x2="48.0166" y2="240.2081">
		<stop  offset="0" style="stop-color:#910000"/>
		<stop  offset="0.543" style="stop-color:#A50000"/>
		<stop  offset="1" style="stop-color:#B00000"/>
	</linearGradient>
	<path class="st15" d="M48,238.3c0-0.1,0-0.1,0-0.2l-0.1-5.9l-12.4-0.1l-0.5-0.3c-1.1-0.7-3-0.7-4.1,0l-0.6,0.3L14.8,232l0.1,7.1
		c0,0.6,0.3,1.2,0.9,1.5l13.6,7.9c1.1,0.7,3,0.7,4.1,0l13.9-7.9c0.4-0.2,0.6-0.6,0.6-1L48,238.3z"/>
	<path id="XMLID_373_" class="st1" d="M33.5,223.2c-1.1-0.7-3-0.7-4.1,0L15.7,231c-1.1,0.7-1.1,1.7,0,2.4l13.6,7.9
		c1.1,0.7,3,0.7,4.1,0l13.5-7.8c1.1-0.7,1.1-1.7,0-2.4L33.5,223.2z"/>
	<path id="XMLID_371_" class="st2" d="M34.9,235.6c0,0-0.2,0-0.3,0l-7.8-0.7l-0.3-5.3c0-0.7,0.3-1.3,1-1.7c1.4-0.9,3.8-0.7,5.3,0.5
		c0.8,0.6,1.2,1.3,1.2,2c1,0.1,2,0.4,2.7,1c1.5,1.2,1.6,2.8,0.2,3.7C36.4,235.4,35.7,235.6,34.9,235.6z"/>
</g>
<g>
	<linearGradient id="SVGID_3_" gradientUnits="userSpaceOnUse" x1="52.1011" y1="230.7794" x2="82.6883" y2="230.7794">
		<stop  offset="0" style="stop-color:#910000"/>
		<stop  offset="0.543" style="stop-color:#A50000"/>
		<stop  offset="1" style="stop-color:#B00000"/>
	</linearGradient>
	<path class="st16" d="M82.7,229c0-0.1,0-0.1,0-0.2l-0.1-5.4l-11.4-0.1l-0.5-0.3c-1-0.6-2.8-0.6-3.8,0l-0.6,0.3l-14.2-0.1l0.1,6.5
		c0,0.6,0.3,1.1,0.8,1.4l12.5,7.3c1,0.6,2.8,0.6,3.8,0l12.8-7.3c0.3-0.2,0.6-0.6,0.6-1L82.7,229z"/>
	<path id="XMLID_18_" class="st2" d="M69.3,215.1c-1-0.6-2.8-0.6-3.8,0l-12.5,7.2c-1,0.6-1.1,1.6,0,2.2l12.6,7.2
		c1,0.6,2.8,0.6,3.8,0l12.5-7.2c1-0.6,1-1.6,0-2.2L69.3,215.1z"/>
	<path id="XMLID_15_" class="st17" d="M74.8,224.6c-0.2-1.4-1.6-2.8-3.7-4c-2-1.1-4.2-1.7-6.2-1.7c-1.8,0-3.4,0.5-4.3,1.5
		c-0.6,0.6-0.8,1.3-0.7,2.1c0.2,1.4,1.7,3,3.8,4.2c1.4,0.7,2.5,1.2,3.8,1.5l0.3,0.1l0.1-1l-0.2,0c-0.9-0.2-2-0.6-3.1-1.2
		c-1.8-0.9-2.9-2.1-3-3.2c-0.1-0.6,0.1-1.1,0.5-1.5c0.7-0.8,1.9-1.2,3.4-1.2c1.5,0,3.2,0.5,4.8,1.3c1.7,0.9,2.7,2,2.9,3
		c0.1,0.5-0.1,1-0.5,1.4c-0.5,0.5-1.2,0.8-2,0.8c-0.5,0-0.9-0.1-1.3-0.3c-0.2-0.1-0.3-0.2-0.3-0.3c0-0.1,0-0.3,0.7-0.6l2.4-1.5
		l-0.2-0.2c-0.4-0.4-1.1-0.9-1.9-1.3c-1.3-0.7-2.8-1.1-4.1-1.1c-1.2,0-2.1,0.3-2.6,0.9c-0.3,0.3-0.4,0.7-0.3,1
		c0.1,0.6,0.6,1.1,1.4,1.6c0.9,0.5,1.8,0.7,2.7,0.7c0.1,0,0.3,0,0.4,0c0,0.1-0.1,0.3,0,0.4c0.1,0.6,0.7,1,1,1.2
		c0.9,0.5,1.9,0.7,2.8,0.7c1.2,0,2.2-0.4,2.8-1.1C74.7,226,74.9,225.3,74.8,224.6z M64.9,223.4c0-0.1,0-0.2,0.1-0.3
		c0.4-0.4,1-0.6,1.8-0.6c0.8,0,1.7,0.2,2.4,0.6c0.2,0.1,0.4,0.2,0.6,0.4l-1.1,0.6c-0.4,0.2-1,0.4-1.6,0.4c-0.6,0-1.2-0.1-1.6-0.4
		C65.1,223.9,64.9,223.6,64.9,223.4z"/>
</g>
<g>
	<path id="XMLID_90_" class="st2" d="M155.5,191.7c-0.9-0.5-2.4-0.5-3.3,0L105,218.2c-0.2,0.1-0.3,0.3-0.3,0.5v0.9
		c0,0.4,0.2,0.7,0.5,0.9l30.4,17.5c0.9,0.5,2.4,0.5,3.3,0l46.6-27c0.5-0.3,0.8-0.8,0.8-1.4l0-0.7L155.5,191.7z"/>
	<path id="XMLID_89_" class="st18" d="M155.5,190.6c-0.9-0.5-2.4-0.5-3.3,0l-46.8,27c-0.9,0.5-0.9,1.4,0,1.9l30.3,17.5
		c0.9,0.5,2.4,0.5,3.3,0l46.7-27.1c0.9-0.5,0.9-1.4,0-1.9L155.5,190.6z"/>
	<polygon id="XMLID_88_" class="st2" points="150.3,194.5 169.6,205.7 166.9,207.3 147.6,196.1 	"/>
	<polygon id="XMLID_87_" class="st19" points="145.3,197.4 173.8,213.8 172.4,214.6 143.9,198.3 	"/>
	<polygon id="XMLID_86_" class="st19" points="140.2,200.3 168.8,216.7 167.3,217.5 138.9,201.1 	"/>
	<polygon id="XMLID_85_" class="st19" points="135.2,203.2 163.7,219.6 162.2,220.4 133.8,204 	"/>
	<polygon id="XMLID_84_" class="st19" points="130.1,206 158.6,222.4 157.2,223.3 128.7,206.9 	"/>
	<polygon id="XMLID_83_" class="st19" points="125,208.9 153.5,225.3 152.1,226.1 123.6,209.8 	"/>
	<polygon id="XMLID_82_" class="st19" points="119.9,211.8 148.4,228.2 147,229 118.5,212.7 	"/>
	<polygon id="XMLID_81_" class="st19" points="114.8,214.7 129.8,223.3 128.4,224.1 113.5,215.5 	"/>
</g>
<g>
	<path id="XMLID_814_" class="st2" d="M178.2,280.4c-5.3-3.1-14-3.1-19.3,0c-5.3,3.1-5.3,8.1,0,11.1c5.3,3.1,14,3.1,19.3,0
		S183.5,283.4,178.2,280.4z"/>
	<path id="XMLID_813_" class="st1" d="M178.2,278.8c-5.3-3.1-14-3.1-19.3,0c-5.3,3.1-5.3,8.1,0,11.1c5.3,3.1,14,3.1,19.3,0
		C183.5,286.8,183.5,281.8,178.2,278.8z"/>
	<path id="XMLID_810_" class="st2" d="M174.1,288.3l-11.9-2.2c-1-0.3-1.5-1.1-1-1.3l9.4-4.5c0.5-0.2,1.7,0.2,2.2,0.8l2.6,6.7
		C175.7,288.3,175.1,288.6,174.1,288.3l-11.9-2.2c-1-0.3-1.5-1.1-1-1.3l9.4-4.5c0.5-0.2,1.7,0.2,2.2,0.8l2.6,6.7
		C175.7,288.3,175.1,288.6,174.1,288.3z"/>
</g>
<g>
	<linearGradient id="XMLID_27_" gradientUnits="userSpaceOnUse" x1="181.9973" y1="270.5741" x2="208.2405" y2="270.5741">
		<stop  offset="0" style="stop-color:#910000"/>
		<stop  offset="0.543" style="stop-color:#A50000"/>
		<stop  offset="1" style="stop-color:#B00000"/>
	</linearGradient>
	<ellipse id="XMLID_766_" class="st20" cx="195.1" cy="270.6" rx="13.1" ry="7.6"/>
	<path id="XMLID_765_" class="st1" d="M204.4,263.6c-5.1-2.9-13.5-2.9-18.6,0c-5.1,2.9-5.1,7.8,0,10.7c5.1,2.9,13.5,2.9,18.6,0
		C209.5,271.4,209.5,266.6,204.4,263.6z"/>
	<path id="XMLID_763_" class="st2" d="M195.7,272.8c-1.1,0.5-2.8,0.4-3.8-0.2c-1-0.6-1-1.4,0.1-1.9c0.2-0.1,0.4-0.2,0.7-0.2
		l-0.7-2.1c-0.7,0-1.3-0.2-1.8-0.5c-1-0.6-1-1.4,0.1-1.9c1.1-0.5,2.8-0.4,3.8,0.2c0.5,0.3,0.8,0.7,0.7,1l4,0.6
		c0.1-0.1,0.3-0.2,0.5-0.3c1.1-0.5,2.8-0.4,3.8,0.2c1,0.6,1,1.4-0.1,1.9c-1.1,0.5-2.8,0.4-3.8-0.2c-0.5-0.3-0.7-0.6-0.7-0.9
		l-4.1-0.6c-0.1,0.1-0.3,0.2-0.5,0.3c-0.2,0.1-0.5,0.2-0.7,0.2l0.7,2.1c0.7,0,1.4,0.2,1.9,0.5C196.8,271.5,196.8,272.3,195.7,272.8z
		"/>
</g>
<g>
	<linearGradient id="XMLID_28_" gradientUnits="userSpaceOnUse" x1="158.1236" y1="112.5473" x2="250.7004" y2="112.5473">
		<stop  offset="0" style="stop-color:#910000"/>
		<stop  offset="0.543" style="stop-color:#A50000"/>
		<stop  offset="1" style="stop-color:#B00000"/>
	</linearGradient>
	<path id="XMLID_712_" class="st21" d="M158.1,21.9v-1.8c0-0.6,0.3-1.1,0.8-1.4l2-1.3c1.1-0.7,2.4-0.7,3.5-0.1l81.9,47.4
		c2.4,1.4,4.4,4.8,4.4,7.6v133.1c0,0.8-0.5,1.6-1.2,1.9l-1.8,0.9L159,157L158.1,21.9z"/>
	<path id="XMLID_711_" class="st18" d="M157,22c0-2.8,2-4,4.4-2.5l81.8,47.2c2.4,1.4,4.4,4.8,4.4,7.6v133.8L157,155.8L157,22z"/>
	<path id="XMLID_710_" class="st2" d="M243.2,66.7l-81.8-47.2c-2.4-1.4-4.4-0.3-4.4,2.5v12.3l90.7,52.3V74.4
		C247.6,71.6,245.7,68.1,243.2,66.7z"/>
	<path id="XMLID_709_" class="st17" d="M165.6,29.7c-0.9-0.5-1.7-0.1-1.7,1s0.7,2.4,1.7,2.9c0.9,0.5,1.7,0.1,1.7-1
		C167.3,31.5,166.5,30.2,165.6,29.7z"/>
	<path id="XMLID_708_" class="st17" d="M173.8,34.4c-0.9-0.5-1.7-0.1-1.7,1c0,1.1,0.7,2.4,1.7,2.9c0.9,0.5,1.7,0.1,1.7-1
		C175.4,36.3,174.7,35,173.8,34.4z"/>
	<path id="XMLID_707_" class="st17" d="M181.9,39.2c-0.9-0.5-1.7-0.1-1.7,1c0,1.1,0.7,2.4,1.7,2.9c0.9,0.5,1.7,0.1,1.7-1
		C183.6,41.1,182.8,39.8,181.9,39.2z"/>
	<polygon id="XMLID_706_" class="st12" points="164.5,90.6 164.5,108.1 179.7,116.8 179.7,99.3 	"/>
	<polygon id="XMLID_705_" class="st12" points="190,105.7 190,123.1 205.1,131.8 205.1,114.4 	"/>
	<polygon id="XMLID_704_" class="st12" points="215.4,120.7 215.4,138.1 230.6,146.9 230.6,129.4 	"/>
	<polygon id="XMLID_699_" class="st12" points="174,123.8 221.1,151 221.1,156.4 174,129.3 	"/>
	<polygon id="XMLID_698_" class="st12" points="161.2,129.9 243.5,177.3 243.5,180 161.2,132.6 	"/>
	<polygon id="XMLID_697_" class="st12" points="161.2,140.1 243.5,187.5 243.5,190.2 161.2,142.8 	"/>
	<polygon id="XMLID_696_" class="st12" points="161.2,150.3 243.5,197.7 243.5,200.4 161.2,153 	"/>
</g>
<g>
	<g class="st22">
		<polygon id="XMLID_611_" class="st23" points="289.4,230.1 274.1,239.1 289.4,247.9 304.7,239 		"/>
		<polygon class="st24" points="289.4,230.1 274.4,238.9 289.7,247.7 304.7,239 		"/>
		<polygon class="st25" points="289.4,230.1 274.7,238.7 290,247.6 304.7,239 		"/>
		<polygon class="st26" points="289.4,230.1 274.9,238.6 290.3,247.4 304.7,239 		"/>
		<polygon class="st27" points="289.4,230.1 275.2,238.4 290.5,247.2 304.7,239 		"/>
		<polygon class="st28" points="289.4,230.1 275.5,238.2 290.8,247.1 304.7,239 		"/>
		<polygon class="st29" points="289.4,230.1 275.8,238.1 291.1,246.9 304.7,239 		"/>
		<polygon class="st30" points="289.4,230.1 276.1,237.9 291.4,246.7 304.7,239 		"/>
		<polygon class="st31" points="289.4,230.1 276.4,237.7 291.7,246.6 304.7,239 		"/>
		<polygon class="st32" points="289.4,230.1 276.7,237.6 292,246.4 304.7,239 		"/>
		<polygon class="st33" points="289.4,230.1 276.9,237.4 292.3,246.2 304.7,239 		"/>
		<polygon class="st34" points="289.4,230.1 277.2,237.2 292.5,246.1 304.7,239 		"/>
		<polygon class="st35" points="289.4,230.1 277.5,237.1 292.8,245.9 304.7,239 		"/>
		<polygon class="st36" points="289.4,230.1 277.8,236.9 293.1,245.7 304.7,239 		"/>
		<polygon class="st37" points="289.4,230.1 278.1,236.7 293.4,245.6 304.7,239 		"/>
		<polygon class="st38" points="289.4,230.1 278.4,236.6 293.7,245.4 304.7,239 		"/>
		<polygon class="st39" points="289.4,230.1 278.6,236.4 294,245.2 304.7,239 		"/>
		<polygon class="st40" points="289.4,230.1 278.9,236.2 294.2,245.1 304.7,239 		"/>
		<polygon class="st41" points="289.4,230.1 279.2,236.1 294.5,244.9 304.7,239 		"/>
		<polygon class="st42" points="289.4,230.1 279.5,235.9 294.8,244.7 304.7,239 		"/>
		<polygon class="st43" points="289.4,230.1 279.8,235.7 295.1,244.6 304.7,239 		"/>
		<polygon class="st44" points="289.4,230.1 280.1,235.6 295.4,244.4 304.7,239 		"/>
		<polygon class="st45" points="289.4,230.1 280.4,235.4 295.7,244.2 304.7,239 		"/>
		<polygon class="st46" points="289.4,230.1 280.6,235.2 296,244.1 304.7,239 		"/>
		<polygon class="st47" points="289.4,230.1 280.9,235.1 296.2,243.9 304.7,239 		"/>
		<polygon class="st48" points="289.4,230.1 281.2,234.9 296.5,243.8 304.7,239 		"/>
		<polygon class="st49" points="289.4,230.1 281.5,234.7 296.8,243.6 304.7,239 		"/>
		<polygon class="st50" points="289.4,230.1 281.8,234.6 297.1,243.4 304.7,239 		"/>
		<polygon class="st51" points="289.4,230.1 282.1,234.4 297.4,243.3 304.7,239 		"/>
		<polygon class="st52" points="289.4,230.1 282.4,234.2 297.7,243.1 304.7,239 		"/>
		<polygon class="st53" points="289.4,230.1 282.6,234.1 298,242.9 304.7,239 		"/>
		<polygon class="st54" points="289.4,230.1 282.9,233.9 298.2,242.8 304.7,239 		"/>
		<polygon class="st55" points="289.4,230.1 283.2,233.7 298.5,242.6 304.7,239 		"/>
		<polygon class="st56" points="289.4,230.1 283.5,233.6 298.8,242.4 304.7,239 		"/>
		<polygon class="st57" points="289.4,230.1 283.8,233.4 299.1,242.3 304.7,239 		"/>
		<polygon class="st58" points="289.4,230.1 284.1,233.2 299.4,242.1 304.7,239 		"/>
		<polygon class="st59" points="289.4,230.1 284.4,233.1 299.7,241.9 304.7,239 		"/>
		<polygon class="st60" points="289.4,230.1 284.6,232.9 300,241.8 304.7,239 		"/>
		<polygon class="st61" points="289.4,230.1 284.9,232.7 300.2,241.6 304.7,239 		"/>
		<polygon class="st62" points="289.4,230.1 285.2,232.6 300.5,241.4 304.7,239 		"/>
		<polygon class="st63" points="289.4,230.1 285.5,232.4 300.8,241.3 304.7,239 		"/>
		<polygon class="st64" points="289.4,230.1 285.8,232.2 301.1,241.1 304.7,239 		"/>
		<polygon class="st65" points="289.4,230.1 286.1,232.1 301.4,240.9 304.7,239 		"/>
		<polygon class="st66" points="289.4,230.1 286.4,231.9 301.7,240.8 304.7,239 		"/>
		<polygon class="st67" points="289.4,230.1 286.6,231.8 302,240.6 304.7,239 		"/>
		<polygon class="st68" points="289.4,230.1 286.9,231.6 302.2,240.4 304.7,239 		"/>
		<polygon class="st69" points="289.4,230.1 287.2,231.4 302.5,240.3 304.7,239 		"/>
		<polygon class="st70" points="289.4,230.1 287.5,231.3 302.8,240.1 304.7,239 		"/>
		<polygon class="st71" points="289.4,230.1 287.8,231.1 303.1,239.9 304.7,239 		"/>
		<polygon class="st72" points="289.4,230.1 288.1,230.9 303.4,239.8 304.7,239 		"/>
		<polygon class="st73" points="289.4,230.1 288.3,230.8 303.7,239.6 304.7,239 		"/>
		<polygon id="XMLID_610_" class="st74" points="289.4,230.1 288.6,230.6 303.9,239.4 304.7,239 		"/>
	</g>
	<path id="XMLID_609_" class="st2" d="M285.4,235.3l6.5,1.7l3.7,2.3c0.4,0.3,0.7,0.7,0.7,1.3v7.2l-2,1.1c-0.7,0.4-1.7,0.4-2.4,0
		l-11.3-6.5c-0.9-0.5-1.4-1.4-1.4-2.4l0,0C279.2,236.9,282.2,234.5,285.4,235.3z"/>
	<linearGradient id="XMLID_29_" gradientUnits="userSpaceOnUse" x1="279.177" y1="244.1723" x2="296.2475" y2="244.1723">
		<stop  offset="0" style="stop-color:#910000"/>
		<stop  offset="0.543" style="stop-color:#A50000"/>
		<stop  offset="1" style="stop-color:#B00000"/>
	</linearGradient>
	<path id="XMLID_608_" class="st75" d="M291.8,247.1l-11.3-6.5c-0.6-0.4-1.1-1-1.3-1.6c-0.1,0.3-0.1,0.7-0.1,1.1
		c0,1,0.5,1.9,1.4,2.4l11.3,6.5c0.7,0.4,1.7,0.4,2.4,0l2-1.1V246l-2,1.1C293.5,247.6,292.6,247.6,291.8,247.1z"/>
	<linearGradient id="XMLID_30_" gradientUnits="userSpaceOnUse" x1="289.3989" y1="239.9923" x2="295.9452" y2="239.9923">
		<stop  offset="0" style="stop-color:#910000"/>
		<stop  offset="0.543" style="stop-color:#A50000"/>
		<stop  offset="1" style="stop-color:#B00000"/>
	</linearGradient>
	<path id="XMLID_607_" class="st76" d="M295.6,239.4l-3.7-2.3l-2.5-0.7v4.5c0,1.5,1.5,2.7,3.3,2.7s3.3-1.2,3.3-2.7v-1.1
		C295.8,239.7,295.7,239.5,295.6,239.4z"/>
	<path id="XMLID_606_" class="st2" d="M294.9,226.2l6.5,1.7l3.7,2.3c0.4,0.3,0.7,0.7,0.7,1.3v7.2l-2,1.1c-0.7,0.4-1.7,0.4-2.4,0
		l-11.3-6.5c-0.9-0.5-1.4-1.4-1.4-2.4l0,0C288.7,227.8,291.8,225.4,294.9,226.2z"/>
	<linearGradient id="XMLID_31_" gradientUnits="userSpaceOnUse" x1="288.7263" y1="235.0783" x2="305.7969" y2="235.0783">
		<stop  offset="0" style="stop-color:#910000"/>
		<stop  offset="0.543" style="stop-color:#A50000"/>
		<stop  offset="1" style="stop-color:#B00000"/>
	</linearGradient>
	<path id="XMLID_605_" class="st77" d="M301.4,238l-11.3-6.5c-0.6-0.4-1.1-1-1.3-1.6c-0.1,0.3-0.1,0.7-0.1,1.1c0,1,0.5,1.9,1.4,2.4
		l11.3,6.5c0.7,0.4,1.7,0.4,2.4,0l2-1.1v-1.9l-2,1.1C303.1,238.5,302.1,238.5,301.4,238z"/>
	<linearGradient id="XMLID_32_" gradientUnits="userSpaceOnUse" x1="298.9482" y1="230.8983" x2="305.4945" y2="230.8983">
		<stop  offset="0" style="stop-color:#910000"/>
		<stop  offset="0.543" style="stop-color:#A50000"/>
		<stop  offset="1" style="stop-color:#B00000"/>
	</linearGradient>
	<path id="XMLID_604_" class="st78" d="M305.1,230.3l-3.7-2.3l-2.5-0.7v4.5c0,1.5,1.5,2.7,3.3,2.7c1.8,0,3.3-1.2,3.3-2.7v-1.1
		C305.4,230.6,305.3,230.4,305.1,230.3z"/>
	<g id="XMLID_602_">
		<path id="XMLID_603_" class="st4" d="M292.7,242.6c-1.3,0-2.4-1.1-2.4-2.4v-29.9c0-1.3,1.1-2.4,2.4-2.4c1.3,0,2.4,1.1,2.4,2.4
			v29.9C295.2,241.5,294.1,242.6,292.7,242.6z"/>
	</g>
	<g id="XMLID_600_">
		<path id="XMLID_601_" class="st4" d="M302.2,233.5c-1.3,0-2.4-1.1-2.4-2.4v-27c0-1.3,1.1-2.4,2.4-2.4c1.3,0,2.4,1.1,2.4,2.4v27
			C304.6,232.4,303.5,233.5,302.2,233.5z"/>
	</g>
	<g id="XMLID_598_">
		<path id="XMLID_599_" class="st79" d="M289.8,157.2c-0.2,0-0.3,0-0.5,0c-4.7-0.2-8.9-2.4-11.7-6.2l-1.4-1.9
			c-0.8-1.1-0.5-2.6,0.5-3.4c1.1-0.8,2.6-0.5,3.4,0.5l1.4,1.9c1.9,2.6,4.7,4.1,7.9,4.2c3.2,0.1,6.1-1.2,8.2-3.7l5.4-6.5
			c0.9-1,2.4-1.2,3.4-0.3c1,0.9,1.2,2.4,0.3,3.4l-5.4,6.5C298.4,155.2,294.3,157.2,289.8,157.2z"/>
	</g>
	<path id="XMLID_597_" class="st1" d="M292.5,141.1l5.4-3.4c3.9-2.5,9,0.5,8.7,5.1l-1.6,24.9l-0.1,7.3l-13.3,5l-0.7-4.2l-0.8-17.5
		l-2.8-3.6l2.3-8C289.5,144.4,290.6,142.3,292.5,141.1z"/>
	<path class="st80" d="M293.4,175.9l-0.7-16.1c0-0.9-0.4-1.8-0.9-2.5l-0.6-0.7c-0.9-1.1-1.1-2.6-0.8-3.9l1.7-5.9
		c-0.1-2.3,1-4.4,2.9-5.7l5.4-3.4c0.6-0.4,1.2-0.6,1.8-0.7c-1.4-0.3-2.9-0.1-4.3,0.7l-5.4,3.4c-1.9,1.2-3,3.4-2.9,5.7l-2.3,8
		l2.8,3.6l0.8,17.5l0.7,4.2l2.4-0.9L293.4,175.9z"/>
	<g>
		<path class="st8" d="M292.7,207.9c-1.3,0-2.4,1.1-2.4,2.4v5.7c1.6,0.2,3.6-0.2,4.8-0.6v-5C295.2,209,294.1,207.9,292.7,207.9z"/>
		<path class="st8" d="M304.6,208.4V204c0-1.3-1.1-2.4-2.4-2.4c-1.3,0-2.4,1.1-2.4,2.4v7.8C301.2,210.5,302.9,209.3,304.6,208.4z"/>
	</g>
	<path id="XMLID_596_" class="st1" d="M290.8,177.4c-1.2,0.5-2,8.2-2.1,9.3c-0.5,5,0,12-0.2,17c-0.1,2.5-1.2,7.3-0.3,9.6
		c0.8,2,5.2,1.3,7.1,0.5c1.3-0.5,2.3-1.6,3.4-2.6c2.2-2.1,4.8-3.9,7.6-5.2c1.2-0.6,1.9-1.4,3-2.1c0.2-3.4,0.4-6.8,0.7-10.2
		c0.3-4.9-0.5-9.8-2.3-14.3c-0.6-1.4-1-2.8-1.4-4.3l-1-3.9C305.3,171.1,290.9,177.4,290.8,177.4z"/>
	<path class="st80" d="M291.3,212.7c-0.9-2.3,0.2-7.1,0.3-9.6c0.2-5-0.2-12,0.2-17c0.1-1.1,1-8.8,2.1-9.3c0,0,7.4-3.2,11.6-5
		l-0.2-0.7c0,0-14.5,6.2-14.5,6.2c-1.2,0.5-2,8.2-2.1,9.3c-0.5,5,0,12-0.2,17c-0.1,2.5-1.2,7.3-0.3,9.6c0.7,1.8,4.3,1.4,6.4,0.8
		C293.1,214.1,291.7,213.8,291.3,212.7z"/>
	<path id="XMLID_595_" class="st2" d="M290.8,173.7v3.6c3.8,0.4,12.9-3,14.5-6.2l-0.3-3.4C302.7,172.2,292.7,174.6,290.8,173.7z"/>
	<path class="st8" d="M271.1,115l-45.8-26.4c-1-0.6-2.2-0.4-2.9,0.4c-0.3,0.3-0.4,0.7-0.4,1.1v0.3v30v7v0.1c0,1.1,0.8,2.5,1.7,3
		l47.4,27.3V115z"/>
	<g id="XMLID_541_">
		<linearGradient id="XMLID_33_" gradientUnits="userSpaceOnUse" x1="225.2849" y1="122.2174" x2="280.0608" y2="122.2174">
			<stop  offset="0" style="stop-color:#910000"/>
			<stop  offset="0.543" style="stop-color:#A50000"/>
			<stop  offset="1" style="stop-color:#B00000"/>
		</linearGradient>
		<path id="XMLID_554_" class="st81" d="M225.7,87.3L225.7,87.3c0.8-0.8,2-1,2.9-0.4l49.7,28.8c1,0.6,1.7,1.9,1.7,3l0,37.3
			c0,0.8-0.6,1.5-1.4,1.7l-0.3,0.1c-0.6,0.1-1.1,0-1.6-0.3L227,128.7c-1-0.6-1.7-1.9-1.7-3V88.4C225.3,88,225.4,87.6,225.7,87.3z"/>
		<path id="XMLID_553_" class="st17" d="M225.3,88.7c0-1.1,0.8-1.6,1.7-1l49.9,28.8c1,0.6,1.7,1.9,1.7,3l0,37.1c0,1.1-0.8,1.6-1.7,1
			L227,128.8c-1-0.6-1.7-1.9-1.7-3V88.7z"/>
		<path id="XMLID_552_" class="st2" d="M227,128.8l49.9,28.8c1,0.6,1.7,0.1,1.7-1v-7l-0.1-0.1l-53.3-30.8v7.1
			C225.3,126.9,226.1,128.2,227,128.8z"/>
		<path id="XMLID_547_" class="st2" d="M258.9,124.1l-9.3,1c-1.1,0.1-2.4-1.3-2.4-2.6v-10.8c0-1.2,1.3-1.4,2.4-0.2l9.3,9.8
			C260,122.5,260,124,258.9,124.1l-9.3,1c-1.1,0.1-2.4-1.3-2.4-2.6v-10.8c0-1.2,1.3-1.4,2.4-0.2l9.3,9.8
			C260,122.5,260,124,258.9,124.1z"/>
		<g id="XMLID_545_">
			<path id="XMLID_546_" class="st80" d="M272.3,151.2c-0.1,0-0.3,0-0.4-0.1l-41.1-23.7c-0.4-0.2-0.5-0.7-0.3-1
				c0.2-0.4,0.7-0.5,1-0.3l41.1,23.7c0.4,0.2,0.5,0.7,0.3,1C272.8,151.1,272.6,151.2,272.3,151.2z"/>
		</g>
		<g id="XMLID_543_">
			<path id="XMLID_544_" class="st17" d="M250,138.4c-0.1,0-0.3,0-0.4-0.1l-18.8-10.9c-0.4-0.2-0.5-0.7-0.3-1c0.2-0.4,0.7-0.5,1-0.3
				l18.8,10.9c0.4,0.2,0.5,0.7,0.3,1C250.5,138.2,250.3,138.4,250,138.4z"/>
		</g>
		<path id="XMLID_542_" class="st17" d="M251.1,138.9c-0.4,0.7-1.1,0.7-1.5,0c-0.4-0.7-0.4-1.9,0-2.6c0.4-0.7,1.1-0.7,1.5,0
			C251.5,137,251.5,138.2,251.1,138.9z"/>
	</g>
	<g id="XMLID_539_">
		<path id="XMLID_540_" class="st4" d="M281.8,157.2c-4.5,0-8.7-2-11.5-5.4l-5.4-6.5c-0.9-1-0.7-2.6,0.3-3.4c1-0.9,2.6-0.7,3.4,0.3
			l5.4,6.5c2,2.4,5,3.8,8.2,3.7c3.2-0.1,6-1.6,7.9-4.2l1.4-1.9c0.8-1.1,2.3-1.3,3.4-0.5c1.1,0.8,1.3,2.3,0.5,3.4L294,151
			c-2.7,3.8-7,6-11.7,6.2C282.2,157.2,282,157.2,281.8,157.2z"/>
	</g>
	<g id="XMLID_537_">
		<path id="XMLID_538_" class="st4" d="M298.4,144.9c-1.3,0-2.4-1.1-2.4-2.4v-8.1c0-1.3,1.1-2.4,2.4-2.4c1.3,0,2.4,1.1,2.4,2.4v8.1
			C300.8,143.8,299.7,144.9,298.4,144.9z"/>
	</g>
	<g id="XMLID_535_">
		<path id="XMLID_536_" class="st4" d="M296,140h3.2v-15.1H288v7.2C288,136.5,291.6,140,296,140z"/>
	</g>
	<g id="XMLID_534_">
		<path class="st3" d="M311.1,151.5c-0.3-0.9-0.9-1.6-1.3-2.5c-0.9-2.3,0.3-4.7-0.3-7c-0.6-2.3-2.1-4.3-2.9-6.5
			c-1-2.5-1.7-5-2.6-7.5c-0.9-2.6-2.6-4.5-5.2-5.2c-2.6-0.7-6.3-0.7-8.9-0.4c-0.3,0-0.9,0.1-1.2,0.1c-1,0-1.6,0.9-1.5,1.4
			c0.3,1.6,3,2.7,3.6,4c0.7,1.7-0.1,3.4,0.2,5.1c0.4,2.1,1.6,4,2,6.1c0.4,2.4-1.3,4.4-0.8,6.7c0.3,1.4,1.1,2.7,1.5,4.1
			c0.4,1.8-0.1,3.1-0.7,4.8c-0.4,1.3-0.2,3,1.4,3.2c1.9,0.2,2.4-2.3,4.2-2.3c1.8-0.1,3.1,2.6,5.1,1.8c0.8-0.4,1.3-1.3,2-1.8
			c0.9-0.6,1.8-0.6,2.8-0.9C310.2,154.2,311.9,153.7,311.1,151.5z"/>
	</g>
	<g>
		<g>
			<path class="st5" d="M311.1,151.5c-0.3-0.9-0.9-1.6-1.3-2.5c-0.9-2.3,0.3-4.7-0.3-7c-0.6-2.3-2.1-4.3-2.9-6.5
				c-1-2.5-1.7-5-2.6-7.5c-0.9-2.6-2.6-4.5-5.2-5.2c-1.8-0.5-4.1-0.6-6.3-0.6c1.7,0,3.4,0.2,4.8,0.6c2.7,0.7,4.3,2.6,5.2,5.2
				c0.9,2.5,1.7,5.1,2.6,7.5c0.9,2.2,2.3,4.2,2.9,6.5c0.6,2.3-0.5,4.7,0.3,7c0.3,0.9,0.9,1.6,1.3,2.5c0.8,2.2-0.9,2.7-2.7,3.1
				c-1,0.2-1.9,0.3-2.8,0.9c-0.8,0.5-1.2,1.4-2,1.8c0,0,0,0,0,0c0.5,0.2,1,0.2,1.6,0c0.8-0.4,1.3-1.3,2-1.8c0.9-0.6,1.8-0.6,2.8-0.9
				C310.2,154.2,311.9,153.7,311.1,151.5z"/>
		</g>
	</g>
	<path id="XMLID_533_" class="st4" d="M269.1,142.5c0,1.6-1.3,2.9-2.9,2.9c-1.6,0-2.9-1.3-2.9-2.9c0-1.6,1.3-2.9,2.9-2.9
		C267.8,139.6,269.1,140.9,269.1,142.5z"/>
</g>
<path class="st8" d="M241.3,160.3c0-1.7-1.2-3.7-2.6-4.6l-48.8-28.2c-0.6-0.4-1.5-0.4-2.1,0.1l-1.2,0.8c-0.1,0.1-0.2,0.2-0.3,0.3
	c-0.5,0.3-0.9,0.8-0.9,1.7v7.4l0,34.6l55.8,32.2V160.3z"/>
<g id="XMLID_499_">
	<linearGradient id="XMLID_34_" gradientUnits="userSpaceOnUse" x1="183.6492" y1="172.1929" x2="238.7613" y2="172.1929">
		<stop  offset="0" style="stop-color:#910000"/>
		<stop  offset="0.543" style="stop-color:#A50000"/>
		<stop  offset="1" style="stop-color:#B00000"/>
	</linearGradient>
	<path id="XMLID_532_" class="st82" d="M183.6,132.3v-1.1c0-0.3,0.2-0.6,0.5-0.8l1.2-0.8c0.6-0.4,1.4-0.4,2.1-0.1l48.8,28.2
		c1.4,0.8,2.6,2.9,2.6,4.6v51.1c0,0.5-0.3,0.9-0.7,1.1l-1,0.5l-52.8-30.5L183.6,132.3z"/>
	<path id="XMLID_531_" class="st2" d="M183,132.4c0-1.7,1.2-2.4,2.6-1.5l48.7,28.1c1.4,0.8,2.6,2.9,2.6,4.6v51.5l-54-31.2L183,132.4
		z"/>
	<path id="XMLID_530_" class="st17" d="M234.3,159l-48.7-28.1c-1.4-0.8-2.6-0.2-2.6,1.5v7.4l54,31.2v-7.4
		C236.9,161.8,235.8,159.8,234.3,159z"/>
	<path id="XMLID_529_" class="st2" d="M188.1,136.9c-0.5-0.3-1-0.1-1,0.6c0,0.6,0.4,1.4,1,1.7c0.5,0.3,1,0.1,1-0.6
		C189.1,138,188.7,137.2,188.1,136.9z"/>
	<path id="XMLID_528_" class="st2" d="M193,139.7c-0.5-0.3-1-0.1-1,0.6c0,0.6,0.4,1.4,1,1.7c0.5,0.3,1,0.1,1-0.6
		S193.5,140.1,193,139.7z"/>
	<path id="XMLID_527_" class="st2" d="M197.8,142.6c-0.5-0.3-1-0.1-1,0.6c0,0.6,0.4,1.4,1,1.7s1,0.1,1-0.6
		C198.8,143.7,198.4,142.9,197.8,142.6z"/>
	<polygon id="XMLID_526_" class="st17" points="195.4,151.1 220.1,165.4 220.1,167 195.4,152.7 	"/>
	<polygon id="XMLID_525_" class="st17" points="185.5,145.4 193.9,150.3 193.9,151.9 185.5,147 	"/>
	<polygon id="XMLID_524_" class="st5" points="189.7,152.5 196.8,156.6 196.8,158.2 189.7,154.1 	"/>
	<polygon id="XMLID_523_" class="st17" points="198,157.2 207.6,162.8 207.6,164.4 198,158.8 	"/>
	<polygon id="XMLID_522_" class="st17" points="213.5,170.9 234.4,183 234.4,184.6 213.5,172.5 	"/>
	<polygon id="XMLID_521_" class="st5" points="205.6,166.4 211.2,169.6 211.2,171.2 205.6,168 	"/>
	<polygon id="XMLID_520_" class="st17" points="185.5,154.8 203.1,164.9 203.1,166.6 185.5,156.4 	"/>
	<polygon id="XMLID_519_" class="st17" points="198.5,167 215.6,176.9 215.6,178.5 198.5,168.6 	"/>
	<polygon id="XMLID_518_" class="st5" points="193.5,164.1 197.4,166.4 197.4,168 193.5,165.7 	"/>
	<polygon id="XMLID_517_" class="st17" points="200.5,172.8 230.7,190.2 230.7,191.8 200.5,174.4 	"/>
	<polygon id="XMLID_516_" class="st17" points="187.9,165.6 199,172 199,173.6 187.9,167.2 	"/>
	<polygon id="XMLID_515_" class="st17" points="206.5,181 234.4,197 234.4,198.7 206.5,182.6 	"/>
	<polygon id="XMLID_514_" class="st17" points="193.5,173.5 205,180.2 205,181.8 193.5,175.1 	"/>
	<polygon id="XMLID_513_" class="st5" points="185.5,168.8 192.4,172.8 192.4,174.4 185.5,170.4 	"/>
	<polygon id="XMLID_504_" class="st5" points="198,180.7 201.9,183 201.9,184.6 198,182.3 	"/>
	<polygon id="XMLID_503_" class="st17" points="192.9,177.7 196.8,179.9 196.8,181.5 192.9,179.4 	"/>
	<polygon id="XMLID_502_" class="st17" points="207.8,191 234.4,206.4 234.4,208 207.8,192.6 	"/>
	<polygon id="XMLID_501_" class="st17" points="195.8,184.1 204.3,189 204.3,190.6 195.8,185.7 	"/>
	<polygon id="XMLID_500_" class="st5" points="185.5,178.2 189.9,180.7 189.9,182.3 185.5,179.8 	"/>
</g>
<g>
	<path class="st8" d="M226.5,186.4c0-1.6-1.1-3.5-2.5-4.3l-11.1-6.4c-1.2-0.7-2.6-0.6-3.8,0.1c-0.1,0-0.2,0.1-0.3,0.2c0,0,0,0,0,0
		l0,0c-0.3,0.3-0.5,0.8-0.5,1.4v20.9l18.3,10.5L226.5,186.4z"/>
	<g>
		<linearGradient id="XMLID_35_" gradientUnits="userSpaceOnUse" x1="206.5063" y1="200.4129" x2="224.673" y2="200.4129">
			<stop  offset="0" style="stop-color:#910000"/>
			<stop  offset="0.543" style="stop-color:#A50000"/>
			<stop  offset="1" style="stop-color:#B00000"/>
		</linearGradient>
		<path id="XMLID_452_" class="st83" d="M206.9,178l-0.2,0.3c-0.2,0.1-0.3,1.1-0.3,1.3v32.5c0,1.6,1.1,3.6,2.4,4.3l12.2,7
			c0.2,0.1,0.9,0.3,1.1,0.2l1.6-0.6c0.5-0.2,0.9-0.7,0.9-1.2l0-33.6c0-1.6-1.1-3.5-2.5-4.3l-11.1-6.4
			C209.8,176.8,208.2,177.1,206.9,178z"/>
		<path id="XMLID_409_" class="st18" d="M208.9,178c-1.4-0.8-2.5-0.1-2.5,1.4l0,32.8c0,1.6,1.1,3.5,2.5,4.3l11.9,6.9
			c1.4,0.8,2.5,0.1,2.5-1.4v-32.8c0-1.6-1.1-3.5-2.5-4.3L208.9,178z"/>
		<polygon id="XMLID_408_" class="st2" points="207.8,183.3 207.8,209.9 221.9,218 221.9,191.5 		"/>
		<g id="XMLID_407_">
			<path class="st2" d="M216.7,185.7c0,0-0.1,0-0.1,0l-3.7-2.2c-0.1-0.1-0.2-0.3-0.1-0.4c0.1-0.1,0.3-0.2,0.4-0.1l3.7,2.2
				c0.1,0.1,0.2,0.3,0.1,0.4C216.9,185.6,216.8,185.7,216.7,185.7z"/>
		</g>
		<path id="XMLID_406_" class="st80" d="M214.8,215.1c-0.8-0.5-1.5-0.1-1.5,0.9s0.7,2.1,1.5,2.6c0.8,0.5,1.5,0.1,1.5-0.9
			C216.3,216.7,215.7,215.5,214.8,215.1z"/>
	</g>
	<g>
		<path id="XMLID_405_" class="st17" d="M214.5,196.6c-2.3-1.3-4.2-0.2-4.2,2.4c0,2.7,1.9,6,4.2,7.3s4.2,0.2,4.2-2.4
			C218.8,201.2,216.9,197.9,214.5,196.6z"/>
		<polygon id="XMLID_404_" class="st2" points="213.1,204.1 213.1,200 212.3,199.5 214.2,198.3 216.1,201.7 215.2,201.2 
			215.2,205.2 		"/>
	</g>
</g>
<path class="st8" d="M157,99.1l17.4,10.1c0.4,0.2,0.8,0.2,1,0l0,0l1-0.4c0.5-0.2,0.8-0.7,0.8-1.2l0-7.4l0.1,0c0.3,0,0.6-0.2,0.8-0.4
	l0,0l1.2-0.9l0,0c0.4-0.3,0.6-0.8,0.4-1.3l-2.5-5.6v-4.4c0-0.8-0.6-1.9-1.3-2.3L157,74.3L157,99.1z"/>
<g>
	<linearGradient id="SVGID_4_" gradientUnits="userSpaceOnUse" x1="124.4208" y1="79.4683" x2="177.7307" y2="79.4683">
		<stop  offset="0" style="stop-color:#910000"/>
		<stop  offset="0.543" style="stop-color:#A50000"/>
		<stop  offset="1" style="stop-color:#B00000"/>
	</linearGradient>
	<path class="st84" d="M177.6,93.4l-2.5-5.6v-4.4c0-0.8-0.6-1.9-1.3-2.3l-46.7-27c-0.8-0.5-1.8-0.3-2.5,0.3
		c-0.1,0.1-0.2,0.3-0.2,0.5v20.1c0,0.8,0.7,1.8,1.4,2.2l47.3,27.4c0.1,0,0.2,0.4,0.2,0.4l1-0.4c0.5-0.2,0.8-0.7,0.8-1.2l0-8.5l0.2,0
		l0.7,0.7l1.2-0.9l0,0C177.7,94.4,177.9,93.9,177.6,93.4z"/>
	<path id="XMLID_283_" class="st18" d="M123.9,55.8c0-0.8,0.6-1.2,1.3-0.8l47.1,27.2c0.7,0.4,1.3,1.5,1.3,2.3v4.4l2.5,5.6
		c0.3,0.7-0.2,1.5-1,1.5l-1.5,0v8.2c0,0.8-0.6,1.2-1.3,0.8l-47.1-27.2c-0.7-0.4-1.3-1.5-1.3-2.3V55.8z"/>
	<g id="XMLID_282_">
		<polygon class="st12" points="169.1,86.4 141.8,70.7 141.8,69 169.1,84.6 		"/>
	</g>
	<g id="XMLID_281_">
		<polygon class="st12" points="169.1,92.4 141.8,76.8 141.8,75 169.1,90.7 		"/>
	</g>
	<g id="XMLID_280_">
		<polygon class="st12" points="157,91.5 141.8,82.8 141.8,81 157,89.7 		"/>
	</g>
	<polygon id="XMLID_279_" class="st2" points="126.3,58.6 126.4,75.5 138.6,82.6 138.6,65.5 	"/>
</g>
<g>
	<linearGradient id="XMLID_36_" gradientUnits="userSpaceOnUse" x1="309.5998" y1="255.2514" x2="351.5637" y2="255.2514">
		<stop  offset="0" style="stop-color:#B20000"/>
		<stop  offset="0.7256" style="stop-color:#C80000"/>
		<stop  offset="1" style="stop-color:#D10000"/>
	</linearGradient>
	<path id="XMLID_119_" class="st85" d="M310.2,228.5l-0.2,0.2c-0.3,0.4-0.4,0.9-0.4,1.3v28.5c0,1.2,0.9,2.7,1.9,3.3l36.4,20.9
		c0.5,0.3,1.1,0.4,1.6,0.3l0.1,0c1.2-0.2,2-1.2,2-2.4v-28.9c0-1.2-0.9-2.7-1.9-3.3l-36.2-20.7C312.3,227.1,310.9,227.4,310.2,228.5z
		"/>
	<path id="XMLID_118_" class="st17" d="M311.5,228.7c-1-0.6-1.9-0.1-1.9,1.1v28.6c0,1.2,0.9,2.7,1.9,3.3l36.4,21
		c1,0.6,1.9,0.1,1.9-1.1v-28.8c0-1.2-0.9-2.7-1.9-3.3L311.5,228.7z"/>
	<path id="XMLID_109_" class="st4" d="M341.8,251.8c-1.8-1-3.3-0.2-3.3,1.8c0,2,1.5,4.6,3.3,5.7c1.8,1.1,3.3,0.3,3.3-1.8
		C345,255.4,343.6,252.8,341.8,251.8z"/>
	<linearGradient id="XMLID_37_" gradientUnits="userSpaceOnUse" x1="309.5998" y1="264.4482" x2="349.8097" y2="264.4482">
		<stop  offset="0" style="stop-color:#910000"/>
		<stop  offset="0.543" style="stop-color:#A50000"/>
		<stop  offset="1" style="stop-color:#B00000"/>
	</linearGradient>
	<path id="XMLID_108_" class="st86" d="M334,259.2l-4.3,2.7l-7.6-16l-12.5,7.2v5.2c0,1.2,0.9,2.7,1.9,3.3l36.4,21
		c1,0.6,1.9,0.1,1.9-1.1V277l-8.2-4.7L334,259.2z"/>
</g>
<g>
	<path class="st8" d="M172,56.8c0.2-1.2,0.7-2.1,1.4-2.6l-1.2-1.7c-0.1,0-0.6,0-0.6,0c-1.2,0.8-2,2.2-2.3,4l2,0.3H172z"/>
	<path class="st8" d="M174.7,70c0.1,0.1,0.6-0.1,0.6,0l1.4-1.5c-2.8-2.8-4.8-7.1-4.8-10.5h-0.6h-1.4h-0.6
		C169.2,62,171.4,66.8,174.7,70z"/>
	<path class="st8" d="M182.7,70.7c-0.4,0.2-0.8,0.3-1.2,0.4c-0.8-0.1-1.6-0.4-2.5-0.9h-0.6l-1,1.8c1.3,0.8,2.7,1.2,3.9,1.2
		c0.1,0,0.2,0,0.4,0c0.1,0,0.2,0,0.3,0c0.9,0,1.7-0.2,2.5-0.6c1.8-1,2.7-3.1,2.7-5.8c0-5.1-3.6-11.4-8.1-14
		c-1.4-0.8-2.8-1.2-4.1-1.1c-0.4,0-0.8,0-1.3,0l0.3,2c0.2,0,0.4,0,0.6,0l0,0c0.1,0,0.2,0,0.2,0c0.8,0.1,1.6,0.4,2.5,0.9
		c3.8,2.2,7.1,7.8,7.1,12.2C184.4,68.7,183.8,70.1,182.7,70.7z"/>
	<path class="st8" d="M157,57.9v1.5l0.7-0.8C157.4,58.3,157.2,58.1,157,57.9z"/>
	<path class="st8" d="M161.7,62.4c0.1,0,0.1,0,0.2,0c0.9,0,1.7-0.2,2.5-0.6c1.8-1,2.7-3.1,2.7-5.8c0-1.2-0.2-2.5-0.6-3.8H166l-2,0.6
		c0.3,1.1,0.5,2.2,0.5,3.2c0,1.9-0.6,3.4-1.7,4c-0.4,0.2-0.8,0.3-1.2,0.4c-0.8-0.1-1.7-0.3-2.6-0.9h-0.5l-1,1.8
		c1.3,0.8,2.7,1.2,3.9,1.2C161.5,62.4,161.6,62.4,161.7,62.4z"/>
	<path class="st8" d="M163.4,50.8c0,0,0.5,0,0.5,0l1.9-0.8c-1.5-3.5-4-6.5-6.7-8c-0.7-0.4-1.4-0.7-2.1-0.9v2.4
		c0.2,0.1,0.4,0.2,0.5,0.3C159.9,45.1,162.1,47.8,163.4,50.8z"/>
</g>
<g>
	<linearGradient id="SVGID_5_" gradientUnits="userSpaceOnUse" x1="148.4603" y1="50.6015" x2="165.625" y2="50.6015">
		<stop  offset="0" style="stop-color:#2C2C2C"/>
		<stop  offset="1" style="stop-color:#353535"/>
	</linearGradient>
	<path class="st87" d="M154.9,59.1c-0.1,0-0.4,0.1-0.5,0c-3.6-3.1-5.9-8.5-5.9-12.8c0-2.7,1-4.8,2.7-5.8c1.8-1,4-0.8,6.4,0.5
		c2.7,1.6,5.2,4.6,6.7,8l-1.9,0.8c0,0-0.5,0-0.5,0c-1.3-3-3-5.7-5.4-7.1c-1.7-1-3.2-1.2-4.3-0.5c-1.1,0.6-1.7,2.1-1.7,4
		c0,3.8,2.4,8.6,5.7,11.3L154.9,59.1z M162.9,60.7c1.8-1,2.7-3.1,2.7-5.8c0-1.2-0.2-2.5-0.6-3.8h-0.5l-1.5,0.6
		c0.3,1.1,0.5,2.2,0.5,3.2c0,1.9-0.6,3.4-1.7,4c-1.1,0.6-2.6,0.5-4.3-0.5H157l-0.5,1.8c1.3,0.8,2.7,1.2,3.9,1.2
		C161.3,61.4,162.1,61.2,162.9,60.7z"/>
	<linearGradient id="SVGID_6_" gradientUnits="userSpaceOnUse" x1="129.42" y1="40.2076" x2="146.5849" y2="40.2076">
		<stop  offset="0" style="stop-color:#2C2C2C"/>
		<stop  offset="1" style="stop-color:#353535"/>
	</linearGradient>
	<path class="st88" d="M131.5,35.8h-2c0-2.7,1-4.8,2.7-5.8c1.8-1,4-0.8,6.4,0.5c0.7,0.4,1.5,1,2.2,1.6l-1.4,1.5
		c-0.1-0.1-0.5,0.1-0.5,0c-0.5-0.5-0.8-1-1.3-1.3c-1.7-1-3.2-1.2-4.3-0.5C132.1,32.5,131.5,33.9,131.5,35.8z M142.1,33.7h-0.5
		l-1,1.3c2.4,2.8,4,6.5,4,9.6h2C146.6,41,144.9,36.8,142.1,33.7z M143.5,50.5c1.6-0.7,2.6-2.3,2.9-4.3l-1.8-0.3l-0.7,0
		c-0.2,1.4-0.3,2.4-1.3,2.8c-1.1,0.5-2.6,0.3-4.1-0.6c-3.3-1.9-6.3-6.4-6.9-10.6h-0.5l-1.5,0.3c0.8,4.8,4.1,9.8,7.9,12
		c1.3,0.8,2.7,1.2,3.9,1.2C142.1,51,142.9,50.8,143.5,50.5z"/>
	<g id="XMLID_78_">
		<path id="XMLID_79_" class="st2" d="M154.4,59.1c-3.7-3-6.4-8.4-6.4-12.8c0-2.7,1-4.8,2.7-5.8c1.8-1,4-0.8,6.4,0.5
			c2.7,1.6,5.2,4.6,6.7,8l-1.9,0.8c-1.3-3.1-3.5-5.7-5.9-7.1c-1.7-1-3.2-1.2-4.3-0.5c-1.1,0.6-1.7,2.1-1.7,4c0,3.8,2.4,8.6,5.7,11.3
			L154.4,59.1z"/>
	</g>
	<g id="XMLID_76_">
		<path id="XMLID_77_" class="st1" d="M159.9,61.4c-1.2,0-2.5-0.4-3.9-1.2l1-1.8c1.7,1,3.2,1.2,4.3,0.5c1.1-0.6,1.7-2.1,1.7-4
			c0-1-0.2-2.1-0.5-3.2l2-0.6c0.4,1.3,0.6,2.6,0.6,3.8c0,2.7-1,4.8-2.7,5.8C161.6,61.2,160.8,61.4,159.9,61.4z"/>
	</g>
	<g id="XMLID_67_">
		<path id="XMLID_68_" class="st5" d="M131,35.8h-2c0-2.7,1-4.8,2.7-5.8c1.8-1,4-0.8,6.4,0.5c0.7,0.4,1.5,1,2.2,1.6l-1.4,1.5
			c-0.6-0.5-1.2-1-1.8-1.3c-1.7-1-3.2-1.2-4.3-0.5C131.6,32.5,131,33.9,131,35.8z"/>
	</g>
	<g id="XMLID_62_">
		<path id="XMLID_65_" class="st2" d="M146.1,44.6h-2c0-3-1.6-6.8-4-9.6l1.5-1.3C144.4,36.8,146.1,41,146.1,44.6z"/>
	</g>
	<g id="XMLID_124_">
		<path id="XMLID_61_" class="st1" d="M140.9,51c-1.2,0-2.5-0.4-3.9-1.2c-3.8-2.2-7.2-7.3-7.9-12l2-0.3c0.7,4.2,3.6,8.6,6.9,10.6
			c1.6,0.9,3,1.1,4.1,0.6c0.9-0.4,1.6-1.4,1.8-2.8l2,0.3c-0.3,2.1-1.4,3.6-2.9,4.3C142.3,50.8,141.6,51,140.9,51z"/>
	</g>
	<linearGradient id="SVGID_7_" gradientUnits="userSpaceOnUse" x1="168.3766" y1="61.3809" x2="185.5414" y2="61.3809">
		<stop  offset="0" style="stop-color:#2C2C2C"/>
		<stop  offset="1" style="stop-color:#353535"/>
	</linearGradient>
	<path class="st89" d="M170.5,55.8h-0.6l-1.4-0.3c0.3-1.7,0.5-3.1,1.6-4c0.1,0,0.6,0,0.6,0l1.2,1.7
		C171.2,53.6,170.7,54.6,170.5,55.8z M182.8,71.5c1.8-1,2.7-3.1,2.7-5.8c0-5.1-3.6-11.4-8.1-14c-1.6-0.9-3.2-1.3-4.7-1.1l0.3,2
		c1-0.1,2.1,0.2,3.3,0.9c3.8,2.2,7.1,7.8,7.1,12.2c0,1.9-0.6,3.4-1.7,4c-1.1,0.6-2.6,0.5-4.3-0.5h-0.6l-0.4,1.8
		c1.3,0.8,2.7,1.2,3.9,1.2C181.2,72.2,182.1,71.9,182.8,71.5z M175.2,67.5c-2.8-2.8-4.8-7.1-4.8-10.5h-2c0,3.9,1.7,8.8,4.8,12
		c0.1,0.1,0.6-0.1,0.6,0L175.2,67.5z"/>
	<g id="XMLID_116_">
		<path id="XMLID_117_" class="st1" d="M169.9,55.8l-2-0.3c0.3-1.8,1.1-3.1,2.3-4l1.2,1.7C170.6,53.6,170.1,54.6,169.9,55.8z"/>
	</g>
	<g id="XMLID_114_">
		<path id="XMLID_115_" class="st2" d="M179.7,72.2c-1.2,0-2.5-0.4-3.9-1.2l1-1.8c1.7,1,3.2,1.2,4.3,0.5c1.1-0.6,1.7-2.1,1.7-4
			c0-4.4-3.2-10-7.1-12.2c-1.2-0.7-2.4-1-3.3-0.9l-0.3-2c1.4-0.2,3,0.2,4.7,1.1c4.5,2.6,8.1,8.8,8.1,14c0,2.7-1,4.8-2.7,5.8
			C181.4,71.9,180.6,72.2,179.7,72.2z"/>
	</g>
	<g id="XMLID_112_">
		<path id="XMLID_113_" class="st90" d="M173.2,69c-3.3-3.2-5.5-8-5.5-12h2c0,3.4,2,7.7,4.8,10.5L173.2,69z"/>
	</g>
</g>
<path class="st8" d="M157,122.9l8.5,5c0.2,0.1,0.3,0.1,0.5,0.2l0,0h1.6c0.8,0,1.4-0.6,1.4-1.4v-14.9c0-0.8-0.5-1.6-1.2-2.1
	l-10.8-6.2V122.9z"/>
<g id="XMLID_69_">
	<linearGradient id="XMLID_38_" gradientUnits="userSpaceOnUse" x1="135.4924" y1="107.5236" x2="167.0199" y2="107.5236">
		<stop  offset="0" style="stop-color:#B20000"/>
		<stop  offset="0.7256" style="stop-color:#C80000"/>
		<stop  offset="1" style="stop-color:#D10000"/>
	</linearGradient>
	<path id="XMLID_93_" class="st91" d="M165.8,106.2l-27.2-15.6c-0.7-0.4-1.5-0.2-2,0.4l-0.9,1.2c-0.2,0.2-0.3,0.5-0.3,0.8l0.5,13.4
		c0,0.8,0.2,1.4,0.9,1.8l12,7.3l6.2,3.6l9,5.3h1.6c0.8,0,1.4-0.6,1.4-1.4v-14.9C167,107.4,166.6,106.7,165.8,106.2z"/>
	<path id="XMLID_92_" class="st2" d="M135.5,93v13.7c0,0.8,0.5,1.6,1.2,2.1l26.8,15.7c0.9,0.5,2-0.1,2-1.2v-13.9
		c0-0.8-0.5-1.6-1.2-2.1l-26.9-15.5C136.6,91.3,135.5,92,135.5,93z"/>
	<path id="XMLID_40_" class="st17" d="M143,102.2c-0.1-1.1-0.8-2.2-1.5-2.5c-0.4-0.1-0.7,0-0.9,0.3c-0.3-0.5-0.6-0.8-1-0.9
		c-0.7-0.3-1.3,0.4-1.2,1.5c0,0.5,0.2,1.1,0.5,1.5l2.1,3.6l1.7-2.2c0,0,0.1-0.1,0.1-0.1C142.9,103,143,102.7,143,102.2z"/>
	<g id="XMLID_4_">
		<path id="XMLID_14_" class="st17" d="M144.4,104.8c0.1-0.1,0.1-0.2,0.2-0.4c0-0.1,0-0.3,0-0.4c0-0.1-0.1-0.2-0.2-0.3
			c-0.2-0.1-0.3,0-0.5,0.3l-0.4-0.7c0.2-0.2,0.3-0.4,0.5-0.4c0.2-0.1,0.3,0,0.6,0.1c0.2,0.1,0.4,0.3,0.5,0.6c0.1,0.3,0.1,0.7,0.1,1
			c0,0.2-0.1,0.4-0.2,0.5c-0.1,0.2-0.3,0.3-0.5,0.5l-0.6,0.5l1,0.6l-0.1,0.8l-1.7-1l0.1-0.7l0.9-0.8
			C144.2,105,144.3,104.9,144.4,104.8z"/>
		<path id="XMLID_5_" class="st17" d="M147.3,104.7l-0.1,0.8l-1-0.6l-0.1,0.7c0.1,0,0.2,0,0.3,0.1c0.2,0.1,0.4,0.4,0.5,0.7
			c0.1,0.3,0.2,0.7,0.1,1.1c-0.1,0.4-0.2,0.7-0.4,0.8c-0.2,0.2-0.5,0.2-0.7,0c-0.3-0.2-0.6-0.5-0.7-1.1l0.4-0.5c0,0,0,0.1,0.1,0.2
			c0,0.1,0.1,0.2,0.2,0.3c0.1,0.1,0.2,0.2,0.3,0.3c0.1,0.1,0.2,0.1,0.3,0c0.1,0,0.1-0.2,0.2-0.3s0-0.3,0-0.5
			c-0.1-0.1-0.2-0.2-0.3-0.3c-0.1-0.1-0.3-0.1-0.5,0l-0.2-0.5l0.3-1.9L147.3,104.7z"/>
	</g>
	<g id="XMLID_71_">
		<path id="XMLID_74_" class="st17" d="M157.9,111.6l1.1,0.7l0,3.7l-0.6-0.3l0-3l-0.5-0.3L157.9,111.6z"/>
		<path id="XMLID_72_" class="st17" d="M160.9,114.8c0.1-0.1,0.1-0.2,0.1-0.3c0-0.1,0-0.2-0.1-0.4c-0.1-0.1-0.1-0.2-0.2-0.3
			c-0.2-0.1-0.3,0-0.5,0.2l-0.5-0.7c0.1-0.2,0.3-0.3,0.4-0.4c0.2,0,0.4,0,0.6,0.1c0.2,0.1,0.5,0.4,0.6,0.7c0.2,0.3,0.3,0.6,0.3,1
			c0,0.2,0,0.4-0.1,0.5c-0.1,0.1-0.2,0.3-0.4,0.4l-0.5,0.4l1.1,0.6l0,0.7l-2-1.1l0-0.6l0.8-0.7C160.7,115,160.8,114.9,160.9,114.8z"
			/>
	</g>
	<path id="XMLID_70_" class="st17" d="M154.7,108.3c-1.3-0.7-2.3-0.1-2.3,1.3c0,0.7,0.2,1.5,0.6,2.2v1.1c0,0.1,0.1,0.1,0.1,0.1h0.8
		c0.2,0.2,0.5,0.4,0.7,0.6c1.3,0.7,2.3,0.1,2.3-1.3C157,110.9,155.9,109.1,154.7,108.3z"/>
</g>
<g>
	<g>
		<linearGradient id="SVGID_8_" gradientUnits="userSpaceOnUse" x1="254.0379" y1="56.2785" x2="295.9646" y2="56.2785">
			<stop  offset="0" style="stop-color:#B20000"/>
			<stop  offset="0.7256" style="stop-color:#C80000"/>
			<stop  offset="1" style="stop-color:#D10000"/>
		</linearGradient>
		<path class="st92" d="M294.4,54.5l-37.7-21.6c-1.2-0.7-2.7,0.2-2.7,1.5v20.6c0,1.1,0.6,2.2,1.6,2.7l16.2,9.2l8.3,4.8l13.1,7.8
			c1.2,0.7,2.7-0.2,2.7-1.5V57.2C296,56.1,295.4,55.1,294.4,54.5z"/>
		<path id="XMLID_95_" class="st2" d="M254,36.9v18.2c0,1.1,0.6,2.2,1.6,2.7l14.3,8.2l1.7,6.2c0.2,0.9,1.3,1.4,2.1,0.9l4.5-2.3
			l13.1,7.8c1.2,0.7,2.7-0.2,2.7-1.5V58.7c0-1.1-0.6-2.2-1.6-2.7l-35.7-20.6C255.5,34.7,254,35.5,254,36.9z"/>
	</g>
	<g id="XMLID_94_">
		<polygon class="st17" points="290.1,60.3 258.9,42.3 258.9,39.9 290.1,57.9 		"/>
	</g>
	<g id="XMLID_96_">
		<polygon class="st17" points="290.1,66.4 258.9,48.5 258.9,46.1 290.1,64.1 		"/>
	</g>
	<g id="XMLID_98_">
		<polygon class="st17" points="274,63.3 258.9,54.6 258.9,52.3 274,61 		"/>
	</g>
</g>
<g>
	<g id="XMLID_183_">
		<path id="XMLID_236_" class="st4" d="M107.7,147.9l-13.4-1c-1.7-0.1-3-1.6-2.9-3.3c0.1-1.7,1.6-3,3.3-2.9l11.1,0.8l15.3-11.8
			c1.4-1.1,3.3-0.8,4.4,0.6c1.1,1.4,0.8,3.3-0.6,4.4L107.7,147.9z"/>
	</g>
	<path id="XMLID_193_" class="st2" d="M90.8,244.1v7.1c0,1.6,0.8,3,2.2,3.8l1.8,1c1.5,0.9,3.4,0.9,5,0l12.4-7
		c3.7-2.1,3.8-7.5,0.1-9.6l0,0c-1.7-1-3.8-1-5.5-0.1l-12.4,6.7L90.8,244.1z"/>
	<path id="XMLID_191_" class="st93" d="M112.2,247.4l-12.4,7c-1.5,0.9-3.4,0.9-5,0l-1.8-1c-1.4-0.8-2.2-2.3-2.2-3.8v1.7
		c0,1.6,0.8,3,2.2,3.8l1.8,1c1.5,0.9,3.4,0.9,5,0l12.4-7c2.2-1.2,3.1-3.5,2.8-5.7C114.7,245,113.8,246.5,112.2,247.4z"/>
	<path id="XMLID_216_" class="st80" d="M90.8,160.5v85.3c0,2,1,3.8,2.8,4.8l0,0c3.7,2.1,8.3-0.5,8.3-4.8l0-79L90.8,160.5z"/>
	<polygon id="XMLID_215_" class="st90" points="90.8,160.5 90.8,190.3 101.8,204.5 101.8,164 	"/>
	<path id="XMLID_189_" class="st2" d="M106.3,252.7v7.1c0,1.6,0.8,3,2.2,3.8l1.8,1c1.5,0.9,3.4,0.9,5,0l12.4-7
		c3.7-2.1,3.8-7.5,0.1-9.6l0,0c-1.7-1-3.8-1-5.5-0.1l-12.4,6.7L106.3,252.7z"/>
	<path id="XMLID_205_" class="st93" d="M127.7,256l-12.4,7c-1.5,0.9-3.4,0.9-5,0l-1.8-1c-1.4-0.8-2.2-2.3-2.2-3.8v1.7
		c0,1.6,0.8,3,2.2,3.8l1.8,1c1.5,0.9,3.4,0.9,5,0l12.4-7c2.2-1.2,3.1-3.5,2.8-5.7C130.2,253.6,129.3,255.1,127.7,256z"/>
	<path id="XMLID_192_" class="st80" d="M106.3,169l0,85.3c0,2,1,3.8,2.8,4.8l0,0c3.7,2.1,8.3-0.5,8.3-4.8l0-79L106.3,169z"/>
	<path id="XMLID_213_" class="st80" d="M90.8,153.6v33.9c0,1.9,1.1,3.7,3,4.7l19.1,10c2,1,4.4-0.3,4.4-2.3v-33.9
		c0-1.9-1.1-3.7-3-4.7l-19.1-10C93.3,150.2,90.8,151.5,90.8,153.6z"/>
	<path id="XMLID_210_" class="st1" d="M106.3,169v2.4l8.3,4.8l0,79c0,2-1,3.6-2.5,4.6c2.7-0.2,5.2-2.4,5.2-5.5l0-79L106.3,169z"/>
	<path id="XMLID_212_" class="st2" d="M89.6,146.4l0,31c0,4,2.2,7.6,5.7,9.6l12.6,5.2c4.7,2.6,10.5-0.7,10.5-5.9v-33
		c0-2.2-1.2-4.3-3.2-5.4L101,140C95.9,137.2,89.6,140.7,89.6,146.4z"/>
	<path id="XMLID_217_" class="st93" d="M91.4,179.2l0-31c0-5.7,6.3-9.2,11.4-6.4L101,140c-5-2.8-11.4,0.7-11.4,6.4l0,31
		c0,3.3,1.6,6.5,4.2,8.6C92.3,184,91.4,181.6,91.4,179.2z"/>
	<g id="XMLID_206_">
		<path id="XMLID_207_" class="st4" d="M104,149.3c-1.7,0-3.1-1.4-3.1-3.1l-0.1-10c0-1.7,1.4-3.1,3.1-3.2c1.7,0,3.1,1.4,3.2,3.1
			l0.1,10C107.2,147.8,105.8,149.2,104,149.3C104.1,149.3,104,149.3,104,149.3z"/>
	</g>
	<path id="XMLID_204_" class="st4" d="M100.8,142.1h7c3.9,0,7.1-3.2,7.1-7.1v-11.8h-7.8c-3.5,0-6.3,2.8-6.3,6.3V142.1z"/>
	<circle id="XMLID_225_" class="st3" cx="99.5" cy="125.5" r="3.7"/>
	<circle id="XMLID_224_" class="st3" cx="100.4" cy="130.3" r="3.7"/>
	<circle id="XMLID_181_" class="st3" cx="101.6" cy="135.7" r="3.7"/>
	<path id="XMLID_7_" class="st3" d="M111.5,124l-0.3,8.6c0,2.7-1.1,4.8-3.3,6.2l0,0c-4.7,2.9-10.6-0.7-10.6-6.6V124
		c0-2.7,1.3-5.2,3.5-6.6l0,0C105.6,114.5,111.5,118.2,111.5,124z"/>
	<path id="XMLID_203_" class="st4" d="M109.2,129.3c0,0.9,0.7,1.6,1.6,1.6s1.6-0.7,1.6-1.6c0-0.9-0.7-1.6-1.6-1.6
		S109.2,128.4,109.2,129.3z"/>
	<path id="XMLID_201_" class="st3" d="M110.3,122.3c0,1.5,1.2,2.7,2.7,2.7s2.7-1.2,2.7-2.7s-1.2-2.7-2.7-2.7
		S110.3,120.8,110.3,122.3z"/>
	<path id="XMLID_198_" class="st3" d="M109.9,118.5c0,2.1,1.7,3.7,3.7,3.7c2.1,0,3.7-1.7,3.7-3.7c0-2.1-1.7-3.7-3.7-3.7
		C111.6,114.8,109.9,116.5,109.9,118.5z"/>
	<path id="XMLID_197_" class="st3" d="M104.4,117c0,2.1,1.7,3.7,3.7,3.7c2.1,0,3.7-1.7,3.7-3.7c0-2.1-1.7-3.7-3.7-3.7
		C106.1,113.3,104.4,115,104.4,117z"/>
	<path id="XMLID_196_" class="st3" d="M100.4,117c0,2.1,1.7,3.7,3.7,3.7c2.1,0,3.7-1.7,3.7-3.7c0-2.1-1.7-3.7-3.7-3.7
		C102,113.3,100.4,115,100.4,117z"/>
	<circle id="XMLID_195_" class="st3" cx="100.4" cy="120.8" r="3.7"/>
	<path id="XMLID_194_" class="st94" d="M112.5,156.7c-1.6-0.6-2.4-2.4-1.8-4c0.6-1.6,2.4-2.4,4-1.8l3.5,1.3c0.1,0.4,0.1,0.8,0.1,1.2
		v8.7L112.5,156.7z"/>
	<g id="XMLID_232_">
		<linearGradient id="XMLID_39_" gradientUnits="userSpaceOnUse" x1="119.8953" y1="139.4615" x2="155.9182" y2="139.4615">
			<stop  offset="0" style="stop-color:#910000"/>
			<stop  offset="0.543" style="stop-color:#A50000"/>
			<stop  offset="1" style="stop-color:#B00000"/>
		</linearGradient>
		<path id="XMLID_6_" class="st95" d="M119.9,119.7l0.6-1.1c0.7-1.2,2.2-1.6,3.4-0.9l28.7,16.6c1.8,1.1,3.3,3.7,3.3,5.8v19.3
			c0,1.2-0.9,2.2-2.1,2.2l-1.3,0c-0.4,0-0.8-0.1-1.2-0.3l-28-16.2c-1.8-1.1-3.3-3.7-3.3-5.8V119.7z"/>
		<path id="XMLID_208_" class="st1" d="M119.8,120.7c0-2.1,1.5-3,3.3-1.9l27.7,16c1.8,1.1,3.3,3.7,3.3,5.8v18.7c0,2.1-1.5,3-3.3,1.9
			l-27.7-16c-1.8-1.1-3.3-3.7-3.3-5.8V120.7z"/>
		<polygon id="XMLID_211_" class="st2" points="122.3,122.2 150.9,138.6 150.9,140 122.3,123.6 		"/>
		<polygon id="XMLID_218_" class="st2" points="122.3,126.7 150.9,143 150.9,144.4 122.3,128.1 		"/>
		<polygon id="XMLID_226_" class="st2" points="130.8,136 150.9,147.5 150.9,148.9 130.8,137.4 		"/>
		<polygon id="XMLID_230_" class="st2" points="128,134.4 130.1,135.6 130.1,137 128,135.8 		"/>
		<polygon id="XMLID_231_" class="st2" points="122.3,131.1 127.1,133.9 127.1,135.3 122.3,132.5 		"/>
		<polygon id="XMLID_227_" class="st2" points="141.7,146.7 150.9,152 150.9,153.4 141.7,148.1 		"/>
		<polygon id="XMLID_229_" class="st2" points="122.3,135.6 140.8,146.2 140.8,147.6 122.3,137 		"/>
		<polygon id="XMLID_228_" class="st2" points="122.3,140.1 135.9,147.9 135.9,149.3 122.3,141.5 		"/>
	</g>
	<g id="XMLID_187_">
		<path id="XMLID_235_" class="st4" d="M136.1,160.9l-23-4c-1.7-0.3-2.8-1.9-2.5-3.6c0.3-1.7,1.9-2.8,3.6-2.5l20.9,3.6l16.9-9.5
			c1.5-0.8,3.4-0.3,4.3,1.2c0.8,1.5,0.3,3.4-1.2,4.3L136.1,160.9z"/>
	</g>
	<g id="XMLID_209_">
		<path id="XMLID_234_" class="st2" d="M126.8,159.7c-0.2,0-0.4,0-0.6-0.1L113,157c-1.8-0.4-3-2.1-2.7-3.9c0.4-1.8,2.1-3,3.9-2.7
			l13.2,2.5c1.8,0.4,3,2.1,2.7,3.9C129.8,158.5,128.4,159.7,126.8,159.7z"/>
	</g>
</g>
</svg>
