<?xml version="1.0" encoding="utf-8"?>
<!-- Generator: Adobe Illustrator 24.3.0, SVG Export Plug-In . SVG Version: 6.00 Build 0)  -->
<svg version="1.1" id="Layer_1" xmlns="http://www.w3.org/2000/svg" xmlns:xlink="http://www.w3.org/1999/xlink" x="0px" y="0px"
	 viewBox="0 0 315.2 93.4" style="enable-background:new 0 0 315.2 93.4;" xml:space="preserve">
<style type="text/css">
	.st0{fill:#FFFFFF;}
	.st1{fill-rule:evenodd;clip-rule:evenodd;fill:#FFFFFF;}
	.st2{fill-rule:evenodd;clip-rule:evenodd;fill:url(#SVGID_1_);}
	.st3{fill-rule:evenodd;clip-rule:evenodd;fill:url(#SVGID_2_);}
	.st4{fill-rule:evenodd;clip-rule:evenodd;fill:url(#SVGID_3_);}
	.st5{fill-rule:evenodd;clip-rule:evenodd;fill:url(#SVGID_4_);}
</style>
<g>
	<path class="st1" d="M172.1,72.6c-1.4-1.2-2.6-3.2-3.3-4.5l4.8-2c0.3,0.6,0.7,1.5,1.5,2.2c1.2,1.3,2.9,2.2,4.8,2.2
		c1.9,0,3.9-0.8,5-2.4c1-1.4,1.4-3.1,1.4-5v-1.9c-3.4,4.4-10.9,3.8-15-0.8c-4.5-4.8-4.4-12.7,0.1-17.5c4.4-4.4,11-5,14.9-0.8
		c0,0,0,0,0,0v-2.1h5.2v22.5c0,5.7-2.1,8.9-4.7,10.8c-1.9,1.4-4.6,2-6.9,2C176.8,75.4,174.1,74.4,172.1,72.6L172.1,72.6z
		 M295.9,73.8L295.9,73.8l5-11.8l-8.8-20.5h5l6.3,14.6l6.2-14.6h5L301,73.8H295.9L295.9,73.8z M272.1,62.5L272.1,62.5
		c-1.4-1.4-2.2-3.5-2.2-5.5c0-1.7,0.6-3.5,1.8-4.8c2-2.2,5.1-3.1,8.3-3.1c2.1,0,3.9,0.4,5.3,1.2c0-3.6-2.8-5-5.2-5
		c-2.2,0-4.2,1.2-4.9,3.2l-4.5-1.8c0.8-2.2,3.3-5.9,9.3-5.9c2.9,0,5.8,1,7.7,3c1.9,2,2.5,4.5,2.5,7.8V64h-4.9v-2.2
		c-0.7,0.8-1.6,1.6-2.7,2.1c-1.3,0.6-2.8,0.8-4.1,0.8C276.1,64.8,273.7,64.1,272.1,62.5L272.1,62.5z M114.4,51.9L114.4,51.9
		c0-5.9,4.5-12.4,12.3-12.4c7.8,0,12.3,6.5,12.3,12.4c0,5.9-4.5,12.4-12.3,12.4C118.9,64.3,114.4,57.8,114.4,51.9L114.4,51.9z
		 M141.1,51.9L141.1,51.9c0-5.9,4.5-12.4,12.3-12.4c7.8,0,12.3,6.5,12.3,12.4c0,5.9-4.5,12.4-12.3,12.4
		C145.6,64.3,141.1,57.8,141.1,51.9L141.1,51.9z M81,58.4L81,58.4c-7.4-7.5-7.2-19.6,0.2-27.1c3.8-3.8,8.7-5.7,13.6-5.6
		c4.7,0,9.4,1.8,13.1,5.2l-3.7,3.9c-5.3-5.2-13.8-5.1-19.1,0.3c-5.3,5.5-5.4,14.3-0.1,19.8c5.3,5.5,14.2,5.8,19.5,0.3
		c1.8-1.9,2.4-4.2,2.8-6.6H94.8v-5.3h17.5c0.3,1.3,0.3,2.7,0.3,4c0,4.3-1.9,8.9-4.8,11.9c-3.3,3.4-8,5.2-12.8,5.1
		C90,64.2,84.9,62.2,81,58.4L81,58.4z M206,60.6L206,60.6c-4.4-4.8-4.4-12.8,0-17.6c4.4-4.8,11.9-4.8,16.1,0
		c1.4,1.6,2.3,3.6,3.2,5.7l-16.4,6.9c1,1.9,2.8,3.8,5.8,3.8c2.6,0,4.3-0.9,6.1-3.5l4.3,2.9h0c-0.5,0.7-1.1,1.3-1.6,1.8
		C219.2,65.4,210.4,65.4,206,60.6L206,60.6z M236.9,64.1L236.9,64.1V31.3h10.5c6.3,0,11.1,4.4,11.1,9.9c0,5.5-4.6,9.9-10.2,9.9h-6.5
		v12.9H236.9L236.9,64.1z M261.8,64.1L261.8,64.1V31.3h5v32.7H261.8L261.8,64.1z M195,63.5L195,63.5V26.9h5.5v36.6H195L195,63.5z
		 M285.2,54.5L285.2,54.5c-1.2-0.8-3.1-1.2-4.7-1.2c-3.6,0-5.6,1.8-5.6,3.8c0,2.2,2.1,3.3,4.1,3.3C281.9,60.3,285.2,57.9,285.2,54.5
		L285.2,54.5z M133.6,51.8L133.6,51.8c0-3.6-2.5-7.5-6.9-7.5c-4.4,0-6.9,3.9-6.9,7.5c0,3.6,2.5,7.5,6.9,7.5
		C131.1,59.3,133.6,55.4,133.6,51.8L133.6,51.8z M160.3,51.8L160.3,51.8c0-3.6-2.5-7.5-6.9-7.5c-4.4,0-6.9,3.9-6.9,7.5
		c0,3.6,2.5,7.5,6.9,7.5C157.8,59.3,160.3,55.4,160.3,51.8L160.3,51.8z M186.4,54.1L186.4,54.1c0.1-0.2,0.1-0.5,0.2-0.9
		c0-0.1,0-0.1,0-0.1c0.1-0.4,0.1-0.9,0.1-1.3c0-0.4,0-0.8-0.1-1.2c0-0.1,0-0.2,0-0.2c-0.1-0.4-0.2-0.8-0.3-1.1
		c-0.9-2.9-3.4-5-6.3-4.9c-3.7,0-6.6,3.4-6.6,7.5c0,4.1,3,7.5,6.7,7.4C183,59.3,185.5,57.2,186.4,54.1L186.4,54.1z M208.1,51.4
		L208.1,51.4l11-4.6c-1.1-2-3-2.6-4.5-2.6C210.3,44.2,207.4,48.9,208.1,51.4L208.1,51.4z M253.4,41.4L253.4,41.4
		c0-2.9-2.2-5.2-5.6-5.2h-6v10.4h6.3C251.1,46.6,253.4,44.2,253.4,41.4z"/>
	<g>
		<linearGradient id="SVGID_1_" gradientUnits="userSpaceOnUse" x1="18.5454" y1="10.7317" x2="34.0075" y2="74.2323">
			<stop  offset="0" style="stop-color:#006884"/>
			<stop  offset="1" style="stop-color:#8AD1D0"/>
		</linearGradient>
		<path class="st2" d="M0.6,46.7V17.6c0-1.6,1.4-3.1,2.9-3.1c1.3,0,2,0.4,2.6,0.7l53.3,29.1c1.1,0.6,1.7,1.4,1.7,2.3
			c0,0.8-0.6,1.6-1.7,2.3L6.1,78.1c-0.7,0.3-1.3,0.7-2.6,0.7c-1.5,0-2.9-1.5-2.9-3.1V46.7z"/>
		<linearGradient id="SVGID_2_" gradientUnits="userSpaceOnUse" x1="-0.3099" y1="19.7641" x2="41.827" y2="42.5435">
			<stop  offset="0" style="stop-color:#24BBB6"/>
			<stop  offset="1" style="stop-color:#DBE692"/>
		</linearGradient>
		<path class="st3" d="M35.2,46.9L3,14.6c0.2,0,0.3-0.1,0.5-0.1c1.3,0,2,0.4,2.6,0.7l39.3,21.5L35.2,46.9z"/>
		<linearGradient id="SVGID_3_" gradientUnits="userSpaceOnUse" x1="48.1733" y1="57.814" x2="48.1733" y2="35.8607">
			<stop  offset="0" style="stop-color:#FCC072"/>
			<stop  offset="1" style="stop-color:#F58A5B"/>
		</linearGradient>
		<path class="st4" d="M45.1,56.8l-9.9-9.9l10.1-10.1l14,7.7c1.1,0.6,1.7,1.4,1.7,2.3c0,0.8-0.6,1.6-1.7,2.3L45.1,56.8z"/>
		<linearGradient id="SVGID_4_" gradientUnits="userSpaceOnUse" x1="7.849" y1="84.4645" x2="41.1357" y2="50.588">
			<stop  offset="0" style="stop-color:#712B8F"/>
			<stop  offset="1" style="stop-color:#EA1D27"/>
		</linearGradient>
		<path class="st5" d="M3.3,78.8L3.3,78.8l31.9-31.9l9.9,9.9l-39,21.3c-0.7,0.3-1.3,0.7-2.6,0.7C3.4,78.9,3.4,78.8,3.3,78.8z"/>
	</g>
	<g>
		<path class="st1" d="M299.8,73.6L299.8,73.6C299.8,73.6,299.7,73.6,299.8,73.6C299.7,73.6,299.7,73.6,299.8,73.6L299.8,73.6
			C299.7,73.5,299.7,73.5,299.8,73.6C299.7,73.5,299.8,73.5,299.8,73.6L299.8,73.6C299.8,73.5,299.7,73.5,299.8,73.6
			C299.7,73.5,299.7,73.5,299.8,73.6L299.8,73.6C299.7,73.6,299.7,73.6,299.8,73.6C299.7,73.6,299.8,73.6,299.8,73.6z"/>
		<path class="st1" d="M299.8,73.6L299.8,73.6C299.8,73.6,299.8,73.5,299.8,73.6L299.8,73.6C299.8,73.5,299.8,73.5,299.8,73.6
			L299.8,73.6L299.8,73.6L299.8,73.6L299.8,73.6L299.8,73.6L299.8,73.6L299.8,73.6L299.8,73.6z M299.8,73.5L299.8,73.5
			C299.8,73.5,299.8,73.5,299.8,73.5L299.8,73.5L299.8,73.5L299.8,73.5C299.8,73.5,299.8,73.5,299.8,73.5L299.8,73.5z"/>
		<polygon class="st1" points="299.8,73.6 299.8,73.6 299.8,73.6 299.8,73.6 299.8,73.5 299.8,73.5 299.8,73.5 299.8,73.5 
			299.8,73.5 299.8,73.5 299.8,73.6 299.8,73.6 		"/>
		<path class="st1" d="M299.9,73.6L299.9,73.6L299.9,73.6L299.9,73.6L299.9,73.6L299.9,73.6L299.9,73.6L299.9,73.6L299.9,73.6
			L299.9,73.6z M299.9,73.6L299.9,73.6L299.9,73.6L299.9,73.6C299.9,73.5,299.9,73.5,299.9,73.6C299.9,73.5,299.9,73.5,299.9,73.6
			L299.9,73.6z"/>
		<polygon class="st1" points="299.9,73.5 299.9,73.5 299.9,73.5 299.9,73.5 299.9,73.6 299.9,73.6 299.9,73.5 299.9,73.5 		"/>
		<polygon class="st1" points="300,73.6 299.9,73.6 299.9,73.6 300,73.6 300,73.5 299.9,73.5 299.9,73.5 300,73.5 300,73.5 
			299.9,73.5 299.9,73.6 300,73.6 		"/>
		<path class="st1" d="M300,73.6L300,73.6C300,73.5,300,73.5,300,73.6L300,73.6L300,73.6L300,73.6C300,73.6,300,73.6,300,73.6
			L300,73.6z M300,73.6L300,73.6C300,73.6,300,73.6,300,73.6L300,73.6L300,73.6L300,73.6C300,73.5,300,73.5,300,73.6L300,73.6z"/>
		<path class="st1" d="M300.1,73.6L300.1,73.6C300.1,73.6,300.1,73.5,300.1,73.6C300.1,73.5,300.1,73.5,300.1,73.6L300.1,73.6
			C300.1,73.5,300.1,73.5,300.1,73.6L300.1,73.6L300.1,73.6L300.1,73.6C300.1,73.6,300.1,73.6,300.1,73.6L300.1,73.6z M300.1,73.5
			L300.1,73.5C300.1,73.5,300.1,73.5,300.1,73.5L300.1,73.5L300.1,73.5L300.1,73.5C300.1,73.5,300.1,73.5,300.1,73.5L300.1,73.5
			L300.1,73.5z M300.1,73.6L300.1,73.6C300.1,73.6,300.1,73.6,300.1,73.6L300.1,73.6L300.1,73.6L300.1,73.6
			C300.1,73.6,300.1,73.6,300.1,73.6L300.1,73.6z"/>
		<polygon class="st1" points="300.1,73.5 300.1,73.5 300.1,73.5 300.1,73.5 300.1,73.5 300.1,73.5 300.1,73.5 300.1,73.6 
			300.1,73.6 300.1,73.6 300.1,73.6 		"/>
		<polygon class="st1" points="300.2,73.6 300.2,73.6 300.2,73.5 300.1,73.5 300.1,73.6 300.2,73.6 		"/>
		<path class="st1" d="M300.2,73.6L300.2,73.6C300.2,73.5,300.2,73.5,300.2,73.6C300.2,73.5,300.2,73.5,300.2,73.6L300.2,73.6
			C300.2,73.6,300.2,73.6,300.2,73.6C300.2,73.6,300.2,73.6,300.2,73.6L300.2,73.6z M300.2,73.6L300.2,73.6
			C300.2,73.6,300.2,73.6,300.2,73.6C300.2,73.6,300.2,73.6,300.2,73.6L300.2,73.6C300.2,73.5,300.2,73.5,300.2,73.6
			C300.2,73.5,300.2,73.5,300.2,73.6L300.2,73.6z"/>
		<path class="st1" d="M300.3,73.6L300.3,73.6L300.3,73.6L300.3,73.6L300.3,73.6L300.3,73.6C300.3,73.6,300.3,73.6,300.3,73.6
			C300.3,73.6,300.3,73.6,300.3,73.6L300.3,73.6C300.3,73.5,300.3,73.5,300.3,73.6C300.3,73.5,300.3,73.5,300.3,73.6L300.3,73.6
			C300.3,73.5,300.3,73.5,300.3,73.6C300.3,73.5,300.3,73.5,300.3,73.6L300.3,73.6C300.3,73.6,300.3,73.6,300.3,73.6
			C300.3,73.6,300.3,73.6,300.3,73.6L300.3,73.6z"/>
		<path class="st1" d="M300.4,73.6L300.4,73.6C300.4,73.5,300.4,73.5,300.4,73.6C300.3,73.5,300.3,73.5,300.4,73.6L300.4,73.6
			C300.3,73.6,300.3,73.6,300.4,73.6C300.4,73.6,300.4,73.6,300.4,73.6L300.4,73.6z M300.4,73.6L300.4,73.6
			C300.4,73.6,300.4,73.6,300.4,73.6C300.3,73.6,300.3,73.6,300.4,73.6L300.4,73.6C300.3,73.5,300.3,73.5,300.4,73.6
			C300.4,73.5,300.4,73.5,300.4,73.6L300.4,73.6z"/>
		<polygon class="st1" points="300.5,73.6 300.5,73.5 300.5,73.5 300.5,73.6 300.4,73.5 300.4,73.5 300.4,73.6 300.4,73.6 
			300.4,73.5 300.4,73.5 300.5,73.6 300.5,73.6 300.5,73.5 300.5,73.5 300.5,73.6 		"/>
		<path class="st1" d="M300.6,73.6L300.6,73.6L300.6,73.6L300.6,73.6L300.6,73.6L300.6,73.6L300.6,73.6L300.6,73.6L300.6,73.6
			L300.6,73.6z M300.5,73.5L300.5,73.5L300.5,73.5L300.5,73.5C300.5,73.5,300.5,73.5,300.5,73.5C300.5,73.5,300.5,73.5,300.5,73.5
			L300.5,73.5z"/>
		<path class="st1" d="M300.6,73.6C300.6,73.5,300.6,73.5,300.6,73.6C300.6,73.5,300.6,73.5,300.6,73.6
			C300.6,73.5,300.6,73.5,300.6,73.6C300.6,73.5,300.6,73.5,300.6,73.6L300.6,73.6C300.6,73.5,300.6,73.5,300.6,73.6
			C300.6,73.5,300.6,73.5,300.6,73.6C300.6,73.5,300.6,73.5,300.6,73.6C300.6,73.5,300.6,73.5,300.6,73.6
			C300.6,73.6,300.6,73.6,300.6,73.6C300.6,73.6,300.6,73.6,300.6,73.6L300.6,73.6C300.6,73.6,300.6,73.6,300.6,73.6
			C300.6,73.6,300.6,73.6,300.6,73.6z"/>
		<polygon class="st1" points="300.7,73.5 300.6,73.5 300.6,73.5 300.7,73.5 300.7,73.6 300.7,73.6 300.7,73.5 300.7,73.5 		"/>
		<polygon class="st1" points="300.7,73.6 300.7,73.6 300.7,73.5 300.7,73.5 300.7,73.5 300.7,73.5 300.7,73.5 300.7,73.5 
			300.7,73.5 300.7,73.5 300.7,73.6 300.7,73.6 		"/>
		<path class="st1" d="M300.8,73.6L300.8,73.6C300.8,73.5,300.8,73.5,300.8,73.6L300.8,73.6C300.8,73.5,300.8,73.5,300.8,73.6
			L300.8,73.6L300.8,73.6L300.8,73.6L300.8,73.6L300.8,73.6L300.8,73.6L300.8,73.6L300.8,73.6z M300.8,73.5L300.8,73.5
			C300.8,73.5,300.8,73.5,300.8,73.5L300.8,73.5L300.8,73.5L300.8,73.5C300.8,73.5,300.8,73.5,300.8,73.5L300.8,73.5z"/>
	</g>
</g>
</svg>
