<?xml version="1.0" encoding="utf-8"?>
<!-- Generator: Adobe Illustrator 24.3.0, SVG Export Plug-In . SVG Version: 6.00 Build 0)  -->
<svg version="1.1" id="Layer_1" xmlns="http://www.w3.org/2000/svg" xmlns:xlink="http://www.w3.org/1999/xlink" x="0px" y="0px"
	 viewBox="0 0 1175.6 300" style="enable-background:new 0 0 1175.6 300;" xml:space="preserve">
<style type="text/css">
	.st0{fill-rule:evenodd;clip-rule:evenodd;fill:#FFFFFF;}
	.st1{fill-rule:evenodd;clip-rule:evenodd;fill:#010101;}
	.st2{fill-rule:evenodd;clip-rule:evenodd;fill:#D51F27;}
	.st3{fill:#FFFFFF;}
	.st4{fill-rule:evenodd;clip-rule:evenodd;fill:#211F1F;}
</style>
<g id="Layer_2_1_">
</g>
<g id="XMLID_5_">
	<g id="XMLID_6_">
		<path id="XMLID_35_" class="st0" d="M167.7,10c77.3,0,140,62.7,140,140s-62.7,140-140,140s-140-62.7-140-140
			C27.7,72.7,90.3,10,167.7,10"/>
		<path id="XMLID_27_" class="st1" d="M167.7,14.7c74.7,0,135.2,60.6,135.2,135.2s-60.6,135.2-135.2,135.2S32.4,224.6,32.4,149.9
			C32.4,75.2,93,14.7,167.7,14.7"/>
		<path id="XMLID_26_" class="st2" d="M167.7,31.5c65.4,0,118.5,53.1,118.5,118.5s-53.1,118.5-118.5,118.5S49.2,215.3,49.2,149.9
			C49.2,84.5,102.3,31.5,167.7,31.5"/>
		<path id="XMLID_25_" class="st1" d="M205.1,262.6c-1.5-31.6,0-56.6,5.5-84.4c2.5,0,4.6,1.1,7.3,1.7c8.9,1.8,21.6-2,24.1-6.3
			c-1.1-0.3-2.3-0.8-3.4-1.5c1.5-1,3.5-1.9,4.9-2.8c-5.1-0.3-8.1-3.1-7.9-8.1c19.5-7.6,30.6-21.5,32.5-34.2
			c3.3-22.3-5.9-44.7-32.5-45.6c27.3,18.3,19.5,52.2-16.4,52c-14.4-10.7-29.9-14.9-47-9.4c-14.1-8-36.5-10.8-55.2-3.2
			c-6,0.6-12.3-1.9-16.5-3.9c-18-8.4-13.5-28.2,2.7-39.2c6.2-4.2,16.5-7.2,24.5-8.6c-69.6-9.1-82.5,75.6-24.3,82.4
			c-7.3,6-14.4,3.8-20.6,3.1c2,9,10.5,13.4,18.6,13.9c-24,16.7-35.3,23.1-45.4,21.5C77.5,256.7,152.4,284.7,205.1,262.6"/>
		<path id="XMLID_24_" class="st2" d="M200.5,163.5c-2.1,2.2-4.4,4.6-6.5,6.8c0.3,5-3.8,6.7-7.5,4.8c-2,0.7-4,1.5-6,2.2
			C188.8,181.8,203.2,176,200.5,163.5"/>
		<path id="XMLID_23_" class="st2" d="M130.2,160.4c2.6,2.6,5.2,5.2,7.8,7.8c-1.7,6.8,5.5,6.3,6.4,4.9c2.1,0.6,4.3,1.1,6.4,1.7
			C141,180.6,129.8,174,130.2,160.4"/>
		<path id="XMLID_22_" class="st0" d="M153.5,210.2c2-1.7,4.5-2.2,7.3-1.5c3.4,0.3,6.9,0.3,10.2,0c3.1-0.8,5.7,0.1,7.3,1.5
			c3.7,3.4,4.1,6.5,4.4,8.8c-0.2,4.8-6.8,2.7-9,1.5c-5.3-2.1-10.5-2.1-15.4,0c-3.4,1.7-9,2.5-9-1.5
			C149.5,215.3,150.9,212.4,153.5,210.2z"/>
		<path id="XMLID_19_" class="st3" d="M179,222.3c-2,0-4.4-0.9-5.6-1.5c-5.1-2-10.2-2-15.2,0c-2.6,1.3-6.2,1.9-8.1,0.8
			c-0.9-0.6-1.3-1.5-1.3-2.7c0.3-3.7,1.8-6.7,4.4-9l0,0c2-1.7,4.6-2.3,7.5-1.6c3.4,0.3,6.8,0.3,10.1,0c2.8-0.7,5.6-0.2,7.5,1.6
			c3.6,3.3,4.2,6.3,4.4,9c-0.1,1.4-0.6,2.3-1.5,2.8C180.7,222.2,179.9,222.3,179,222.3z M165.7,218.7c2.6,0,5.2,0.6,7.9,1.6
			c1.4,0.7,5.4,2.2,7.4,1c0.7-0.4,1.1-1.2,1.2-2.3c-0.2-2.6-0.7-5.4-4.3-8.6c-1.8-1.6-4.4-2.2-7-1.5c-3.4,0.3-6.9,0.3-10.2,0
			c-2.8-0.6-5.2-0.2-7.1,1.5c-2.5,2.3-4,5.2-4.3,8.6c0,1,0.3,1.7,1,2.1c1.7,1,5.1,0.4,7.5-0.8C160.5,219.3,163.2,218.7,165.7,218.7z
			"/>
		<path id="XMLID_18_" class="st4" d="M154.9,211.5c1.7,2.7,2.7,2.9,4.4,3.4c2.2,1.1,1,3.2-0.8,3.1
			C156.7,217.7,153.7,215.6,154.9,211.5z"/>
		<path id="XMLID_15_" class="st3" d="M158.7,218.2c-0.1,0-0.2,0-0.2,0c-1-0.1-2.4-0.6-3.3-2c-0.6-0.9-1.2-2.4-0.6-4.8l0.2-0.6
			l0.3,0.6c1.6,2.5,2.4,2.7,4,3.1l0.2,0.1c1.3,0.6,1.5,1.6,1.4,2.3C160.5,217.7,159.7,218.2,158.7,218.2z M155,212.3
			c-0.2,1.4-0.1,2.6,0.6,3.6c0.8,1.1,2,1.7,2.9,1.8c0.9,0.1,1.5-0.4,1.6-0.9c0.2-0.6-0.2-1.1-1-1.6H159
			C157.5,214.7,156.5,214.4,155,212.3z"/>
		<path id="XMLID_14_" class="st4" d="M176.9,211.5c-1.7,2.7-2.7,2.9-4.4,3.4c-2.2,1.1-1,3.2,0.8,3.1
			C175.2,217.7,178.2,215.6,176.9,211.5z"/>
		<path id="XMLID_11_" class="st3" d="M173.1,218.2c-1,0-1.8-0.6-2-1.4c-0.2-0.6,0.1-1.6,1.3-2.3l0.2-0.1c1.6-0.4,2.4-0.6,4-3.1
			l0.3-0.6l0.2,0.6c0.6,2.3,0.1,3.8-0.6,4.8c-1,1.4-2.4,1.9-3.3,2C173.2,218.2,173.2,218.2,173.1,218.2z M176.8,212.3
			c-1.5,2.2-2.4,2.4-4,2.9l-0.2,0.1c-0.7,0.4-1.1,1-1,1.5c0.2,0.5,0.7,1,1.6,0.9c0.9-0.1,2.1-0.6,2.9-1.8
			C176.9,214.8,177,213.6,176.8,212.3z"/>
		<path id="XMLID_10_" class="st0" d="M157.1,222.6c5.6-2.7,10.9-2.7,17.3-0.2c-0.2,1.7-0.9,2.3-2,2.7c-3.1,1.1-10,1.3-13.1,0
			C158.1,224.7,157.6,223.8,157.1,222.6z"/>
		<path id="XMLID_7_" class="st3" d="M165.5,226.3c-2.4,0-4.8-0.2-6.5-0.9c-1.3-0.5-1.8-1.5-2.3-2.7l-0.1-0.2l0.2-0.1
			c5.7-2.7,11.1-2.7,17.5-0.2l0.2,0.1v0.2c-0.3,1.9-1,2.5-2.2,2.9C170.8,226,168.2,226.3,165.5,226.3z M157.5,222.7
			c0.5,1,0.9,1.7,1.9,2.1c3.1,1.3,9.8,1,12.9,0c1-0.3,1.5-0.7,1.8-2.2C168,220.2,162.9,220.2,157.5,222.7z"/>
	</g>
</g>
<g>
	<path class="st3" d="M347.2,185.4v-71h35.4c6.6,0,11.9,1.9,15.6,6c3.6,4,5.5,9.6,5.5,17c0,7.2-1.9,13-5.5,17c-3.6,4-8.7,6-15.6,6
		h-17v24.9H347.2z M375.5,129.8h-10v15.3h10c3,0,5.1-0.6,6.2-1.7c1.1-1.1,1.7-3.2,1.7-6s-0.6-4.9-1.7-6
		C380.6,130.4,378.5,129.8,375.5,129.8z"/>
	<path class="st3" d="M409.8,114.4h30.3c9.8,0,17.3,3,22.4,9.2c5.1,6,7.7,14.9,7.7,26.4s-2.6,20.5-7.7,26.4c-5.1,6-12.6,9-22.4,9
		h-30.3V114.4z M428.1,131.9v34.5h9c4.7,0,8.1-1.3,10.2-4c2.1-2.8,3-7,3-13.2c0-6.2-1.1-10.4-3.2-13.2c-2.1-2.8-5.5-4-10.2-4H428.1z
		"/>
	<path class="st3" d="M478,185.4v-71h18.3v71H478z"/>
	<path class="st3" d="M537.9,185.4v-71h35.4c6.6,0,11.9,1.9,15.6,6c3.6,4,5.5,9.6,5.5,17c0,7.2-1.9,13-5.5,17c-3.6,4-8.7,6-15.6,6
		h-17v24.9H537.9z M566.3,129.8h-10v15.3h10c3,0,5.1-0.6,6.2-1.7c1.1-1.1,1.7-3.2,1.7-6s-0.6-4.9-1.7-6
		C571.2,130.4,569.2,129.8,566.3,129.8z"/>
	<path class="st3" d="M600.4,185.4v-71h50.1v17.5h-31.8v8.5h25.8v17.5h-25.8v9.4h33.2v18.3h-51.6V185.4z"/>
	<path class="st3" d="M693.9,114.4c4,0,7.5,0.2,9.8,0.9c2.6,0.6,4.5,1.5,5.8,2.8c1.7,1.5,3.2,3.6,4,6.4c0.9,2.6,1.5,5.8,1.5,9.2
		c0,4.3-0.6,7.9-2.1,11.1c-1.3,3.2-3.2,5.5-5.8,6.8c2.1,1.3,3.6,3,4.5,4.9c0.9,1.9,1.3,5.3,1.5,10.2c0,0.6,0,1.3,0,2.3
		c0.2,9.4,1.1,14.5,2.6,15.3v1.1h-20.5c-0.6-1.5-1.1-4.5-1.1-8.7c0-2.6-0.2-4.5-0.2-5.8c-0.2-2.6-0.9-4.5-1.7-5.5
		c-1.1-1.1-2.6-1.5-4.9-1.5h-10.9v21.5h-18.5v-71L693.9,114.4L693.9,114.4z M676.4,145.1h10.7c2.8,0,4.7-0.4,6-1.5
		c1.1-1.1,1.7-2.6,1.7-4.9c0-2.3-0.6-3.8-1.7-4.9c-1.1-0.9-3.2-1.3-6.4-1.3h-10.2V145.1z"/>
	<path class="st3" d="M718.6,155.1H737v1.1c0,4.3,0.4,7.5,1.3,9.6c0.9,2.1,2.3,3,4.3,3c2.1,0,3.6-1.1,4.5-3c0.9-1.9,1.3-6,1.3-11.9
		v-39.4h18.3v36.4c0,8.3-0.2,14.1-0.6,17.5c-0.4,3.4-1.3,6.2-2.6,8.5c-1.7,3.4-4.3,6-7.7,7.7c-3.4,1.7-7.5,2.6-12.4,2.6
		c-9,0-15.3-2.3-19.2-6.8c-3.8-4.5-5.8-11.9-5.8-22.4v-2.8H718.6z"/>
	<path class="st3" d="M794.3,114.4v34.7c0,7,0.6,12.1,2.1,14.9c1.5,2.8,3.8,4,7.5,4s6-1.3,7.5-4c1.5-2.8,2.1-7.7,2.1-14.9v-34.7
		h18.3v37.3c0,12.4-2.1,21.3-6.6,27.1c-4.5,5.8-11.5,8.5-21.3,8.5c-9.6,0-16.6-3-21.1-8.7c-4.5-5.8-6.8-14.7-6.8-27.1v-37.3h18.3
		V114.4z"/>
	<path class="st3" d="M833.9,185.4l20.5-71h23.2l19.2,71H877l-1.5-7h-20l-1.7,7H833.9z M859.5,160.9h11.7l-5.8-24.9L859.5,160.9z"/>
	<path class="st3" d="M900,185.4v-71h21.7l18.3,40.9v-40.9h17.7v71h-20.5l-19.8-41.6v41.6H900z"/>
	<path class="st3" d="M1017.9,179.2c-2.1,2.8-4.9,4.9-8.1,6.2c-3.4,1.3-7.5,1.9-12.6,1.9c-10.4,0-18.5-3.2-23.9-9.4
		c-5.3-6.2-8.1-15.6-8.1-27.9c0-12.4,2.8-21.7,8.1-27.9c5.3-6.2,13.2-9.4,23.9-9.4c8.7,0,16,2.3,21.3,6.8c5.3,4.5,8.3,10.9,9,18.8
		h-20c-1.1-3-2.3-5.1-3.8-6.4c-1.7-1.5-3.6-2.1-5.8-2.1c-3.8,0-6.8,1.9-9.2,5.5s-3.4,8.5-3.4,14.9c0,6.2,1.1,11.1,3.4,14.7
		c2.3,3.4,5.5,5.1,9.6,5.1c3,0,5.5-0.9,7.7-2.6c1.9-1.7,3.2-3.8,3.6-6.8h-7.7v-15.3h26.4v40.3h-8.3L1017.9,179.2z"/>
	<path class="st3" d="M1029.8,185.4l20.5-71h23.2l19.2,71h-19.8l-1.5-7h-20l-1.7,7H1029.8z M1055.4,160.9h11.7l-5.5-24.9
		L1055.4,160.9z"/>
	<path class="st3" d="M1095.9,185.4v-71h21.7l18.3,40.9v-40.9h17.7v71h-20.5l-19.8-41.6v41.6H1095.9z"/>
</g>
</svg>
